<svg width="30" height="31" viewBox="0 0 30 31" fill="none" xmlns="http://www.w3.org/2000/svg">
<g id="accesibility-global">
<g id="accesibility-global_2">
<path id="Path 257088" d="M23.2089 24.0018C23.7597 23.4513 24.4843 23.1087 25.2593 23.0325C26.0343 22.9563 26.8118 23.1512 27.4592 23.584C28.1067 24.0168 28.584 24.6606 28.8099 25.4059C29.0358 26.1512 28.9964 26.9517 28.6982 27.6711C28.4 28.3905 27.8616 28.9843 27.1748 29.3513C26.4879 29.7182 25.695 29.8357 24.9313 29.6836C24.1675 29.5315 23.4801 29.1193 22.9862 28.5172C22.4923 27.9151 22.2225 27.1603 22.2227 26.3816C22.2229 25.4889 22.5776 24.6329 23.2089 24.0018Z" fill="#FFC627"/>
<path id="Path 257089" d="M24.7465 4.43466C24.5128 4.19913 24.3677 3.89008 24.3358 3.55984C24.3038 3.22959 24.387 2.89847 24.5713 2.62253C24.7555 2.34659 25.0294 2.14281 25.3467 2.04569C25.6639 1.94857 26.005 1.96408 26.3121 2.0896C26.6192 2.21512 26.8735 2.44293 27.0319 2.73445C27.1903 3.02597 27.2431 3.36328 27.1813 3.68926C27.1196 4.01524 26.947 4.30984 26.6929 4.52319C26.4388 4.73653 26.1188 4.85549 25.7871 4.85993C25.5939 4.86252 25.4023 4.82619 25.2235 4.75313C25.0447 4.68007 24.8825 4.57176 24.7465 4.43466Z" fill="white"/>
<path id="Ellipse 12169" d="M25.9139 10.3387C26.4461 10.3387 26.8775 9.90724 26.8775 9.37503C26.8775 8.84282 26.4461 8.41138 25.9139 8.41138C25.3816 8.41138 24.9502 8.84282 24.9502 9.37503C24.9502 9.90724 25.3816 10.3387 25.9139 10.3387Z" fill="#191919"/>
<path id="Path 257090" d="M23.15 14.9849C23.1533 13.8077 22.9227 12.6415 22.4714 11.5542C22.0202 10.4668 21.3574 9.48002 20.5215 8.65103L20.7613 8.41577C22.4996 10.1564 23.4759 12.5159 23.4759 14.9759C23.4759 17.4359 22.4996 19.7953 20.7613 21.536L20.5215 21.3007C21.355 20.4737 22.0164 19.4898 22.4676 18.4058C22.9187 17.3217 23.1507 16.1591 23.15 14.9849Z" fill="white"/>
<path id="Path 257091" d="M20.5214 8.66016C21.3558 9.49045 22.0179 10.4774 22.4698 11.5644C22.9216 12.6514 23.1542 13.8169 23.1542 14.994C23.1542 16.1712 22.9216 17.3367 22.4698 18.4237C22.0179 19.5107 21.3558 20.4976 20.5214 21.3279L17.9697 18.7808C18.8026 17.9498 19.4631 16.9625 19.9134 15.8755C20.3637 14.7886 20.5949 13.6234 20.5938 12.4469C20.5971 11.3367 20.3898 10.236 19.983 9.20306L20.5214 8.66016Z" fill="#D0D0D0"/>
<path id="Path 257092" d="M20.761 8.42487L20.5212 8.66013C20.0957 8.22843 19.6256 7.84321 19.1187 7.51098C19.4689 8.03783 19.7587 8.60238 19.9828 9.19398L17.7207 11.4561C14.4768 12.1483 13.1196 12.0488 9.37353 11.162C9.29048 11.1405 9.20397 11.1358 9.11907 11.1482C9.03418 11.1606 8.95261 11.1898 8.87917 11.2342C8.80574 11.2785 8.74191 11.3371 8.69143 11.4065C8.64096 11.4759 8.60486 11.5546 8.58526 11.6381C8.56566 11.7217 8.56295 11.8083 8.5773 11.8929C8.59164 11.9774 8.62275 12.0583 8.66879 12.1307C8.71483 12.2031 8.77488 12.2656 8.8454 12.3144C8.91593 12.3633 8.99551 12.3976 9.07946 12.4152C10.2476 12.7122 11.4319 12.9418 12.6264 13.1029C12.6339 14.3116 12.5765 15.5197 12.4545 16.7223L8.38273 20.794C7.79264 20.5647 7.22849 20.2735 6.69973 19.9254C7.03312 20.4315 7.41825 20.9015 7.84888 21.3279L7.61362 21.5632C6.69933 20.7138 5.96566 19.6889 5.45646 18.5496C4.94726 17.4103 4.67298 16.18 4.65001 14.9323C4.62704 13.6846 4.85586 12.4451 5.32278 11.2878C5.78971 10.1306 6.48515 9.07931 7.36756 8.19691C8.24997 7.3145 9.30122 6.61905 10.4585 6.15213C11.6158 5.6852 12.8553 5.45639 14.103 5.47936C15.3507 5.50232 16.5809 5.77661 17.7202 6.28581C18.8595 6.79501 19.8845 7.52868 20.7338 8.44297L20.761 8.42487ZM15.721 9.94048C15.7219 9.63784 15.633 9.34175 15.4655 9.08968C15.298 8.83761 15.0595 8.64091 14.7801 8.52448C14.5008 8.40804 14.1932 8.37711 13.8963 8.43561C13.5993 8.4941 13.3264 8.63938 13.1121 8.85306C12.8978 9.06674 12.7517 9.3392 12.6924 9.63596C12.633 9.93271 12.663 10.2404 12.7786 10.5201C12.8942 10.7998 13.0902 11.0389 13.3418 11.2071C13.5933 11.3753 13.8892 11.4651 14.1918 11.4651C14.5966 11.4651 14.9849 11.3046 15.2715 11.0188C15.5582 10.733 15.7198 10.3453 15.721 9.94048Z" fill="white"/>
<path id="Path 257093" d="M20.521 21.3188L20.7608 21.5541C19.0207 23.2935 16.6611 24.2707 14.2007 24.2707C11.7404 24.2707 9.3807 23.2935 7.64062 21.5541L7.87588 21.3188C8.70617 22.1533 9.69316 22.8154 10.7801 23.2672C11.8671 23.7191 13.0326 23.9516 14.2098 23.9516C15.3869 23.9516 16.5524 23.7191 17.6394 23.2672C18.7264 22.8154 19.7134 22.1533 20.5437 21.3188H20.521Z" fill="white"/>
<path id="Path 257094" d="M20.5216 8.66013L19.9833 9.19399C19.7592 8.60238 19.4693 8.03784 19.1191 7.51099C19.6261 7.84322 20.0962 8.22844 20.5216 8.66013Z" fill="#D0D0D0"/>
<path id="Path 257095" d="M17.9696 18.7717L20.5213 21.3189C19.691 22.1533 18.704 22.8154 17.617 23.2672C16.5301 23.7191 15.3645 23.9517 14.1874 23.9517C13.0103 23.9517 11.8447 23.7191 10.7578 23.2672C9.67079 22.8154 8.68381 22.1533 7.85352 21.3189L8.38737 20.785C9.42039 21.1856 10.5187 21.3911 11.6267 21.3912C11.885 21.3929 12.1433 21.3809 12.4003 21.355C13.4038 21.2749 14.3854 21.0192 15.3004 20.5995L15.3501 20.7171C15.3823 20.8225 15.4359 20.9201 15.5076 21.0038C15.5792 21.0875 15.6674 21.1555 15.7665 21.2035C15.8656 21.2516 15.9736 21.2787 16.0837 21.2831C16.1938 21.2876 16.3036 21.2692 16.4063 21.2293C16.5089 21.1894 16.6023 21.1286 16.6804 21.051C16.7585 20.9733 16.8198 20.8804 16.8604 20.7779C16.901 20.6755 16.92 20.5658 16.9162 20.4557C16.9125 20.3456 16.886 20.2375 16.8386 20.138C16.7979 20.0249 16.7526 19.9164 16.7119 19.8078C17.1622 19.5019 17.5832 19.1551 17.9696 18.7717Z" fill="#D0D0D0"/>
<path id="Path 257096" d="M19.9829 9.19409C20.3897 10.227 20.597 11.3278 20.5937 12.4379C20.5948 13.6145 20.3636 14.7796 19.9133 15.8666C19.463 16.9535 18.8025 17.9408 17.9696 18.7718L15.9292 16.7314C15.8148 15.6313 15.7589 14.5258 15.7618 13.4197L16.1328 13.0532C17.1553 12.9085 18.2004 12.6732 19.2998 12.4153C19.3833 12.397 19.4624 12.3622 19.5324 12.3129C19.6024 12.2637 19.6619 12.201 19.7074 12.1285C19.7529 12.056 19.7835 11.9752 19.7974 11.8908C19.8113 11.8063 19.8082 11.72 19.7884 11.6367C19.7686 11.5535 19.7323 11.475 19.6818 11.4059C19.6314 11.3368 19.5676 11.2785 19.4943 11.2343C19.421 11.1901 19.3397 11.161 19.255 11.1486C19.1703 11.1362 19.084 11.1408 19.0012 11.1621C18.5487 11.2752 18.0963 11.3702 17.7163 11.4562L19.9829 9.19409Z" fill="white"/>
<path id="Path 257097" d="M19.7834 11.6417C19.8223 11.8035 19.7969 11.9741 19.7125 12.1176C19.6281 12.2611 19.4914 12.3662 19.331 12.4108C18.2226 12.6687 17.1775 12.9039 16.1641 13.0487L17.7566 11.4562C18.1547 11.3702 18.58 11.2752 19.0415 11.1621C19.2028 11.1342 19.3687 11.1681 19.5061 11.2569C19.6436 11.3458 19.7426 11.4832 19.7834 11.6417Z" fill="#191919"/>
<path id="Path 257098" d="M17.9696 18.7491C17.5928 19.1391 17.1808 19.4935 16.739 19.8078C16.3212 18.8266 16.0543 17.7879 15.9473 16.7268L17.9696 18.7491Z" fill="white"/>
<path id="Path 257099" d="M17.7251 11.4561L16.1326 13.0486L15.7571 13.0984V13.4151L14.1872 14.985L12.4499 16.7223C12.5719 15.5198 12.6292 14.3116 12.6218 13.1029C11.4288 12.9416 10.2461 12.712 9.07938 12.4152C8.92199 12.3687 8.78838 12.2637 8.70598 12.1217C8.62357 11.9798 8.59862 11.8117 8.63625 11.6519C8.67387 11.4921 8.77122 11.3528 8.90831 11.2626C9.0454 11.1723 9.21183 11.138 9.37345 11.1666C13.1195 12.0488 14.4768 12.1483 17.7251 11.4561Z" fill="#191919"/>
<path id="Path 257100" d="M16.8476 20.1381C16.9094 20.2378 16.9485 20.3497 16.9623 20.4661C16.976 20.5825 16.964 20.7005 16.9272 20.8118C16.8903 20.9231 16.8295 21.0249 16.749 21.1101C16.6685 21.1952 16.5702 21.2617 16.4612 21.3048C16.3522 21.3478 16.2351 21.3665 16.1181 21.3593C16.0011 21.3521 15.8871 21.3194 15.7842 21.2633C15.6812 21.2073 15.5918 21.1294 15.5223 21.035C15.4528 20.9406 15.4048 20.8322 15.3818 20.7172L15.332 20.5996C15.8265 20.3838 16.298 20.1186 16.7391 19.8079C16.7677 19.9203 16.804 20.0306 16.8476 20.1381Z" fill="#191919"/>
<path id="Ellipse 12170" d="M15.8933 3.42121C16.4256 3.42121 16.857 2.98976 16.857 2.45755C16.857 1.92534 16.4256 1.4939 15.8933 1.4939C15.3611 1.4939 14.9297 1.92534 14.9297 2.45755C14.9297 2.98976 15.3611 3.42121 15.8933 3.42121Z" fill="#191919"/>
<path id="Path 257101" d="M15.9295 16.7269C16.0423 17.7889 16.3153 18.8277 16.7393 19.8079C16.2968 20.1189 15.8239 20.3841 15.3278 20.5996C14.866 19.5254 14.5613 18.3902 14.4229 17.2291H14.0339C13.8788 18.4325 13.5512 19.6073 13.0612 20.7173C13.0116 20.8492 12.9275 20.9654 12.8177 21.0537C12.7078 21.1421 12.5763 21.1993 12.4368 21.2195C12.2995 21.2426 12.1585 21.227 12.0296 21.1742C11.8325 21.0965 11.6742 20.9439 11.5894 20.7497C11.5046 20.5555 11.5002 20.3356 11.5772 20.1382C12.0533 19.0531 12.3586 17.9009 12.4821 16.7224L14.2194 14.9851L15.9295 16.7269Z" fill="#191919"/>
<path id="Path 257102" d="M16.1327 13.0486L15.7617 13.415V13.0984L16.1327 13.0486Z" fill="white"/>
<path id="Path 257103" d="M15.9297 16.7268L14.1924 14.9849L15.7623 13.415C15.7594 14.5211 15.8152 15.6266 15.9297 16.7268Z" fill="#191919"/>
<path id="Path 257104" d="M14.1916 8.41138C14.4943 8.41049 14.7904 8.49941 15.0424 8.6669C15.2945 8.83438 15.4912 9.07289 15.6076 9.35223C15.7241 9.63157 15.755 9.93918 15.6965 10.2361C15.638 10.533 15.4927 10.8059 15.2791 11.0202C15.0654 11.2346 14.7929 11.3807 14.4962 11.44C14.1994 11.4994 13.8917 11.4694 13.612 11.3538C13.3323 11.2382 13.0933 11.0422 12.925 10.7906C12.7568 10.539 12.667 10.2432 12.667 9.94057C12.667 9.53578 12.8275 9.14751 13.1133 8.86087C13.3991 8.57422 13.7869 8.41258 14.1916 8.41138Z" fill="#191919"/>
<path id="Path 257105" d="M14.3868 17.229C14.5251 18.3901 14.8299 19.5252 15.2916 20.5995C14.3766 21.0192 13.3951 21.275 12.3916 21.3551V21.2194C12.5311 21.1992 12.6626 21.142 12.7724 21.0536C12.8823 20.9653 12.9664 20.8491 13.0159 20.7172C13.506 19.6072 13.8336 18.4324 13.9886 17.229H14.3868Z" fill="white"/>
<path id="Path 257106" d="M8.39648 20.7852L12.4683 16.7134C12.3448 17.8919 12.0395 19.0441 11.5634 20.1292C11.4864 20.3266 11.4908 20.5465 11.5756 20.7406C11.6604 20.9348 11.8187 21.0875 12.0158 21.1652C12.1447 21.218 12.2857 21.2336 12.423 21.2104V21.3462C12.166 21.372 11.9077 21.3841 11.6494 21.3824C10.5374 21.3868 9.43435 21.1843 8.39648 20.7852Z" fill="white"/>
<path id="Ellipse 12171" d="M9.36893 27.4627C9.90114 27.4627 10.3326 27.0313 10.3326 26.4991C10.3326 25.9668 9.90114 25.5354 9.36893 25.5354C8.83672 25.5354 8.40527 25.9668 8.40527 26.4991C8.40527 27.0313 8.83672 27.4627 9.36893 27.4627Z" fill="#191919"/>
<path id="Path 257107" d="M8.39589 20.7849L7.86204 21.3188C7.4314 20.8924 7.04628 20.4223 6.71289 19.9163C7.24165 20.2644 7.8058 20.5556 8.39589 20.7849Z" fill="#D0D0D0"/>
<path id="Path 257108" d="M5.9039 23.2733C6.21795 23.5884 6.413 24.0027 6.4558 24.4456C6.4986 24.8884 6.38651 25.3324 6.13862 25.7019C5.89074 26.0713 5.52241 26.3434 5.0964 26.4717C4.67039 26.6 4.21308 26.5765 3.8024 26.4054C3.39171 26.2343 3.05308 25.9261 2.84421 25.5332C2.63534 25.1404 2.56916 24.6873 2.65695 24.2512C2.74473 23.815 2.98106 23.4228 3.32564 23.1413C3.67022 22.8599 4.10174 22.7067 4.54664 22.7078C5.05612 22.709 5.54427 22.9124 5.9039 23.2733Z" fill="white"/>
<path id="Ellipse 12172" d="M3.99008 7.7282C5.94402 7.7282 7.528 6.14422 7.528 4.19027C7.528 2.23633 5.94402 0.652344 3.99008 0.652344C2.03613 0.652344 0.452148 2.23633 0.452148 4.19027C0.452148 6.14422 2.03613 7.7282 3.99008 7.7282Z" fill="#FFC627"/>
<path id="Ellipse 12173" d="M1.56522 11.6236C2.09743 11.6236 2.52887 11.1922 2.52887 10.6599C2.52887 10.1277 2.09743 9.69629 1.56522 9.69629C1.03301 9.69629 0.601562 10.1277 0.601562 10.6599C0.601562 11.1922 1.03301 11.6236 1.56522 11.6236Z" fill="#191919"/>
<path id="Line 4704" d="M20.7607 8.42492L24.7466 4.43457" stroke="#191919" stroke-width="0.904841" stroke-linecap="round" stroke-linejoin="round"/>
<path id="Line 4705" d="M20.7607 21.5542L23.2083 24.0018" stroke="#191919" stroke-width="0.904841" stroke-linecap="round" stroke-linejoin="round"/>
<path id="Line 4706" d="M7.62704 21.5542L5.90332 23.2779" stroke="#191919" stroke-width="0.904841" stroke-linecap="round" stroke-linejoin="round"/>
<path id="Path 257109" d="M27.2077 3.41651C26.8289 3.41352 26.4668 3.26057 26.2005 2.99114C25.9343 2.72172 25.7856 2.35777 25.7871 1.97899C25.7886 1.60021 25.9401 1.23745 26.2085 0.970134C26.4769 0.702821 26.8402 0.552734 27.219 0.552734C27.5978 0.552734 27.9612 0.702821 28.2295 0.970134C28.4979 1.23745 28.6494 1.60021 28.6509 1.97899C28.6524 2.35777 28.5038 2.72172 28.2375 2.99114C27.9713 3.26057 27.6091 3.41352 27.2303 3.41651H27.2077Z" stroke="#191919" stroke-width="0.904841" stroke-linecap="round" stroke-linejoin="round"/>
<path id="Path 257110" d="M6.46912 24.6306C6.47108 25.078 6.31775 25.5121 6.0353 25.859C5.75284 26.2058 5.35876 26.4439 4.92032 26.5326C4.48188 26.6213 4.02625 26.5551 3.63119 26.3453C3.23613 26.1355 2.92612 25.795 2.75407 25.3821C2.58203 24.9692 2.5586 24.5094 2.6878 24.0811C2.817 23.6529 3.09082 23.2827 3.46252 23.0339C3.83422 22.785 4.28076 22.6728 4.72594 22.7165C5.17113 22.7602 5.58736 22.957 5.9036 23.2734C6.26364 23.6336 6.46689 24.1214 6.46912 24.6306Z" stroke="#191919" stroke-width="0.904841" stroke-linecap="round" stroke-linejoin="round"/>
<path id="Path 257111" d="M28.9544 26.3816C28.9533 27.1591 28.6828 27.9122 28.1888 28.5126C27.6948 29.113 27.008 29.5236 26.2452 29.6745C25.4825 29.8253 24.6911 29.7071 24.0057 29.34C23.3203 28.9729 22.7834 28.3796 22.4864 27.661C22.1894 26.9425 22.1506 26.1432 22.3767 25.3993C22.6028 24.6554 23.0798 24.0129 23.7264 23.5812C24.3731 23.1495 25.1494 22.9553 25.9231 23.0316C26.6968 23.108 27.4202 23.4502 27.9699 24C28.2824 24.3129 28.5302 24.6842 28.6991 25.0929C28.868 25.5015 28.9548 25.9394 28.9544 26.3816Z" stroke="#191919" stroke-width="0.904841" stroke-linecap="round" stroke-linejoin="round"/>
<path id="Path 257112" d="M20.7611 21.5542C22.2796 20.0372 23.2253 18.0406 23.4369 15.9045C23.6486 13.7685 23.1131 11.6251 21.9218 9.83957C20.7304 8.05401 18.9569 6.73671 16.9033 6.11205C14.8497 5.4874 12.6431 5.59403 10.6593 6.41378C8.67546 7.23354 7.03721 8.71571 6.0236 10.6078C5.00998 12.4999 4.68368 14.6849 5.1003 16.7906C5.51691 18.8963 6.65067 20.7924 8.30843 22.156C9.96619 23.5195 12.0454 24.2662 14.1919 24.2687C15.4116 24.2702 16.6195 24.0312 17.7467 23.5654C18.8739 23.0996 19.8982 22.4162 20.7611 21.5542Z" stroke="#191919" stroke-width="0.904841" stroke-linecap="round" stroke-linejoin="round"/>
<path id="Ellipse 12174" d="M3.99008 7.7282C5.94402 7.7282 7.528 6.14422 7.528 4.19027C7.528 2.23633 5.94402 0.652344 3.99008 0.652344C2.03613 0.652344 0.452148 2.23633 0.452148 4.19027C0.452148 6.14422 2.03613 7.7282 3.99008 7.7282Z" stroke="#191919" stroke-width="0.904841" stroke-linecap="round" stroke-linejoin="round"/>
</g>
</g>
</svg>
