<svg id="maintenance" xmlns="http://www.w3.org/2000/svg" xmlns:xlink="http://www.w3.org/1999/xlink" width="296.745" height="183.336" viewBox="0 0 296.745 183.336">
  <defs>
    <clipPath id="clip-path">
      <rect id="Rectangle_26832" data-name="Rectangle 26832" width="296.745" height="183.336" fill="none"/>
    </clipPath>
  </defs>
  <g id="Group_87350" data-name="Group 87350" clip-path="url(#clip-path)">
    <path id="Path_267509" data-name="Path 267509" d="M37.963,19.55C72.631-8.136,117.5,1.558,119.368,1.992c28.352,6.587,27.078,21.366,57.994,32.456,45.121,16.185,68.831-7.762,94.707,10.641,20.222,14.383,28.7,45.336,22.878,68.635-10.76,43.1-72.443,68.127-119.181,62.251-44.623-5.61-56.384-36.973-105.879-36.18-32.01.513-42.93,13.885-55.335,5.321C-9.263,128.674-5.453,54.223,37.963,19.55" fill="#f2f2f2"/>
    <path id="Path_267510" data-name="Path 267510" d="M240.373,166.3H55.663a9.6,9.6,0,0,1-9.6-9.6V38.078a9.6,9.6,0,0,1,9.6-9.6h184.71a9.6,9.6,0,0,1,9.6,9.6V156.7a9.6,9.6,0,0,1-9.6,9.6" fill="#fff"/>
    <path id="Path_267511" data-name="Path 267511" d="M242.115,28.95H55.232c-4.87-.187-8.892,3.137-8.746,8.763v3.048l203.083-.187V37.1c0-4.316-3.4-8.15-7.454-8.15" fill="#e6e6e6"/>
    <path id="Path_267512" data-name="Path 267512" d="M132.3,127.9H65.115a2.333,2.333,0,0,1-2.333-2.334v-20.78a2.333,2.333,0,0,1,2.333-2.334H132.3a2.334,2.334,0,0,1,2.334,2.334v20.78A2.334,2.334,0,0,1,132.3,127.9" fill="#8c1d40"/>
    <path id="Path_267513" data-name="Path 267513" d="M84.105,115.542a6.907,6.907,0,1,1-6.907-6.907,6.907,6.907,0,0,1,6.907,6.907" fill="#ffc627"/>
    <rect id="Rectangle_26824" data-name="Rectangle 26824" width="36.354" height="1" transform="translate(89.922 115.769)" fill="#fff"/>
    <rect id="Rectangle_26825" data-name="Rectangle 26825" width="17.419" height="1" transform="translate(89.923 111.065)" fill="#fff"/>
    <rect id="Rectangle_26826" data-name="Rectangle 26826" width="36.354" height="1" transform="translate(89.922 120.131)" fill="#fff"/>
    <rect id="Rectangle_26827" data-name="Rectangle 26827" width="71.617" height="10.404" transform="translate(63.02 48.317)" fill="#e6e6e6"/>
    <rect id="Rectangle_26828" data-name="Rectangle 26828" width="71.617" height="4.014" transform="translate(63.02 134.437)" fill="#e6e6e6"/>
    <rect id="Rectangle_26829" data-name="Rectangle 26829" width="71.617" height="4.014" transform="translate(63.02 141.916)" fill="#e6e6e6"/>
    <path id="Path_267514" data-name="Path 267514" d="M132.33,96.411H125.5v-1H132.3Zm-13.64,0h-6.806v-1h6.806Zm-13.613,0H98.271v-1h6.806Zm-13.612,0H84.658v-1h6.807Zm-13.613,0H71.046v-1h6.806Zm-13.776-.2a2.814,2.814,0,0,1-1.794-2.637V89.562h1v4.015a1.823,1.823,0,0,0,1.161,1.708Zm71.061-5.8h-1V83.605h1ZM63.282,82.755h-1V75.949h1ZM135.137,76.8h-1v-4a1.822,1.822,0,0,0-1.172-1.711l.361-.933a2.854,2.854,0,0,1,1.811,2.644Zm-8.778-5.835h-6.807v-1h6.807Zm-13.613,0h-6.807v-1h6.807Zm-13.612,0H92.328v-1h6.806Zm-13.613,0H78.715v-1h6.806Zm-13.613,0H65.116l-.014-1h6.806Z" fill="#b3b3b3"/>
    <path id="Path_267515" data-name="Path 267515" d="M233.281,35.376a1.664,1.664,0,1,1-1.664-1.664,1.664,1.664,0,0,1,1.664,1.664" fill="#8c8c8c"/>
    <path id="Path_267516" data-name="Path 267516" d="M238.835,35.376a1.664,1.664,0,1,1-1.664-1.664,1.664,1.664,0,0,1,1.664,1.664" fill="#ff7f32"/>
    <path id="Path_267517" data-name="Path 267517" d="M244.39,35.376a1.664,1.664,0,1,1-1.664-1.664,1.664,1.664,0,0,1,1.664,1.664" fill="#8c1d40"/>
    <path id="Path_267518" data-name="Path 267518" d="M222.551,38.122H54.692a3.27,3.27,0,1,1,0-6.54H222.551a3.27,3.27,0,1,1,0,6.54" fill="#fff"/>
    <path id="Path_267519" data-name="Path 267519" d="M240.373,166.8H55.663a10.115,10.115,0,0,1-10.1-10.1V38.078a10.115,10.115,0,0,1,10.1-10.1h184.71a10.114,10.114,0,0,1,10.1,10.1V156.7a10.114,10.114,0,0,1-10.1,10.1M55.663,28.975a9.113,9.113,0,0,0-9.1,9.1V156.7a9.114,9.114,0,0,0,9.1,9.1h184.71a9.114,9.114,0,0,0,9.1-9.1V38.078a9.113,9.113,0,0,0-9.1-9.1Z" fill="#b3b3b3"/>
    <path id="Path_267520" data-name="Path 267520" d="M236.435,144.5,156.063,50.73l.76-.65L237.2,143.848Z" fill="#e8e8e8"/>
    <path id="Path_267521" data-name="Path 267521" d="M156.823,144.5l-.76-.65L236.435,50.08l.76.65Z" fill="#e8e8e8"/>
    <path id="Path_267522" data-name="Path 267522" d="M153.9,176.277H140.573l-2.452-18.229h18.23Z" fill="#8c1d40"/>
    <path id="Path_267523" data-name="Path 267523" d="M155.657,158.5h-1a7.421,7.421,0,0,0-14.842,0h-1a8.421,8.421,0,0,1,16.842,0" fill="#3943b3"/>
    <path id="Path_267524" data-name="Path 267524" d="M152.635,158.645a.689.689,0,0,0,.1-.6H141.764c-.211,1.243.3,2.6.75,2.661.552.075.934-1.851,1.611-1.8.569.038,1.354,1.342.806,4.448-.483,2.74,1.185,3.319,1.368,3.284,1.708-.323.6-6.583,2.113-7.023.574-.167,1.139.676,1.9.355.631-.266.66-1.015,1.419-1.225.465-.129.716.079.9-.1" fill="#ffc627"/>
    <path id="Path_267525" data-name="Path 267525" d="M210.147,181.759H192.331l5.8-29.363h6.214Z" fill="#ff7f32"/>
    <rect id="Rectangle_26830" data-name="Rectangle 26830" width="25.426" height="3.036" transform="translate(188.113 180.3)" fill="#ff7f32"/>
    <path id="Path_267526" data-name="Path 267526" d="M210.147,181.759H192.331l5.8-29.363h6.214Z" fill="#ff7f32"/>
    <path id="Path_267527" data-name="Path 267527" d="M195.673,164.839H206.8l-.909-4.6h-9.313Z" fill="#fff"/>
    <path id="Path_267528" data-name="Path 267528" d="M193.547,175.6h15.382l-.908-4.6H194.455Z" fill="#fff"/>
    <path id="Path_267529" data-name="Path 267529" d="M101.589,181.759H83.771l5.8-29.363h6.214Z" fill="#ff7f32"/>
    <rect id="Rectangle_26831" data-name="Rectangle 26831" width="25.426" height="3.036" transform="translate(79.555 180.3)" fill="#ff7f32"/>
    <path id="Path_267530" data-name="Path 267530" d="M101.589,181.759H83.771l5.8-29.363h6.214Z" fill="#ff7f32"/>
    <path id="Path_267531" data-name="Path 267531" d="M87.115,164.839h11.13l-.908-4.6H88.024Z" fill="#fff"/>
    <path id="Path_267532" data-name="Path 267532" d="M84.989,175.6h15.383l-.909-4.6H85.9Z" fill="#fff"/>
    <path id="Path_267533" data-name="Path 267533" d="M233.343,146.123H160.236a5.738,5.738,0,0,1-5.731-5.732V53.55a5.738,5.738,0,0,1,5.731-5.732h73.107a5.738,5.738,0,0,1,5.732,5.732v86.841a5.738,5.738,0,0,1-5.732,5.732M160.236,48.818a4.737,4.737,0,0,0-4.731,4.732v86.841a4.737,4.737,0,0,0,4.731,4.732h73.107a4.737,4.737,0,0,0,4.732-4.732V53.55a4.737,4.737,0,0,0-4.732-4.732Z" fill="#b3b3b3"/>
  </g>
</svg>
