<svg xmlns="http://www.w3.org/2000/svg" xmlns:xlink="http://www.w3.org/1999/xlink" width="60.561" height="48.302" viewBox="0 0 60.561 48.302">
  <defs>
    <clipPath id="clip-path">
      <rect id="Rectangle_22474" data-name="Rectangle 22474" width="60.561" height="48.302" transform="translate(0 0)" fill="none"/>
    </clipPath>
  </defs>
  <g id="login_icon" data-name="login icon" transform="translate(0 0)">
    <g id="Group_87278" data-name="Group 87278" clip-path="url(#clip-path)">
      <path id="Path_267362" data-name="Path 267362" d="M13.294,25.418c.03.552.084,1.1.152,1.637l2.233-1.637Z" fill="#e8e8e8"/>
      <path id="Path_267363" data-name="Path 267363" d="M13.375,21.818c-.056.557-.085,1.122-.1,1.69H15.68Z" fill="#e8e8e8"/>
      <path id="Path_267364" data-name="Path 267364" d="M16.375,33.614a22,22,0,0,0,3.064,4.744,11.175,11.175,0,0,1,10.126-6.52h.745a.857.857,0,0,1,.374.086,13.051,13.051,0,0,0,11.448,0,.89.89,0,0,1,.384-.087h.74a11.175,11.175,0,0,1,10.126,6.526A22.147,22.147,0,1,0,16.344,14.754a1,1,0,0,1-1.306.486,22.959,22.959,0,0,0-1.327,4.344l5.414,3.969a.851.851,0,0,1,.138.15.916.916,0,0,1,0,1.522.839.839,0,0,1-.134.146l-5.3,3.883a22.875,22.875,0,0,0,1.236,3.878.994.994,0,0,1,1.309.482m12.353-20.66A10.791,10.791,0,0,1,36.41,9.772h0a10.867,10.867,0,1,1-7.683,3.182" fill="#e8e8e8"/>
      <path id="Path_267365" data-name="Path 267365" d="M43.256,33.6h-.541a14.643,14.643,0,0,1-12.608,0h-.542A9.41,9.41,0,0,0,20.753,39.8,22.1,22.1,0,0,0,52.07,39.8a9.412,9.412,0,0,0-8.814-6.2" fill="#ffc627"/>
      <path id="Path_267366" data-name="Path 267366" d="M43.256,32.036h-.739a.693.693,0,0,0-.3.067,13.241,13.241,0,0,1-11.622,0,.655.655,0,0,0-.287-.066h-.746a10.978,10.978,0,0,0-9.986,6.489q.492.573,1.021,1.109A9.609,9.609,0,0,1,29.565,33.4l.607.011a14.446,14.446,0,0,0,12.478,0l.043-.01h.563a9.611,9.611,0,0,1,8.967,6.239q.528-.538,1.017-1.114a10.979,10.979,0,0,0-9.984-6.491"/>
      <path id="Path_267367" data-name="Path 267367" d="M43.256,31.837h-.739a.887.887,0,0,0-.384.087,13.044,13.044,0,0,1-11.448,0,.857.857,0,0,0-.374-.086h-.746a11.174,11.174,0,0,0-10.126,6.52c.047.056.092.113.14.168a10.978,10.978,0,0,1,9.986-6.489h.746a.657.657,0,0,1,.287.067,13.241,13.241,0,0,0,11.622,0,.694.694,0,0,1,.3-.068h.739a10.979,10.979,0,0,1,9.984,6.491c.047-.055.1-.108.142-.163a11.173,11.173,0,0,0-10.126-6.527" fill="#191919"/>
      <path id="Path_267368" data-name="Path 267368" d="M43.256,33.4h-.563l-.043.01a14.453,14.453,0,0,1-12.478,0l-.607-.011A9.609,9.609,0,0,0,20.6,39.635c.052.053.1.108.153.16A9.412,9.412,0,0,1,29.565,33.6h.542a14.636,14.636,0,0,0,12.608,0h.541a9.412,9.412,0,0,1,8.814,6.2c.052-.052.1-.107.153-.16A9.609,9.609,0,0,0,43.256,33.4" fill="#191919"/>
      <path id="Path_267369" data-name="Path 267369" d="M36.409,29.74a9.1,9.1,0,0,0,.067-18.2h-.067a9.1,9.1,0,1,0,0,18.2" fill="#fff"/>
      <path id="Path_267370" data-name="Path 267370" d="M36.409,31.306a10.667,10.667,0,1,0,0-21.334h0a10.667,10.667,0,0,0,0,21.334m-9.3-10.667a9.312,9.312,0,0,1,9.2-9.3v0h.1a9.3,9.3,0,1,1-9.3,9.3"/>
      <path id="Path_267371" data-name="Path 267371" d="M36.409,31.5a10.866,10.866,0,1,0,0-21.732h0a10.866,10.866,0,0,0,0,21.732m0-21.533h0A10.668,10.668,0,1,1,28.868,13.1a10.679,10.679,0,0,1,7.543-3.124" fill="#191919"/>
      <path id="Path_267372" data-name="Path 267372" d="M36.409,29.939a9.3,9.3,0,0,0,0-18.6h-.1v0a9.3,9.3,0,0,0,.1,18.6m0-18.4h.067a9.136,9.136,0,1,1-.067,0" fill="#191919"/>
      <path id="Path_267373" data-name="Path 267373" d="M19.513,24.454a.976.976,0,0,1-.254.772.916.916,0,0,0,0-1.523.976.976,0,0,1,.25.751" fill="#191919"/>
      <path id="Path_267374" data-name="Path 267374" d="M19.263,23.7a.924.924,0,0,0-.137-.15l-5.415-3.969L11,17.6a1,1,0,1,0-1.181,1.613l3.553,2.605,2.306,1.69H.956a.955.955,0,1,0,0,1.91H15.68l-2.234,1.637L9.824,29.71a1,1,0,1,0,1.183,1.613l2.823-2.069,5.3-3.883a.908.908,0,0,0,.133-.145,1.276,1.276,0,0,0,0-1.523" fill="#191919"/>
      <path id="Path_267375" data-name="Path 267375" d="M36.409,48.3A24.151,24.151,0,1,0,14.533,13.9a1,1,0,0,0,.48,1.33c.008,0,.017,0,.024.005a1,1,0,0,0,1.307-.486,22.149,22.149,0,1,1,37.038,23.61c-.046.055-.1.109-.142.164q-.491.573-1.018,1.113c-.051.053-.1.109-.153.161A22.1,22.1,0,0,1,20.753,39.8c-.053-.052-.1-.108-.154-.16q-.528-.537-1.021-1.11c-.047-.055-.092-.112-.139-.168a21.892,21.892,0,0,1-3.063-4.744,1,1,0,0,0-1.311-.481c-.007,0-.014,0-.021.005a1,1,0,0,0-.477,1.332A24.274,24.274,0,0,0,36.409,48.3" fill="#191919"/>
    </g>
  </g>
</svg>
