<svg xmlns="http://www.w3.org/2000/svg" xmlns:xlink="http://www.w3.org/1999/xlink" width="67.598" height="44.943" viewBox="0 0 67.598 44.943">
  <defs>
    <clipPath id="clip-path">
      <rect id="Rectangle_22470" data-name="Rectangle 22470" width="35.528" height="33.721" fill="none"/>
    </clipPath>
  </defs>
  <g id="start_icon" data-name="start icon" transform="translate(-843.701 -316)">
    <rect id="Rectangle_22473" data-name="Rectangle 22473" width="59" height="25" rx="12.5" transform="translate(843.701 316)" fill="#fff"/>
    <path id="Rectangle_22472" data-name="Rectangle 22472" d="M12.5,0h13a0,0,0,0,1,0,0V25a0,0,0,0,1,0,0h-13A12.5,12.5,0,0,1,0,12.5v0A12.5,12.5,0,0,1,12.5,0Z" transform="translate(843.701 316)" fill="#e8e8e8"/>
    <path id="Rectangle_22471" data-name="Rectangle 22471" d="M12.5,2a10.5,10.5,0,0,0,0,21h34a10.5,10.5,0,0,0,0-21h-34m0-2h34a12.5,12.5,0,0,1,0,25h-34a12.5,12.5,0,0,1,0-25Z" transform="translate(843.701 316)" fill="#191919"/>
    <g id="Group_87275" data-name="Group 87275" transform="translate(875.771 327.223)">
      <g id="Group_87274" data-name="Group 87274" transform="translate(0 0)" clip-path="url(#clip-path)">
        <path id="Path_267360" data-name="Path 267360" d="M23.461,32.557a9,9,0,0,1-2.559-.371,12.048,12.048,0,0,1-4.6-2.539,3.272,3.272,0,0,0-1.209-.617l-.158-.051c-1.43-.476-2.908-.965-4.37-1.358a11.437,11.437,0,0,0-3.115-.431c-.3,0-.606.011-.908.036s-.616.04-.926.04c-.126,0-.253,0-.379-.006a2.094,2.094,0,0,1-1.845-1.223A2,2,0,0,1,3.7,23.87a6.557,6.557,0,0,1,3.429-2.313,6.715,6.715,0,0,1,2.1-.332,7,7,0,0,1,1.164.1L2.292,7.285C1.845,6.516,1.4,5.747,1,4.954A3.077,3.077,0,0,1,.75,3.762,3.006,3.006,0,0,1,3.76.752h.005a2.924,2.924,0,0,1,2.712,1.7L9.922,8.409a2.688,2.688,0,0,1,.992-1.965,2.744,2.744,0,0,1,1.963-.8,2.8,2.8,0,0,1,1.169.255,3.258,3.258,0,0,1,1.377,1.135c.07.1.139.205.205.309a2.944,2.944,0,0,1,1.923-2.661,2.638,2.638,0,0,1,1.1-.23,2.814,2.814,0,0,1,2.232,1.111c.2.292.351.56.5.825a2.958,2.958,0,0,1,.078-.631A3.1,3.1,0,0,1,24.438,3.51l.166,0A3.254,3.254,0,0,1,27.3,5.629c.2.374.417.741.634,1.107,0,0,1.1,1.881,1.5,2.584l.324.583c.138.247.273.494.417.737l.721,1.213c.4.662.792,1.324,1.173,1.995a17.564,17.564,0,0,1,1.765,4.123,13.51,13.51,0,0,1,.529,4.115,16.793,16.793,0,0,1-.216,1.816l-.069.448a9.339,9.339,0,0,1-2.02,4.076,10.945,10.945,0,0,1-2.9,2.091c-.4.212-.81.46-1.222.709l-.469.282a7.2,7.2,0,0,1-2.605.942,8.976,8.976,0,0,1-1.4.108" transform="translate(0.206 0.207)" fill="#ffc627"/>
        <path id="Path_267361" data-name="Path 267361" d="M4.048,1.913a1.935,1.935,0,0,1,1.764,1.14Q6.911,4.97,8.02,6.885q2.418,4.174,4.833,8.347c.406.7.793,1.413,1.2,2.112a.707.707,0,0,0,.038.068.675.675,0,0,0,.931.209.654.654,0,0,0,.268-1q-1.069-1.871-2.155-3.747c-.64-1.118-1.284-2.229-1.887-3.364a1.756,1.756,0,0,1,.473-2.118,1.871,1.871,0,0,1,2.134-.416,2.336,2.336,0,0,1,.987.811c.5.733.914,1.529,1.354,2.307.366.64.713,1.289,1.078,1.929.478.848.979,1.686,1.453,2.539a.69.69,0,0,0,.63.412.637.637,0,0,0,.1-.008,1.1,1.1,0,0,0,.643-.427.734.734,0,0,0-.013-.629c-.4-.749-.835-1.472-1.257-2.2C18.2,10.623,17.55,9.552,16.958,8.45c-.015-.036-.031-.071-.043-.108A1.989,1.989,0,0,1,18.09,5.785a1.842,1.842,0,0,1,2.238.562c.284.432.52.9.784,1.352.366.626.746,1.247,1.107,1.872.342.587.668,1.18,1.006,1.768a4.094,4.094,0,0,0,.4.627.719.719,0,0,0,.993.112c.017-.01.032-.02.047-.032a.668.668,0,0,0,.145-.932c-.633-1.12-1.237-2.257-1.91-3.354a1.954,1.954,0,0,1-.3-1.576,2.142,2.142,0,0,1,2.046-1.511c.038,0,.077,0,.116,0,1.044.056,1.477.811,1.9,1.606.293.552.624,1.087.935,1.622.406.694.815,1.4,1.218,2.1.253.441.488.89.747,1.329.625,1.066,1.275,2.117,1.885,3.193a16.628,16.628,0,0,1,1.677,3.911,12.582,12.582,0,0,1,.494,3.83c-.041.837-.21,1.668-.275,2.16a8.311,8.311,0,0,1-1.8,3.581,9.93,9.93,0,0,1-2.6,1.857c-.6.318-1.171.678-1.755,1.025a6.246,6.246,0,0,1-2.264.82,7.94,7.94,0,0,1-1.251.1,8.051,8.051,0,0,1-2.287-.332,11.032,11.032,0,0,1-4.236-2.339,4.267,4.267,0,0,0-1.59-.823c-1.5-.5-3.006-1-4.535-1.412a12.412,12.412,0,0,0-3.363-.464c-.328,0-.657.014-.985.04q-.417.036-.837.036c-.12,0-.24,0-.36-.006a1.146,1.146,0,0,1-1.009-.667,1.047,1.047,0,0,1,.163-1.132A5.619,5.619,0,0,1,7.6,22.684a5.835,5.835,0,0,1,3.173-.14.8.8,0,0,0,.275.05.788.788,0,0,0,.643-.333c.23-.333.094-.6-.079-.88-.088-.142-.161-.293-.245-.439L3.614,7.507C3.084,6.589,2.536,5.676,2.058,4.73a2.076,2.076,0,0,1-.145-.761A2.053,2.053,0,0,1,3.965,1.914h.083M4.048,0h0L3.925,0A3.968,3.968,0,0,0,.282,5.439l.032.078.037.075c.414.819.87,1.6,1.31,2.361l.3.511L8.9,20.493a7.727,7.727,0,0,0-1.859.361,7.586,7.586,0,0,0-3.9,2.654,2.962,2.962,0,0,0-.408,3.137,3.04,3.04,0,0,0,2.69,1.774c.129.005.272.008.414.008.333,0,.67-.014,1-.042.267-.022.545-.033.821-.033a10.52,10.52,0,0,1,2.845.393c1.455.39,2.851.854,4.33,1.345l.12.04.05.017.051.014a2.333,2.333,0,0,1,.854.436,13.015,13.015,0,0,0,4.942,2.716,9.948,9.948,0,0,0,4.368.287,8.138,8.138,0,0,0,2.951-1.07l.471-.282c.4-.238.791-.478,1.2-.7a11.727,11.727,0,0,0,3.05-2.186l.055-.055.051-.059A10.267,10.267,0,0,0,35.2,24.847l.018-.083.011-.083c.017-.121.04-.263.065-.422a17.086,17.086,0,0,0,.226-1.9,14.53,14.53,0,0,0-.566-4.456,18.548,18.548,0,0,0-1.867-4.351c-.371-.654-.774-1.329-1.178-2-.236-.394-.472-.788-.7-1.185-.142-.238-.274-.479-.407-.719q-.163-.3-.33-.592c-.408-.709-.819-1.417-1.227-2.116l-.273-.463c-.213-.36-.428-.723-.626-1.093a4.17,4.17,0,0,0-3.48-2.616c-.075,0-.148-.006-.221-.006a4.031,4.031,0,0,0-3.382,1.815,3.777,3.777,0,0,0-2.4-.871,3.735,3.735,0,0,0-1.5.314,3.87,3.87,0,0,0-1.942,1.659,4.2,4.2,0,0,0-.793-.453A3.721,3.721,0,0,0,13.083,4.9a3.8,3.8,0,0,0-2.661,1.093,3.6,3.6,0,0,0-.444.46l-.3-.523Q8.587,4.048,7.509,2.168A3.854,3.854,0,0,0,4.048,0" transform="translate(0 0)"/>
      </g>
    </g>
    <g id="Group_87269" data-name="Group 87269" transform="translate(0.852 0.701)">
      <path id="Line_4822" data-name="Line 4822" d="M11.4,1H0A1,1,0,0,1-1,0,1,1,0,0,1,0-1H11.4a1,1,0,0,1,1,1A1,1,0,0,1,11.4,1Z" transform="translate(851.16 327.799)" fill="#191919"/>
      <path id="Line_4823" data-name="Line 4823" d="M11.4,1H0A1,1,0,0,1-1,0,1,1,0,0,1,0-1H11.4a1,1,0,0,1,1,1A1,1,0,0,1,11.4,1Z" transform="translate(856.862 322.098) rotate(90)" fill="#191919"/>
    </g>
  </g>
</svg>
