<svg xmlns="http://www.w3.org/2000/svg" width="60.309" height="53.03" viewBox="0 0 60.309 53.03">
  <g id="arrows-shuffle" transform="translate(-267.895 -139.643)">
    <path id="Path_68836" data-name="Path 68836" d="M288.338,166.156l-8.509-9.11H268.895v-9.111h13.984a1.366,1.366,0,0,1,1,.435l10.528,11.28,6.074,6.507,8.5,9.111h3.644v-4.553a2.735,2.735,0,0,1,4.666-1.933l9.111,9.109a2.733,2.733,0,0,1,0,3.866l-9.111,9.109a2.735,2.735,0,0,1-4.666-1.933v-4.554h-6.695a1.365,1.365,0,0,1-1-.434l-10.525-11.282Z" fill="#ffc627"/>
    <path id="Path_68837" data-name="Path 68837" d="M315.388,192.673a3.814,3.814,0,0,1-1.459-.295,3.672,3.672,0,0,1-2.3-3.445V185.38h-5.695a2.377,2.377,0,0,1-1.729-.751l-24.81-26.582h-10.5a1,1,0,0,1-1-1v-9.111a1,1,0,0,1,1-1h13.984a2.369,2.369,0,0,1,1.731.753l24.809,26.58h2.209v-3.554a3.736,3.736,0,0,1,6.373-2.64l9.111,9.109a3.737,3.737,0,0,1,0,5.28L318,191.573A3.675,3.675,0,0,1,315.388,192.673Zm-45.493-36.626h9.934a1,1,0,0,1,.73.317l8.51,9.11h0l16.6,17.79a.37.37,0,0,0,.268.116h6.695a1,1,0,0,1,1,1v4.553a1.682,1.682,0,0,0,1.067,1.6,1.716,1.716,0,0,0,1.892-.371l9.111-9.109a1.736,1.736,0,0,0,0-2.452l-9.111-9.109a1.713,1.713,0,0,0-1.892-.371,1.682,1.682,0,0,0-1.067,1.6v4.554a1,1,0,0,1-1,1h-3.644a1,1,0,0,1-.731-.318l-25.107-26.9a.363.363,0,0,0-.267-.117H269.895Z"/>
    <path id="Path_68838" data-name="Path 68838" d="M312.628,157.046V161.6a2.735,2.735,0,0,0,4.666,1.933l9.111-9.109a2.733,2.733,0,0,0,0-3.866l-9.111-9.109a2.735,2.735,0,0,0-4.666,1.933v4.553h-6.695a1.368,1.368,0,0,0-1,.435l-25.1,26.9H268.895v9.111h13.984a1.365,1.365,0,0,0,1-.434l25.106-26.9Z" fill="#fff"/>
    <path id="Path_68839" data-name="Path 68839" d="M282.879,185.38H268.895a1,1,0,0,1-1-1v-9.111a1,1,0,0,1,1-1h10.5L304.2,147.687a2.37,2.37,0,0,1,1.73-.751h5.695v-3.554a3.736,3.736,0,0,1,6.373-2.64l9.111,9.11a3.736,3.736,0,0,1,0,5.279L318,164.24a3.735,3.735,0,0,1-6.373-2.639v-3.554h-2.209l-24.81,26.581A2.372,2.372,0,0,1,282.879,185.38Zm-12.984-2h12.984a.364.364,0,0,0,.266-.115l25.108-26.9a1,1,0,0,1,.731-.317h3.644a1,1,0,0,1,1,1V161.6a1.68,1.68,0,0,0,1.067,1.6,1.715,1.715,0,0,0,1.892-.371l9.111-9.109a1.735,1.735,0,0,0,0-2.451l-9.111-9.11a1.712,1.712,0,0,0-1.892-.371,1.682,1.682,0,0,0-1.067,1.6v4.554a1,1,0,0,1-1,1h-6.695a.364.364,0,0,0-.267.116l-25.106,26.9a1,1,0,0,1-.731.318h-9.934Z"/>
    <path id="Path_68840" data-name="Path 68840" d="M312.628,147.935" fill="#d0d0d0" stroke="#000" stroke-linecap="round" stroke-linejoin="round" stroke-width="2"/>
    <path id="Path_68841" data-name="Path 68841" d="M274.829,175.268H268.9v9.111h5.933" fill="#d0d0d0"/>
    <path id="Path_68842" data-name="Path 68842" d="M274.829,185.38h-5.934a1,1,0,0,1-1-1v-9.111a1,1,0,0,1,1-1h5.934v2h-4.934v7.111h4.934Z"/>
  </g>
</svg>
