<svg xmlns="http://www.w3.org/2000/svg" width="45.472" height="48" viewBox="0 0 45.472 48">
  <g id="certificate" transform="translate(-673.478 -140.635)">
    <g id="Group_10283" data-name="Group 10283" transform="translate(684.425 140.637)">
      <path id="Path_25991" data-name="Path 25991" d="M692.951,185.424h27.367v-32.84H709.371V141.637H687.478v43.787Z" transform="translate(-686.636 -140.795)" fill="#fff"/>
      <path id="Path_25992" data-name="Path 25992" d="M719.318,186.109h-32a.842.842,0,0,1-.842-.842V142.321a1.685,1.685,0,0,1,1.684-1.684h21.05a.842.842,0,0,1,.842.842v10.1H720.16a.841.841,0,0,1,.842.842v32A1.684,1.684,0,0,1,719.318,186.109Zm-31.155-1.684h31.155V153.268H709.213a.842.842,0,0,1-.842-.842v-10.1H688.162Z" transform="translate(-686.478 -140.637)"/>
    </g>
    <rect id="Rectangle_14930" data-name="Rectangle 14930" width="32.841" height="5.473" transform="translate(685.267 179.793)" fill="#d0d0d0"/>
    <g id="Group_10284" data-name="Group 10284" transform="translate(700.381 160.214)">
      <path id="Path_25993" data-name="Path 25993" d="M718.142,165.57H706.268a.842.842,0,1,1,0-1.684h11.874a.842.842,0,0,1,0,1.684Z" transform="translate(-705.426 -163.886)"/>
      <path id="Path_25994" data-name="Path 25994" d="M718.142,171.57H706.268a.842.842,0,1,1,0-1.684h11.874a.842.842,0,0,1,0,1.684Z" transform="translate(-705.426 -164.833)"/>
      <path id="Path_25995" data-name="Path 25995" d="M718.142,177.57H706.268a.842.842,0,1,1,0-1.684h11.874a.842.842,0,0,1,0,1.684Z" transform="translate(-705.426 -165.781)"/>
    </g>
    <path id="Path_25996" data-name="Path 25996" d="M719.318,186.109h-32a.842.842,0,0,1-.842-.842V142.321a1.685,1.685,0,0,1,1.684-1.684h21.05a.842.842,0,0,1,.842.842v10.1H720.16a.841.841,0,0,1,.842.842v32A1.684,1.684,0,0,1,719.318,186.109Zm-31.155-1.684h31.155V153.268H709.213a.842.842,0,0,1-.842-.842v-10.1H688.162Z" transform="translate(-2.053 0)"/>
    <g id="Group_10285" data-name="Group 10285" transform="translate(678.951 174.232)">
      <path id="Path_25997" data-name="Path 25997" d="M691.924,181.532V194.25l-5.474-2.737-5.473,2.737V181.532Z" transform="translate(-680.135 -180.69)" fill="#fff"/>
      <path id="Path_25998" data-name="Path 25998" d="M691.766,194.935a.838.838,0,0,1-.376-.089l-5.1-2.548-5.1,2.548a.843.843,0,0,1-1.219-.753V181.374a.843.843,0,0,1,.842-.842h10.947a.842.842,0,0,1,.842.842v12.719a.843.843,0,0,1-.842.842Zm-5.474-4.421a.847.847,0,0,1,.377.088l4.254,2.128V182.216h-9.263V192.73l4.255-2.128A.846.846,0,0,1,686.293,190.514Z" transform="translate(-679.977 -180.532)"/>
    </g>
    <g id="Group_10286" data-name="Group 10286" transform="translate(673.478 154.32)">
      <path id="Path_25999" data-name="Path 25999" d="M674.9,168.834a10.847,10.847,0,0,1-.334,1.448,2.579,2.579,0,0,0,.648,2.462,3.986,3.986,0,0,1,1.613,2.845,2.528,2.528,0,0,0,1.771,1.8,3.894,3.894,0,0,1,2.8,1.643,2.477,2.477,0,0,0,2.419.659,3.845,3.845,0,0,1,3.229,0,2.474,2.474,0,0,0,2.419-.659,3.9,3.9,0,0,1,2.8-1.643,2.527,2.527,0,0,0,1.771-1.8,3.991,3.991,0,0,1,1.613-2.845,2.578,2.578,0,0,0,.648-2.462,10.857,10.857,0,0,1-.334-1.448,10.831,10.831,0,0,1,.334-1.449,2.578,2.578,0,0,0-.648-2.462,3.988,3.988,0,0,1-1.613-2.845,2.528,2.528,0,0,0-1.771-1.8,3.9,3.9,0,0,1-2.8-1.643,2.476,2.476,0,0,0-2.419-.659,3.845,3.845,0,0,1-3.229,0,2.478,2.478,0,0,0-2.419.659,3.894,3.894,0,0,1-2.8,1.643,2.529,2.529,0,0,0-1.771,1.8,3.982,3.982,0,0,1-1.613,2.845,2.579,2.579,0,0,0-.648,2.462A10.821,10.821,0,0,1,674.9,168.834Z" transform="translate(-673.636 -157.044)" fill="#ffc627"/>
      <path id="Path_26000" data-name="Path 26000" d="M687.527,180.464a3.318,3.318,0,0,1-.867-.115l-.317-.088a2.7,2.7,0,0,0-2.144,0l-.324.089a3.326,3.326,0,0,1-3.24-.881l-.217-.223a2.758,2.758,0,0,0-1.864-1.107l-.336-.091a3.376,3.376,0,0,1-2.362-2.4l-.088-.332a2.8,2.8,0,0,0-1.067-1.888l-.246-.25a3.433,3.433,0,0,1-.862-3.267l.056-.216c.128-.483.211-.8.244-1.018-.034-.223-.116-.537-.244-1.021l-.056-.213a3.431,3.431,0,0,1,.862-3.266l.247-.25a2.8,2.8,0,0,0,1.067-1.889l.088-.332a3.375,3.375,0,0,1,2.362-2.4l.336-.092a2.754,2.754,0,0,0,1.864-1.107l.216-.221a3.33,3.33,0,0,1,3.242-.882l.325.089a2.708,2.708,0,0,0,2.143,0l.317-.088a3.32,3.32,0,0,1,3.241.882l.232.237a2.753,2.753,0,0,0,1.867,1.1l.317.086a3.377,3.377,0,0,1,2.365,2.4l.087.33a2.825,2.825,0,0,0,1.08,1.9l.232.237a3.431,3.431,0,0,1,.863,3.266l-.064.242c-.124.47-.2.775-.237.994.033.218.114.524.237.995l.064.239a3.435,3.435,0,0,1-.863,3.267l-.232.237a2.825,2.825,0,0,0-1.08,1.9l-.087.33a3.377,3.377,0,0,1-2.365,2.4l-.315.085a2.756,2.756,0,0,0-1.868,1.1l-.234.238A3.328,3.328,0,0,1,687.527,180.464Zm-2.261-2.126a5.863,5.863,0,0,1,1.522.3l.314.086a1.637,1.637,0,0,0,1.6-.437l.231-.235a4.064,4.064,0,0,1,2.633-1.546l.312-.084a1.688,1.688,0,0,0,1.178-1.2l.085-.325a4.141,4.141,0,0,1,1.512-2.663l.23-.233a1.742,1.742,0,0,0,.435-1.658l-.063-.237a8.826,8.826,0,0,1-.3-1.344.746.746,0,0,1,0-.163,8.8,8.8,0,0,1,.3-1.343l.063-.238a1.742,1.742,0,0,0-.435-1.658l-.23-.233a4.141,4.141,0,0,1-1.512-2.663l-.085-.325a1.69,1.69,0,0,0-1.178-1.2l-.313-.085a4.061,4.061,0,0,1-2.632-1.545l-.229-.234a1.636,1.636,0,0,0-1.6-.438l-.313.086a4,4,0,0,1-3.037,0l-.321-.088a1.634,1.634,0,0,0-1.6.438l-.215.219a4.061,4.061,0,0,1-2.63,1.556l-.329.089a1.693,1.693,0,0,0-1.179,1.2l-.085.328a4.107,4.107,0,0,1-1.5,2.647l-.243.247a1.74,1.74,0,0,0-.434,1.657l.056.212a9.132,9.132,0,0,1,.3,1.37.891.891,0,0,1,0,.163,9.168,9.168,0,0,1-.3,1.367l-.056.215a1.741,1.741,0,0,0,.435,1.658l.242.246a4.109,4.109,0,0,1,1.5,2.648l.085.327a1.691,1.691,0,0,0,1.179,1.2l.329.089a4.059,4.059,0,0,1,2.63,1.557l.216.219a1.639,1.639,0,0,0,1.6.437l.321-.088A5.85,5.85,0,0,1,685.266,178.338Z" transform="translate(-673.478 -156.886)"/>
    </g>
    <g id="Group_10287" data-name="Group 10287" transform="translate(678.952 159.794)">
      <circle id="Ellipse_9238" data-name="Ellipse 9238" cx="5.473" cy="5.473" r="5.473" transform="translate(0.842 0.842)" fill="#fff"/>
      <path id="Path_26001" data-name="Path 26001" d="M686.294,176.018a6.316,6.316,0,1,1,6.316-6.316A6.323,6.323,0,0,1,686.294,176.018Zm0-10.947a4.631,4.631,0,1,0,4.631,4.631A4.637,4.637,0,0,0,686.294,165.071Z" transform="translate(-679.978 -163.387)"/>
    </g>
    <g id="Group_10288" data-name="Group 10288" transform="translate(706.318 140.635)">
      <path id="Path_26002" data-name="Path 26002" d="M723.825,150.617l-8.373-8.381a2.406,2.406,0,0,0-1.975-.6v10.947h10.946A2.373,2.373,0,0,0,723.825,150.617Z" transform="translate(-712.634 -140.793)" fill="#ffc627"/>
      <path id="Path_26003" data-name="Path 26003" d="M724.265,153.268H713.318a.842.842,0,0,1-.842-.842V141.479a.842.842,0,0,1,.842-.842h.136a3.073,3.073,0,0,1,2.436.846l8.372,8.381a3.035,3.035,0,0,1,.846,2.429v.134A.842.842,0,0,1,724.265,153.268Zm-10.105-1.684h9.219a1.053,1.053,0,0,0-.308-.53h0l-8.372-8.38a1.08,1.08,0,0,0-.539-.307Z" transform="translate(-712.476 -140.635)"/>
    </g>
  </g>
</svg>
