<svg width="48" height="62" viewBox="0 0 48 62" fill="none" xmlns="http://www.w3.org/2000/svg">
<g id="clipboard alert" clip-path="url(#clip0_12604_8503)">
<path id="Vector" d="M0 34.2305C0 25.7746 0.00217008 17.3188 0 8.86295C0 8.35015 0.0238709 7.86115 0.399295 7.44788C0.792079 7.01946 1.25648 6.83338 1.84023 6.83554C4.57019 6.84853 7.30232 6.83122 10.0323 6.85069C10.4337 6.85285 10.6247 6.72087 10.807 6.36385C11.7597 4.50954 13.3156 3.54452 15.3924 3.4147C15.9501 3.38008 16.5143 3.42984 17.072 3.39089C17.2435 3.38008 17.4822 3.23943 17.5538 3.0923C18.5737 0.991325 20.2534 -0.0212978 22.5819 0.000339435C23.5584 0.00899433 24.5349 0.000339435 25.5115 0.000339435C27.7966 0.00466688 29.4393 1.01729 30.4397 3.07716C30.5113 3.22645 30.7435 3.37358 30.9128 3.38657C31.4336 3.42768 31.9609 3.38657 32.4839 3.40604C34.6735 3.49692 36.3076 4.47492 37.2624 6.46987C37.423 6.80525 37.6292 6.84203 37.9395 6.83987C40.6347 6.83338 43.3278 6.83338 46.0231 6.83554C47.3511 6.83554 47.9978 7.46735 47.9978 8.77424C47.9978 25.7054 47.9978 42.6365 47.9978 59.5655C47.9978 60.9243 47.3642 61.5258 45.9319 61.528C33.0373 61.5302 20.1448 61.528 7.25024 61.528C5.49681 61.528 3.74122 61.5345 1.98779 61.5258C0.622813 61.5193 0.00217008 60.894 0.00217008 59.5374C0.00217008 51.0988 0.00217008 42.6603 0.00217008 34.2218L0 34.2305ZM44.5734 58.0942V57.2265C44.5734 47.1133 44.5734 37 44.5734 26.8846C44.5734 21.5489 44.5669 16.211 44.5843 10.8752C44.5843 10.3667 44.4302 10.2391 43.9398 10.2456C41.9324 10.2715 39.9251 10.2629 37.92 10.2521C37.5923 10.2521 37.4078 10.3386 37.2538 10.6545C36.2837 12.6365 34.6822 13.6707 32.4644 13.6772C26.8048 13.6902 21.1453 13.6967 15.4857 13.6772C13.3178 13.6686 11.7336 12.643 10.7723 10.7086C10.5987 10.3581 10.4034 10.2499 10.0301 10.2521C8.04232 10.2672 6.05235 10.2737 4.06456 10.2499C3.58497 10.2434 3.41354 10.3538 3.41354 10.8731C3.42873 26.4129 3.42656 41.9528 3.42656 57.4926C3.42656 57.6852 3.44609 57.88 3.45911 58.0985H44.5713L44.5734 58.0942ZM23.9425 10.2369C26.7788 10.2369 29.6173 10.2412 32.4535 10.2326C33.5125 10.2283 34.2656 9.53371 34.2829 8.5795C34.3003 7.62314 33.5147 6.87449 32.447 6.85718C31.4705 6.84203 30.4961 6.85285 29.5196 6.85285C28.1611 6.85069 27.6121 6.38116 27.4168 5.06129C27.2562 3.97943 26.6486 3.43417 25.5549 3.42119C24.5241 3.4082 23.4955 3.41037 22.4647 3.42119C21.3558 3.42984 20.7308 3.99025 20.5745 5.09375C20.3966 6.3552 19.8302 6.84853 18.5564 6.85285C17.5082 6.85718 16.4601 6.83338 15.4119 6.868C14.2574 6.90478 13.4784 7.98232 13.7952 9.04903C14.0231 9.81499 14.6611 10.2369 15.6441 10.2391C18.4088 10.2434 21.1735 10.2391 23.9382 10.2391L23.9425 10.2369Z" fill="#CACACA"/>
<path id="Vector_2" d="M41.1446 25.6104C40.8907 30.0871 40.4936 34.3562 39.3803 38.5192C39.1134 39.5167 38.7032 40.5055 38.1868 41.4013C37.1104 43.2642 34.8362 43.1733 33.7294 41.2909C32.7898 39.6919 32.397 37.9112 32.0563 36.1261C31.4053 32.7226 30.9929 29.2887 30.891 25.8224C30.8627 24.8899 30.8237 23.9378 30.9604 23.0204C31.3293 20.5192 33.7685 18.6194 36.2619 18.8033C38.9897 19.0045 41.0882 21.1228 41.1446 23.7453C41.1598 24.429 41.1467 25.1149 41.1467 25.6126L41.1446 25.6104ZM35.9906 38.2098C36.0167 38.1124 36.633 34.1809 37.0865 30.468C37.4337 27.6378 37.6486 24.9332 37.6681 24.1477C37.679 23.715 37.5205 23.2108 37.2753 22.8538C36.8674 22.261 36.1057 22.0943 35.485 22.3129C34.7494 22.5725 34.2502 23.2736 34.298 24.0504C34.3696 25.1863 34.5757 27.7849 34.8947 30.4485C35.3526 34.2631 35.9516 38.2163 35.9885 38.2098H35.9906Z" fill="#CACACA"/>
<path id="Vector_3" d="M17.1744 47.8574C19.9933 47.8574 22.8101 47.8509 25.629 47.8617C26.8616 47.8661 27.6732 48.8765 27.3651 50.0276C27.2002 50.6443 26.7792 51.0532 26.1563 51.2198C25.9328 51.2804 25.6919 51.2977 25.4598 51.2977C19.913 51.302 14.3685 51.302 8.82175 51.2977C8.28791 51.2977 7.78879 51.2068 7.38515 50.7936C6.86651 50.2591 6.69724 49.6468 6.97284 48.9631C7.25278 48.2707 7.78662 47.8661 8.557 47.8617C10.3625 47.8509 12.1702 47.8574 13.9757 47.8574C15.0412 47.8574 16.1067 47.8574 17.1722 47.8574H17.1744Z" fill="#CACACA"/>
<path id="Vector_4" d="M17.1418 23.9454C14.3424 23.9454 11.5409 23.9411 8.74146 23.9476C7.91249 23.9497 7.31354 23.6122 6.97935 22.8506C6.53883 21.8488 7.23542 20.6825 8.36386 20.5181C8.50709 20.4964 8.65248 20.4986 8.79571 20.4986C14.3598 20.4986 19.9239 20.4964 25.4901 20.5008C26.7987 20.5008 27.6277 21.429 27.3868 22.5974C27.224 23.3915 26.5209 23.9346 25.5986 23.9411C23.8995 23.9519 22.2025 23.9454 20.5033 23.9454C19.3835 23.9454 18.2638 23.9454 17.144 23.9454H17.1418Z" fill="#CACACA"/>
<path id="Vector_5" d="M17.1675 30.773C14.3138 30.773 11.4602 30.7773 8.60653 30.7708C7.79275 30.7686 7.16777 30.3034 6.92689 29.5656C6.70554 28.8884 6.91604 28.1311 7.55838 27.707C7.88389 27.4928 8.32659 27.35 8.71503 27.35C14.3334 27.3283 19.9495 27.3283 25.5679 27.3391C26.5878 27.3391 27.2822 27.9298 27.4059 28.8213C27.5231 29.6457 27.0566 30.4224 26.2558 30.6778C26.0041 30.7578 25.7241 30.7708 25.4572 30.7708C22.6925 30.7773 19.93 30.7751 17.1653 30.7751L17.1675 30.773Z" fill="#CACACA"/>
<path id="Vector_6" d="M17.1462 37.6008C14.3077 37.6008 11.4671 37.6073 8.62864 37.5964C7.60219 37.5921 6.85352 36.85 6.85352 35.8871C6.85352 35.0238 7.51322 34.2946 8.37908 34.2102C8.59392 34.1886 8.8131 34.1886 9.03011 34.1886C14.4379 34.1886 19.8436 34.1843 25.2514 34.1929C25.6247 34.1929 26.024 34.2037 26.369 34.3292C27.1611 34.617 27.5539 35.4154 27.389 36.2571C27.2414 37.0122 26.5795 37.59 25.7744 37.5921C22.8991 37.6051 20.0237 37.5964 17.1484 37.5964C17.1484 37.5964 17.1484 37.5986 17.1484 37.6008H17.1462Z" fill="#CACACA"/>
<path id="Vector_7" d="M17.1851 41.0291C20.0214 41.0291 22.8577 41.0183 25.6919 41.0335C26.8854 41.04 27.6558 42.0634 27.3672 43.1993C27.2087 43.8203 26.6315 44.3331 25.9892 44.4089C25.757 44.437 25.5204 44.4413 25.2861 44.4413C19.8305 44.4413 14.3771 44.4457 8.92149 44.437C8.56776 44.437 8.188 44.4067 7.86683 44.2747C7.10947 43.9653 6.71669 43.1453 6.88378 42.3663C7.0422 41.6198 7.75398 41.0356 8.56993 41.0335C11.4409 41.0226 14.3141 41.0291 17.1851 41.0291Z" fill="#CACACA"/>
<path id="Vector_8" d="M39.4236 49.5939C39.4171 51.4829 37.9154 52.9758 36.0166 52.9823C34.0983 52.991 32.5662 51.472 32.5684 49.5701C32.5727 47.6769 34.1178 46.1363 36.0123 46.1406C37.9046 46.145 39.4302 47.6899 39.4236 49.5939Z" fill="#CACACA"/>
</g>
<defs>
<clipPath id="clip0_12604_8503">
<rect width="48" height="61.5385" fill="white"/>
</clipPath>
</defs>
</svg>
