<svg xmlns="http://www.w3.org/2000/svg" width="31.513" height="48" viewBox="0 0 31.513 48">
  <g id="forks-up" transform="translate(-673.096 -182.95)">
    <g id="Group_11037" data-name="Group 11037" transform="translate(673.096 182.95)">
      <g id="Group_11035" data-name="Group 11035" transform="translate(0.729 0.726)">
        <path id="Path_68723" data-name="Path 68723" d="M688.733,245.959a23.45,23.45,0,0,1-5.919-.822l.66-4.484a24.4,24.4,0,0,0,5.508.652h.008C688.989,242.9,688.88,244.478,688.733,245.959Z" transform="translate(-676.476 -199.413)" fill="#ffc627"/>
        <path id="Path_68724" data-name="Path 68724" d="M679.925,205.482c-1.2,2.575-2.42,5.384-1.862,8.177.566,2.839,2.5,4.359,4.577,6.377,3.119,3.01,3.956,7.385,3.973,11.613H686.6A24.4,24.4,0,0,1,681.1,231l.892-6.058s-6.982-9.325-7.61-10.349a3.241,3.241,0,0,1,0-2.537s2.863-4.546,3.825-6a1.845,1.845,0,0,1,1.737-.807Z" transform="translate(-674.099 -189.757)" fill="#ffc627"/>
        <path id="Path_68725" data-name="Path 68725" d="M697.8,240.547V245.2a22.534,22.534,0,0,1-6.6.729h-.248c.147-1.482.256-3.056.256-4.655A22.5,22.5,0,0,0,697.8,240.547Z" transform="translate(-678.695 -199.384)" fill="#fff"/>
        <path id="Path_68726" data-name="Path 68726" d="M679.5,213.1c-.558-2.793.66-5.6,1.862-8.177l.015-.233c.016-.008.031,0,.047,0a3.635,3.635,0,0,1,1.195.279l3.832,1.691,3.3,1.466a9.89,9.89,0,0,1,1.14.5c.916.473,2.033,1.264,1.893,2.195a2.353,2.353,0,0,1-1.993,1.932,4.743,4.743,0,0,1-1.87.093,4.849,4.849,0,0,1-1.28-.341l-5.175-2.095-.489,2.063c7.9,3.662,8.239,9.969,8.239,11.055v-4.3a6.509,6.509,0,0,1,.217-1.652,7.347,7.347,0,0,1,1.714-3.119c.023-.023.039-.047.063-.07l2.878-3.1,1.777-1.908,5.267-5.663a1.615,1.615,0,0,1,2.273-.1l.644.574a1.622,1.622,0,0,1,.116,2.3l-7.261,8.076c.4,4.252-.38,6.92-1.094,8.293a13.563,13.563,0,0,1-2.172,2.785v4.709a22.5,22.5,0,0,1-6.594.729c-.016-4.228-.854-8.6-3.972-11.613C682,217.464,680.064,215.944,679.5,213.1Z" transform="translate(-675.533 -189.203)" fill="#fff"/>
        <path id="Path_68727" data-name="Path 68727" d="M700.315,208.692a1.173,1.173,0,0,1,.14,1.722l-1.777,1.908-2.878,3.1c-.023.023-.039.047-.063.07a3.62,3.62,0,0,1-2-.132,3.112,3.112,0,0,1-1.225-1.474v-.008a4.743,4.743,0,0,0,1.87-.093,2.353,2.353,0,0,0,1.993-1.932c.14-.931-.977-1.722-1.893-2.195l2.071-2.258a1.423,1.423,0,0,1,1.908-.156Z" transform="translate(-679.12 -190.22)" fill="#fff"/>
        <path id="Path_68728" data-name="Path 68728" d="M697.222,185.109a1.846,1.846,0,0,1,1.094,2.242l-4.764,16.206a9.9,9.9,0,0,0-1.14-.5l-3.3-1.466,4.678-15.67a1.847,1.847,0,0,1,2.452-1.195Z" transform="translate(-678.192 -184.124)" fill="#fff"/>
        <path id="Path_68729" data-name="Path 68729" d="M691.132,217.041a3.621,3.621,0,0,0,2,.132,7.345,7.345,0,0,0-1.714,3.119,6.509,6.509,0,0,0-.218,1.652v4.3c0-1.086-.341-7.393-8.239-11.055l.489-2.063,5.175,2.095a4.851,4.851,0,0,0,1.28.341v.008A3.112,3.112,0,0,0,691.132,217.041Z" transform="translate(-676.516 -191.905)" fill="#fff"/>
        <path id="Path_68730" data-name="Path 68730" d="M684.047,185.563l2.521,15.849-3.832-1.691a3.635,3.635,0,0,0-1.195-.279v-.008l-1.729-13.219a1.911,1.911,0,0,1,1.45-2.1l.45-.109A1.908,1.908,0,0,1,684.047,185.563Z" transform="translate(-675.653 -183.949)" fill="#fff"/>
      </g>
      <g id="Group_11036" data-name="Group 11036">
        <path id="Path_68731" data-name="Path 68731" d="M694.291,231.16" transform="translate(-678.876 -196.098)" fill="none" stroke="#000" stroke-linecap="round" stroke-linejoin="round" stroke-width="2"/>
        <path id="Path_68732" data-name="Path 68732" d="M704.606,199.764a2.329,2.329,0,0,0-.778-1.626l-.639-.569a2.355,2.355,0,0,0-3.294.145l-4.017,4.319a1.84,1.84,0,0,0-.409-.456l-1.854-1.45a2.167,2.167,0,0,0-2.849.19l3.881-13.2a2.586,2.586,0,0,0-1.524-3.126l-.982-.386a2.574,2.574,0,0,0-3.418,1.662l-3.764,12.61-2.019-12.693a2.634,2.634,0,0,0-3.224-2.154l-.448.108a2.633,2.633,0,0,0-2,2.9l1.631,12.466a2.458,2.458,0,0,0-1.571,1.071c-.956,1.441-3.717,5.825-3.834,6.01a.771.771,0,0,0-.057.109,3.868,3.868,0,0,0,.052,3.2c.588.959,6.34,8.656,7.466,10.162L679.444,229.3a.727.727,0,0,0,.508.8,24.008,24.008,0,0,0,6.131.854h.248a23.106,23.106,0,0,0,6.837-.767.728.728,0,0,0,.492-.689V220.43a13.531,13.531,0,0,0,2.091-2.748c.617-1.186,1.577-3.834,1.2-8.378L704,201.465A2.335,2.335,0,0,0,704.606,199.764Zm-12.819,1.588a.7.7,0,0,1,.931-.08l1.858,1.452a.437.437,0,0,1,.167.31.447.447,0,0,1-.116.341l-1.776,1.908,0,0-2.773,2.983a2.628,2.628,0,0,1-1.31-.107,1.04,1.04,0,0,1-.136-.1,5.294,5.294,0,0,0,.633-.118,3,3,0,0,0,2.535-2.528c.1-.639-.115-1.549-1.471-2.471Zm-1.671-15.674a1.12,1.12,0,0,1,.591-.7,1.094,1.094,0,0,1,.9-.031l.986.388a1.122,1.122,0,0,1,.661,1.359l-4.524,15.395c-.233-.1-.385-.152-.388-.152h0l-2.72-1.2Zm-10.51-1.13.451-.109a1.18,1.18,0,0,1,1.445.967l2.312,14.534-2.6-1.151a4.171,4.171,0,0,0-.846-.263l-1.658-12.674A1.181,1.181,0,0,1,679.605,184.547Zm23.314,15.943-7.26,8.076a.726.726,0,0,0-.183.556c.414,4.367-.458,6.818-1.014,7.886a12.9,12.9,0,0,1-2.036,2.6.729.729,0,0,0-.22.521v8.808a26.124,26.124,0,0,1-5.874.557h-.239a23.765,23.765,0,0,1-5.114-.633l1.457-9.9a.728.728,0,0,0-.137-.542c-1.937-2.586-7.072-9.477-7.573-10.294a2.412,2.412,0,0,1,.032-1.826c.337-.535,2.891-4.586,3.78-5.926a1.113,1.113,0,0,1,1.093-.481c.02,0,.039,0,.059,0a2.919,2.919,0,0,1,.926.217l7.188,3.178a9.452,9.452,0,0,1,1.05.465c.956.494,1.562,1.073,1.506,1.445-.061.43-.279,1.035-1.452,1.329a3.987,3.987,0,0,1-1.6.077,4.206,4.206,0,0,1-1.1-.294l-5.174-2.095a.733.733,0,0,0-.607.028.725.725,0,0,0-.374.479l-.489,2.063a.727.727,0,0,0,.4.828c7.44,3.45,7.818,9.264,7.818,10.4v.163a.727.727,0,1,0,1.455,0v-.163c0-1.257-.4-7.6-8.124-11.457l.159-.669,4.383,1.775a5.706,5.706,0,0,0,1.056.311,3.47,3.47,0,0,0,1.411,1.494,3.368,3.368,0,0,0,1.454.292,5.111,5.111,0,0,0,1.023-.1c.019,0,.034-.017.052-.023a.686.686,0,0,0,.132-.058.749.749,0,0,0,.12-.078c.014-.012.031-.016.044-.029.031-.03.057-.06.089-.1l2.876-3.093h0l1.778-1.911h0l5.267-5.661a.885.885,0,0,1,1.256-.052l.642.572a.894.894,0,0,1,.06,1.268Z" transform="translate(-673.096 -182.95)"/>
      </g>
    </g>
  </g>
</svg>
