<svg xmlns="http://www.w3.org/2000/svg" xmlns:xlink="http://www.w3.org/1999/xlink" width="40" height="40" viewBox="0 0 40 40">
  <defs>
    <clipPath id="clip-path">
      <rect id="Rectangle_22126" data-name="Rectangle 22126" width="40" height="40" fill="none"/>
    </clipPath>
  </defs>
  <g id="globe-asia" transform="translate(0 -0.001)">
    <g id="Group_86524" data-name="Group 86524" transform="translate(0 0.001)" clip-path="url(#clip-path)">
      <path id="Path_266097" data-name="Path 266097" d="M20,40A20,20,0,1,1,40,20,20.023,20.023,0,0,1,20,40" transform="translate(0 0)" fill="#fff"/>
      <path id="Path_266098" data-name="Path 266098" d="M32.165,5.454A19.283,19.283,0,0,1,5.454,32.165,19.284,19.284,0,1,0,32.165,5.454" transform="translate(-1.558 -1.559)" fill="#d0d0d0"/>
      <path id="Path_266099" data-name="Path 266099" d="M44.714,37.151v1.721l-.086.143a18.54,18.54,0,0,1-1.971,2.65l-.164.164-.207.036a1.211,1.211,0,0,1-.286.043H40.742a1.918,1.918,0,0,1-1.364-.564L38.3,40.265a1.616,1.616,0,0,0-1.15-.479,1.536,1.536,0,0,0-.4.051l-1.764.443a2.016,2.016,0,0,1-.465.057h-.856a1.96,1.96,0,0,1-1.364-.564l-.986-.993a1.243,1.243,0,0,1-.365-.886v-.843a1.252,1.252,0,0,1,.786-1.171l3.271-1.307a1.772,1.772,0,0,0,.336-.186l1.971-1.4a1.215,1.215,0,0,1,.729-.236h1c.514,0,.729.421,1.1.779a.647.647,0,0,0,.386.093.731.731,0,0,0,.371-.2c.236-.336.4-.671.814-.671h.5a.927.927,0,0,1,.929.929l.021,1.121.986.993a1.9,1.9,0,0,1,.564,1.357" transform="translate(-8.843 -9.358)" fill="#ffc627"/>
      <path id="Path_266100" data-name="Path 266100" d="M20,0A20,20,0,1,1,0,20,20.022,20.022,0,0,1,20,0M37.664,25.594A18.5,18.5,0,0,0,27.679,3.157L27.336,3,21.456,7.944l.8.407a2.047,2.047,0,0,1,1.136,1.843v6.485a1.4,1.4,0,0,1-1.4,1.4,2.181,2.181,0,0,1-.706-.107l-.45-.144-1.15,1.9a2.054,2.054,0,0,1-1.764,1.007h-.243l-.6.585.408.436a2.063,2.063,0,0,1,.593,1.451v.779a2.07,2.07,0,0,1-2.064,2.064H14.171a2.041,2.041,0,0,1-1.843-1.142L10.5,21.244,8.95,22.786a2.031,2.031,0,0,1-1.458.606H1.778l.172.729A18.652,18.652,0,0,0,20,38.529a18.339,18.339,0,0,0,11-3.657l.921-.679-1.086-.357a3.261,3.261,0,0,1-1.336-.807l-1.144-1.144-1.856.465a3.534,3.534,0,0,1-.822.1h-.856a3.4,3.4,0,0,1-2.4-.992l-.993-.993a2.708,2.708,0,0,1-.793-1.929v-.843a2.708,2.708,0,0,1,1.714-2.536l3.236-1.286,2.028-1.442a2.757,2.757,0,0,1,1.586-.507h1.006a2.784,2.784,0,0,1,1.129.243l.251.114.25-.121a2.377,2.377,0,0,1,1.036-.236h.507a2.4,2.4,0,0,1,2.392,2.4v.494l.579.578a1.081,1.081,0,0,1,.15.2c.042.057.079.114.121.171l.692.929Zm-1.793,3.921V27.794a1.9,1.9,0,0,0-.564-1.358l-.986-.992L34.3,24.321a.927.927,0,0,0-.929-.929h-.5c-.414,0-.579.336-.814.672a.725.725,0,0,1-.371.2.642.642,0,0,1-.386-.093c-.371-.357-.586-.779-1.1-.779h-1a1.215,1.215,0,0,0-.729.236l-1.971,1.4a1.729,1.729,0,0,1-.336.185l-3.271,1.307a1.254,1.254,0,0,0-.786,1.172v.843a1.244,1.244,0,0,0,.365.886l.986.993a1.96,1.96,0,0,0,1.364.564h.856a2.056,2.056,0,0,0,.465-.057l1.764-.444a1.566,1.566,0,0,1,.4-.05,1.612,1.612,0,0,1,1.149.479l1.079,1.079a1.918,1.918,0,0,0,1.364.564h1.258a1.169,1.169,0,0,0,.286-.044l.207-.036.164-.164a18.621,18.621,0,0,0,1.971-2.65ZM20.543,6.8l5.243-4.421-1.107-.286A18.46,18.46,0,0,0,1.471,20c0,.436.029.858.064,1.286l.043.636H7.735l1.794-1.786a1.436,1.436,0,0,1,.993-.414,1.152,1.152,0,0,1,.214.021,1.4,1.4,0,0,1,1.036.751l2.043,4.086h2.793V22.965l-.643-.644a1.4,1.4,0,0,1,0-1.978l.471-.471a2.031,2.031,0,0,1,1.457-.608h.336l1.636-2.686a1.191,1.191,0,0,1,1.014-.542,1.416,1.416,0,0,1,.271.05l.771.25V9.829l-1.229-.614a1.409,1.409,0,0,1-.771-1.172A1.392,1.392,0,0,1,20.543,6.8" transform="translate(0 0)"/>
      <path id="Path_266101" data-name="Path 266101" d="M26.374,2.968,21.131,7.39a1.393,1.393,0,0,0-.621,1.243A1.407,1.407,0,0,0,21.281,9.8l1.229.614v6.507l-.771-.25a1.473,1.473,0,0,0-.271-.05,1.192,1.192,0,0,0-1.014.543l-1.636,2.686h-.336a2.03,2.03,0,0,0-1.457.607l-.471.471a1.405,1.405,0,0,0,0,1.979l.643.643v1.614H14.4L12.36,21.082a1.4,1.4,0,0,0-1.036-.75,1.1,1.1,0,0,0-.214-.021,1.437,1.437,0,0,0-.993.414L8.324,22.511H2.167l-.043-.636c-.036-.429-.064-.85-.064-1.286A18.458,18.458,0,0,1,25.267,2.682Z" transform="translate(-0.589 -0.589)" fill="#ffc627"/>
    </g>
  </g>
</svg>
