<svg width="30" height="21" viewBox="0 0 30 21" fill="none" xmlns="http://www.w3.org/2000/svg">
<g id="graduation-cap --degree">
<path id="Path 14052" d="M19.8333 10.3377L20.4248 18.617C18.6532 19.0844 16.8306 19.3116 15.0027 19.2928C10.2878 19.2928 6.73877 17.9589 6.7002 16.745L7.31742 9.43066L13.8068 11.4982C14.5845 11.7476 15.4166 11.7476 16.1943 11.4982L19.8333 10.3377Z" fill="white"/>
<path id="Path 14053" d="M22.6834 9.43066L23.3006 16.745C23.3006 17.412 22.1905 18.119 20.4245 18.617L19.833 10.3377L22.6834 9.43066Z" fill="#FFC627"/>
<path id="Path 14054" d="M15.9364 1.25363L28.6323 5.29987C28.7733 5.33226 28.8994 5.41359 28.9898 5.53041C29.0802 5.64724 29.1295 5.79257 29.1295 5.94238C29.1295 6.09219 29.0802 6.23752 28.9898 6.35435C28.8994 6.47117 28.7733 6.5525 28.6323 6.58489L22.893 8.41237L15.9364 10.6356C15.3261 10.8304 14.6735 10.8304 14.0633 10.6356L4.91637 7.71872C5.0375 7.67321 5.16229 7.63899 5.28927 7.61646L13.506 6.08689C13.9924 6.23104 14.4962 6.30143 15.002 6.29587C16.2878 6.29587 17.3723 5.87791 17.3723 5.36657C17.3723 4.85523 16.3093 4.44171 15.002 4.44171C13.6946 4.44171 12.6874 4.833 12.6359 5.331L5.14354 6.72273C4.63097 6.81104 4.14272 7.01273 3.71193 7.3141L1.36734 6.58489C1.22634 6.5525 1.10021 6.47117 1.0098 6.35435C0.919394 6.23752 0.870117 6.09219 0.870117 5.94238C0.870117 5.79257 0.919394 5.64724 1.0098 5.53041C1.10021 5.41359 1.22634 5.33226 1.36734 5.29987L14.0633 1.25363C14.3664 1.15018 14.6829 1.09472 15.002 1.08911C15.3197 1.09434 15.6348 1.14982 15.9364 1.25363Z" fill="#D0D0D0"/>
<path id="Path 14055" d="M3.16398 13.3567C3.41804 13.2176 3.6199 12.9943 3.73736 12.7224C3.85483 12.4505 3.88113 12.1455 3.81208 11.8563C3.74303 11.567 3.5826 11.3101 3.35637 11.1264C3.13015 10.9428 2.85116 10.843 2.5639 10.843C2.27664 10.843 1.99766 10.9428 1.77143 11.1264C1.54521 11.3101 1.38478 11.567 1.31573 11.8563C1.24668 12.1455 1.27298 12.4505 1.39044 12.7224C1.50791 12.9943 1.70976 13.2176 1.96383 13.3567L1.21802 19.1371C1.20489 19.2416 1.21299 19.3478 1.24178 19.4489C1.27056 19.5499 1.31941 19.6437 1.38518 19.724C1.44454 19.7945 1.51763 19.8512 1.59964 19.8903C1.68165 19.9294 1.77071 19.95 1.86096 19.9508H3.26685C3.35701 19.9494 3.4459 19.9286 3.52783 19.8895C3.60976 19.8505 3.68292 19.7941 3.74263 19.724C3.80882 19.644 3.85763 19.5502 3.88574 19.4489C3.91385 19.3477 3.92059 19.2413 3.9055 19.1371L3.16398 13.3567Z" fill="#191919"/>
<path id="Path 14056" d="M28.8896 4.43277L16.1936 0.386531C15.4159 0.137432 14.5839 0.137432 13.8062 0.386531L1.11026 4.43277C0.791296 4.52339 0.509864 4.72021 0.309262 4.99295C0.108659 5.2657 0 5.59927 0 5.94233C0 6.2854 0.108659 6.61897 0.309262 6.89171C0.509864 7.16446 0.791296 7.36128 1.11026 7.45189L2.96193 8.04327C2.87293 8.15401 2.78994 8.26979 2.71333 8.39009C2.52602 8.69158 2.38165 9.01956 2.2847 9.36385C2.26838 9.42079 2.26302 9.4805 2.26894 9.53957C2.27486 9.59865 2.29195 9.65594 2.31921 9.70817C2.34647 9.7604 2.38339 9.80655 2.42784 9.84398C2.4723 9.88141 2.52343 9.90939 2.57831 9.92633C2.63319 9.94326 2.69075 9.94881 2.7477 9.94267C2.80465 9.93653 2.85988 9.91881 2.91022 9.89053C2.96057 9.86225 3.00506 9.82395 3.04114 9.77784C3.07723 9.73172 3.1042 9.67868 3.12052 9.62175C3.19218 9.3629 3.29591 9.11479 3.42913 8.88364C3.55447 8.68227 3.70591 8.49974 3.87919 8.34118L6.45095 9.15932L5.82516 16.6782V16.7227C5.82516 18.9815 10.54 20.1998 15.002 20.1998C19.4641 20.1998 24.1789 18.9815 24.1789 16.7227C24.1811 16.7079 24.1811 16.693 24.1789 16.6782L23.5403 9.15487L28.8896 7.45189C29.2085 7.36128 29.49 7.16446 29.6906 6.89171C29.8912 6.61897 29.9998 6.2854 29.9998 5.94233C29.9998 5.59927 29.8912 5.2657 29.6906 4.99295C29.49 4.72021 29.2085 4.52339 28.8896 4.43277ZM15.002 19.2927C10.2872 19.2927 6.73813 17.9588 6.69955 16.7449L7.31678 9.43055L13.8062 11.4981C14.5838 11.7475 15.416 11.7475 16.1936 11.4981L19.8327 10.3376L22.683 9.44834L23.3003 16.7627C23.3003 17.4297 22.1901 18.1366 20.4242 18.6346C18.6518 19.0961 16.8292 19.3173 15.002 19.2927ZM28.6324 6.58484L22.8931 8.41232L15.9365 10.6355C15.3262 10.8303 14.6736 10.8303 14.0634 10.6355L4.91647 7.71868C5.03759 7.67317 5.16239 7.63894 5.28937 7.61641L13.5061 6.08684C13.9924 6.231 14.4963 6.30139 15.002 6.29582C16.2879 6.29582 17.3724 5.87786 17.3724 5.36652C17.3724 4.85518 16.3094 4.44167 15.002 4.44167C13.6947 4.44167 12.6875 4.83295 12.636 5.33095L5.14364 6.72268C4.63107 6.811 4.14282 7.01269 3.71203 7.31405L1.36744 6.58484C1.22644 6.55245 1.10031 6.47113 1.0099 6.3543C0.919493 6.23748 0.870216 6.09215 0.870216 5.94233C0.870216 5.79252 0.919493 5.64719 1.0099 5.53037C1.10031 5.41354 1.22644 5.33221 1.36744 5.29983L14.0634 1.25358C14.3665 1.15013 14.683 1.09467 15.002 1.08907C15.3189 1.08855 15.634 1.13803 15.9365 1.2358L28.6324 5.28204C28.7734 5.31443 28.8995 5.39576 28.9899 5.51258C29.0803 5.62941 29.1296 5.77474 29.1296 5.92455C29.1296 6.07436 29.0803 6.21969 28.9899 6.33652C28.8995 6.45334 28.7734 6.53467 28.6324 6.56706V6.58484Z" fill="#191919"/>
</g>
</svg>
