<svg xmlns="http://www.w3.org/2000/svg" width="91.685" height="69.219" viewBox="0 0 91.685 69.219">
  <g id="grad-cap-and-laptop" transform="translate(-101.565 -316.782)">
    <g id="laptop-loading" transform="translate(-201.53 254.83)">
      <path id="Path_68843" data-name="Path 68843" d="M370.768,130.719l9.251-.306-1.159,2.162-5.936.5-2.068-1.034Z" transform="translate(-5.139 -7.413)" fill="#fff"/>
      <rect id="Rectangle_14977" data-name="Rectangle 14977" width="37" height="27" transform="translate(351.28 95.171)" fill="#fff"/>
      <path id="Path_68844" data-name="Path 68844" d="M389.239,137.957h-37.57a4.791,4.791,0,0,1-4.79-4.79V130.8h19.073l1.278,2.282,6.366.053,1.544-2.334h18.89v2.37A4.791,4.791,0,0,1,389.239,137.957Z" transform="translate(-0.322 -7.49)" fill="#cfcfcf"/>
      <rect id="Rectangle_14978" data-name="Rectangle 14978" width="28.391" height="18.964" transform="translate(355.997 99.574)" fill="#ffc627"/>
      <path id="Path_68845" data-name="Path 68845" d="M389.191,138.429H350.869a5.589,5.589,0,0,1-5.589-5.589v-1.6a1.6,1.6,0,0,1,1.6-1.6h19.117l-.014.812a1.61,1.61,0,0,0,.5,1.063,1.653,1.653,0,0,0,1.158.52h4.551a1.559,1.559,0,0,0,1.653-1.626l.03-.769h19.315a1.6,1.6,0,0,1,1.6,1.6v1.6A5.589,5.589,0,0,1,389.191,138.429Zm-42.314-7.185v1.6a4,4,0,0,0,3.992,3.992h38.322a4,4,0,0,0,3.992-3.992v-1.6H375.327a3.111,3.111,0,0,1-3.142,2.4h-4.551a3.219,3.219,0,0,1-2.3-1,3.423,3.423,0,0,1-.838-1.4Z" transform="translate(0 -7.258)"/>
      <path id="Path_68846" data-name="Path 68846" d="M391.2,123.986H351.28V95.244a1.6,1.6,0,0,1,1.6-1.6H389.6a1.6,1.6,0,0,1,1.6,1.6Zm-38.322-1.6H389.6V95.244H352.877Z" transform="translate(-1.21)"/>
      <path id="Path_68847" data-name="Path 68847" d="M386.022,120.4H358.877a1.6,1.6,0,0,1-1.6-1.6V101.244a1.6,1.6,0,0,1,1.6-1.6h27.145a1.6,1.6,0,0,1,1.6,1.6v17.564A1.6,1.6,0,0,1,386.022,120.4Zm-27.145-1.6h27.145V101.244H358.877Z" transform="translate(-2.419 -1.21)"/>
      <path id="Path_68848" data-name="Path 68848" d="M364.15,116.2a.8.8,0,0,1-.8-.8v-7.923a.8.8,0,0,1,1.6,0v7.923A.8.8,0,0,1,364.15,116.2Z" transform="translate(-3.644 -2.629)"/>
      <path id="Path_68849" data-name="Path 68849" d="M368.15,116.2a.8.8,0,0,1-.8-.8v-7.923a.8.8,0,1,1,1.6,0v7.923A.8.8,0,0,1,368.15,116.2Z" transform="translate(-4.45 -2.629)"/>
      <path id="Path_68850" data-name="Path 68850" d="M372.15,116.2a.8.8,0,0,1-.8-.8v-7.923a.8.8,0,0,1,1.6,0v7.923A.8.8,0,0,1,372.15,116.2Z" transform="translate(-5.257 -2.629)"/>
    </g>
    <g id="graduation-cap_--degree" data-name="graduation-cap --degree" transform="translate(101.565 335.146) rotate(-25)">
      <path id="Path_14052" data-name="Path 14052" d="M34.653,22.027l.857,11.56a30.633,30.633,0,0,1-7.854.944c-6.829,0-11.97-1.863-12.026-3.558l.894-10.213,9.4,2.887a5.855,5.855,0,0,0,3.458,0Z" transform="translate(-5.926 -7.871)" fill="#fff"/>
      <path id="Path_14053" data-name="Path 14053" d="M50.4,20.76l.894,10.213c0,.931-1.608,1.918-4.166,2.614l-.857-11.56Z" transform="translate(-17.543 -7.871)" fill="#ffc400"/>
      <path id="Path_14054" data-name="Path 14054" d="M23.853,2.23l18.39,5.65a.919.919,0,0,1,0,1.794L33.93,12.226l-10.077,3.1a4.613,4.613,0,0,1-2.713,0L7.891,11.257a3.141,3.141,0,0,1,.54-.143l11.9-2.136A7.593,7.593,0,0,0,22.5,9.27c1.863,0,3.433-.584,3.433-1.3S24.393,6.681,22.5,6.681s-3.353.546-3.427,1.242L8.22,9.866a5.246,5.246,0,0,0-2.074.826L2.75,9.674a.919.919,0,0,1,0-1.794L21.14,2.23A4.6,4.6,0,0,1,22.5,2a4.526,4.526,0,0,1,1.353.23Z" transform="translate(-0.77 -0.758)" fill="#d0d0d0"/>
      <path id="Path_14055" data-name="Path 14055" d="M5.653,27.447a1.863,1.863,0,1,0-1.738,0l-1.08,8.071a1.055,1.055,0,0,0,.242.82.925.925,0,0,0,.689.317H5.8a.937.937,0,0,0,.689-.317,1.024,1.024,0,0,0,.236-.82Z" transform="translate(-1.071 -9.075)"/>
      <path id="Path_14056" data-name="Path 14056" d="M41.846,5.911,23.456.261A5.861,5.861,0,0,0,20,.261L1.608,5.911a2.185,2.185,0,0,0,0,4.216l2.682.826a5.433,5.433,0,0,0-.36.484,5.2,5.2,0,0,0-.621,1.36.632.632,0,1,0,1.211.36,4.346,4.346,0,0,1,.447-1.031,3.651,3.651,0,0,1,.652-.757L9.344,12.51l-.906,10.5v.062c0,3.154,6.829,4.855,13.293,4.855s13.293-1.7,13.293-4.855a.211.211,0,0,0,0-.062L34.1,12.5l7.748-2.378a2.185,2.185,0,0,0,0-4.216ZM21.73,26.66C14.9,26.66,9.76,24.8,9.7,23.1L10.6,12.889,20,15.776a5.855,5.855,0,0,0,3.458,0l5.271-1.62,4.129-1.242.894,10.213c0,.931-1.608,1.918-4.166,2.614A30.633,30.633,0,0,1,21.73,26.66ZM41.473,8.915,33.16,11.467l-10.077,3.1a4.613,4.613,0,0,1-2.713,0L7.121,10.5a3.141,3.141,0,0,1,.54-.143l11.9-2.136a7.593,7.593,0,0,0,2.167.292c1.863,0,3.433-.584,3.433-1.3s-1.54-1.291-3.433-1.291-3.353.546-3.427,1.242L7.45,9.108a5.246,5.246,0,0,0-2.074.826L1.98,8.915a.919.919,0,0,1,0-1.794l18.39-5.65a4.6,4.6,0,0,1,1.36-.23,4.526,4.526,0,0,1,1.353.2L41.473,7.1a.919.919,0,0,1,0,1.794Z" transform="translate(0 0)"/>
    </g>
  </g>
</svg>
