<svg width="30" height="23" viewBox="0 0 30 23" fill="none" xmlns="http://www.w3.org/2000/svg">
<g id="Group 11030">
<g id="Group 11029">
<g id="Group 11027">
<path id="Path 68706" d="M28.9943 1.19824V18.0539H24.5291V14.7756H17.1616V18.0539H13.8955C13.8203 17.9024 13.733 17.7566 13.6342 17.618C13.3051 17.1727 12.866 16.8116 12.3558 16.5664C11.8456 16.3213 11.2799 16.1997 10.7087 16.2124C10.2637 16.2166 9.82178 16.2841 9.3976 16.4125C9.06179 16.506 8.71845 16.573 8.37109 16.6127V14.7C9.20143 14.5371 9.94739 14.1061 10.483 13.4796C11.0187 12.8532 11.3111 12.0698 11.3111 11.2616C11.3111 10.4535 11.0187 9.67003 10.483 9.04361C9.94739 8.4172 9.20143 7.98615 8.37109 7.82324V1.20002L28.9943 1.19824ZM24.5291 6.93185V4.72559H12.8364V6.93185H24.5291Z" fill="white"/>
<path id="Rectangle 14956" d="M24.5296 14.7744H17.1621V18.0527H24.5296V14.7744Z" fill="#FFC627"/>
<path id="Rectangle 14957" d="M24.5306 4.72559H12.8379V6.93184H24.5306V4.72559Z" fill="#FFC627"/>
<path id="Path 68707" d="M14.2624 19.5736V21.2105C14.2618 21.4899 14.1451 21.7577 13.9379 21.9553C13.7306 22.1529 13.4497 22.2641 13.1566 22.2647H2.1078C1.81471 22.2641 1.53377 22.1529 1.32652 21.9553C1.11928 21.7577 1.0026 21.4899 1.00199 21.2105V19.5736C0.998896 18.8761 1.2168 18.1939 1.6272 17.6165C1.95797 17.1718 2.39802 16.8111 2.90884 16.5661C3.41966 16.321 3.98569 16.1991 4.55739 16.2109C5.00247 16.2148 5.44441 16.2822 5.86851 16.411C6.44091 16.5725 7.03529 16.6519 7.6322 16.6468C7.87999 16.6477 8.12766 16.6359 8.37409 16.6112C8.72145 16.5715 9.06478 16.5045 9.40059 16.411C9.82477 16.2826 10.2667 16.2151 10.7117 16.2109C11.2829 16.1982 11.8486 16.3198 12.3588 16.5649C12.869 16.8101 13.3081 17.1712 13.6372 17.6165C13.736 17.7551 13.8233 17.9008 13.8985 18.0524C14.1406 18.5261 14.2651 19.0466 14.2624 19.5736Z" fill="#D0D0D0"/>
<path id="Path 68708" d="M8.3725 7.82312C9.20284 7.98603 9.9488 8.41708 10.4844 9.04349C11.0201 9.66991 11.3126 10.4533 11.3126 11.2615C11.3126 12.0697 11.0201 12.8531 10.4844 13.4795C9.9488 14.1059 9.20284 14.537 8.3725 14.6999C8.12853 14.7484 7.87984 14.7723 7.63061 14.7711C6.65425 14.7711 5.71789 14.4013 5.02749 13.7431C4.3371 13.085 3.94922 12.1923 3.94922 11.2615C3.94922 10.3307 4.3371 9.43805 5.02749 8.77988C5.71789 8.12171 6.65425 7.75195 7.63061 7.75195C7.87974 7.75271 8.12821 7.77655 8.3725 7.82312Z" fill="white"/>
</g>
<g id="Group 11028">
<path id="Path 68709" d="M24.995 4.72508C24.995 4.60711 24.9459 4.49397 24.8584 4.41055C24.7709 4.32714 24.6522 4.28027 24.5285 4.28027H12.8357C12.712 4.28027 12.5933 4.32714 12.5058 4.41055C12.4183 4.49397 12.3691 4.60711 12.3691 4.72508V6.93134C12.3691 7.04932 12.4183 7.16245 12.5058 7.24587C12.5933 7.32929 12.712 7.37615 12.8357 7.37615H24.5285C24.6522 7.37615 24.7709 7.32929 24.8584 7.24587C24.9459 7.16245 24.995 7.04932 24.995 6.93134V4.72508ZM24.0619 6.48653H13.3023V5.16989H24.0619V6.48653Z" fill="#191919"/>
<path id="Path 68710" d="M12.8357 9.24802H15.4673C15.591 9.24802 15.7097 9.20115 15.7972 9.11774C15.8847 9.03432 15.9339 8.92118 15.9339 8.80321C15.9339 8.68524 15.8847 8.5721 15.7972 8.48868C15.7097 8.40526 15.591 8.3584 15.4673 8.3584H12.8357C12.712 8.3584 12.5933 8.40526 12.5058 8.48868C12.4183 8.5721 12.3691 8.68524 12.3691 8.80321C12.3691 8.92118 12.4183 9.03432 12.5058 9.11774C12.5933 9.20115 12.712 9.24802 12.8357 9.24802Z" fill="#191919"/>
<path id="Path 68711" d="M24.5286 8.3584H21.8924C21.7686 8.3584 21.65 8.40526 21.5624 8.48868C21.4749 8.5721 21.4258 8.68524 21.4258 8.80321C21.4258 8.92118 21.4749 9.03432 21.5624 9.11774C21.65 9.20115 21.7686 9.24802 21.8924 9.24802H24.5286C24.6524 9.24802 24.771 9.20115 24.8585 9.11774C24.946 9.03432 24.9952 8.92118 24.9952 8.80321C24.9952 8.68524 24.946 8.5721 24.8585 8.48868C24.771 8.40526 24.6524 8.3584 24.5286 8.3584Z" fill="#191919"/>
<path id="Path 68712" d="M17.3631 8.3584C17.2393 8.3584 17.1207 8.40526 17.0332 8.48868C16.9456 8.5721 16.8965 8.68524 16.8965 8.80321C16.8965 8.92118 16.9456 9.03432 17.0332 9.11774C17.1207 9.20115 17.2393 9.24802 17.3631 9.24802H19.9942C20.1179 9.24802 20.2366 9.20115 20.3241 9.11774C20.4116 9.03432 20.4607 8.92118 20.4607 8.80321C20.4607 8.68524 20.4116 8.5721 20.3241 8.48868C20.2366 8.40526 20.1179 8.3584 19.9942 8.3584H17.3631Z" fill="#191919"/>
<path id="Path 68713" d="M28.9943 0.750008H8.3711C8.24735 0.750008 8.12868 0.796871 8.04118 0.88029C7.95367 0.963708 7.90451 1.07685 7.90451 1.19482V7.31496C7.34946 7.2794 6.79257 7.35069 6.26703 7.52457C5.74149 7.69846 5.25804 7.9714 4.84545 8.32712C4.43286 8.68285 4.09958 9.11409 3.86545 9.59516C3.63133 10.0762 3.50115 10.5973 3.48268 11.1273C3.4642 11.6574 3.55779 12.1855 3.75789 12.6804C3.95799 13.1752 4.26051 13.6266 4.64741 14.0077C5.03432 14.3887 5.49769 14.6917 6.00996 14.8984C6.52223 15.1052 7.07291 15.2116 7.62921 15.2112C7.90962 15.2123 8.18938 15.1855 8.46394 15.1312C9.36718 14.9541 10.1828 14.4952 10.782 13.8269C11.3811 13.1587 11.7296 12.3191 11.7724 11.441C11.8152 10.5628 11.5499 9.69612 11.0184 8.97776C10.4868 8.2594 9.71933 7.73035 8.8372 7.4742V1.63963H28.5273V17.6083H24.9952V14.7749C24.9952 14.6569 24.9461 14.5438 24.8586 14.4603C24.771 14.3769 24.6523 14.3301 24.5286 14.3301H17.1612C17.0374 14.3301 16.9187 14.3769 16.8312 14.4603C16.7437 14.5438 16.6946 14.6569 16.6946 14.7749V17.6083H14.1643C14.1176 17.5282 14.0761 17.4464 14.021 17.369C13.649 16.8635 13.1522 16.453 12.5745 16.1737C11.9968 15.8945 11.3558 15.755 10.7082 15.7677C10.207 15.7729 9.70947 15.8494 9.23194 15.9945C8.93367 16.0776 8.62875 16.1371 8.32024 16.1725C8.09036 16.1951 7.85937 16.2061 7.62827 16.2054C7.09168 16.2106 6.55721 16.1407 6.04188 15.9981L5.99521 15.9865C5.52993 15.8461 5.04523 15.7727 4.55719 15.769C3.90937 15.7574 3.26843 15.8973 2.69044 16.1765C2.11244 16.4556 1.615 16.8655 1.2416 17.3703C0.777829 18.0215 0.53158 18.7913 0.535195 19.5784V21.2153C0.535689 21.6127 0.701512 21.9937 0.996288 22.2747C1.29106 22.5557 1.69072 22.7138 2.1076 22.7143H13.1564C13.5733 22.7138 13.973 22.5557 14.2677 22.2747C14.5625 21.9937 14.7283 21.6127 14.7288 21.2153V19.5784C14.7277 19.2142 14.6736 18.8519 14.5679 18.5019H28.9971C29.1209 18.5019 29.2396 18.4551 29.3271 18.3717C29.4146 18.2882 29.4637 18.1751 29.4637 18.0571V1.19482C29.4637 1.13618 29.4516 1.07812 29.4279 1.02398C29.4043 0.969834 29.3697 0.920682 29.3261 0.879343C29.2824 0.838003 29.2307 0.805292 29.1738 0.783096C29.1168 0.7609 29.0559 0.749656 28.9943 0.750008ZM10.844 11.2564C10.8434 11.9627 10.5873 12.6472 10.1188 13.1944C9.65041 13.7416 8.99836 14.118 8.27265 14.2602C8.06085 14.302 7.84504 14.3226 7.62875 14.3216C6.77613 14.3216 5.95845 13.9987 5.35555 13.424C4.75266 12.8492 4.41395 12.0697 4.41395 11.2569C4.41395 10.444 4.75266 9.66452 5.35555 9.08976C5.95845 8.51501 6.77613 8.19212 7.62875 8.19212C7.847 8.19288 8.06467 8.21373 8.27871 8.2544C9.00275 8.39905 9.65268 8.7764 10.1198 9.32329C10.5868 9.87018 10.8427 10.5534 10.8445 11.2586L10.844 11.2564ZM13.7952 21.2113C13.7951 21.3729 13.7277 21.5278 13.6078 21.642C13.488 21.7563 13.3255 21.8205 13.156 21.8207H2.10714C1.93765 21.8205 1.77513 21.7563 1.65528 21.642C1.53543 21.5278 1.46804 21.3729 1.46792 21.2113V19.5744C1.46467 18.9656 1.65463 18.3702 2.01288 17.8663C2.30088 17.4818 2.68334 17.1704 3.12681 16.9594C3.57028 16.7484 4.06126 16.6442 4.55674 16.656C4.96214 16.6602 5.36454 16.7228 5.75026 16.8419L5.80765 16.8561C6.40038 17.0188 7.01478 17.0983 7.63154 17.0923C7.89647 17.0931 8.16126 17.0803 8.42475 17.0541C8.78028 17.0143 9.13184 16.947 9.47597 16.853L9.52823 16.8392C9.91124 16.7225 10.3104 16.6607 10.7124 16.656C11.2073 16.6438 11.6977 16.7478 12.1404 16.9588C12.5831 17.1699 12.9646 17.4815 13.2511 17.8663C13.3363 17.9857 13.4117 18.1112 13.4765 18.2417L13.4798 18.2493C13.691 18.6618 13.7993 19.1153 13.7961 19.5744L13.7952 21.2113ZM17.6305 15.2197H24.0648V17.6083H17.6305V15.2197Z" fill="#191919"/>
</g>
</g>
</g>
</svg>
