<svg width="38" height="31" viewBox="0 0 38 31" fill="none" xmlns="http://www.w3.org/2000/svg">
<g id="guide icon">
<g id="Path_14271">
<path id="Vector" d="M4.45363 29.7786H3.06124C1.70997 29.7786 0.611328 28.6795 0.611328 27.3276V4.49255H37.3893V27.3276C37.3893 28.6795 36.2907 29.7786 34.9394 29.7786H20.5631" fill="white"/>
</g>
<g id="Path_14272">
<path id="Vector_2" d="M23.0835 1.00122H34.9394C36.2907 1.00122 37.3893 2.10036 37.3893 3.45224V5.75631H0.611328V3.45224C0.611328 2.10036 1.70997 1.00122 3.06711 1.00122H23.0835Z" fill="#D0D0D0"/>
<path id="Vector_3" d="M37.3889 6.34997H0.610945C0.287816 6.34997 0.0234375 6.08547 0.0234375 5.7622V3.45812C0.0234375 1.77709 1.38646 0.413452 3.06673 0.413452H34.939C36.6134 0.413452 37.9764 1.77709 37.9764 3.45225V5.75632C37.9764 6.0796 37.7121 6.34409 37.3889 6.34409V6.34997ZM1.19845 5.17442H36.8014V3.45812C36.8014 2.42952 35.9672 1.59488 34.939 1.59488H3.06673C2.03859 1.59488 1.20433 2.42952 1.20433 3.45812V5.17442H1.19845Z" fill="black"/>
</g>
<path id="Vector_4" d="M34.9391 0.389893H3.06679C1.37477 0.389893 0 1.76528 0 3.45807V27.3276C0 29.0204 1.37477 30.3958 3.06679 30.3958H34.9391C36.6311 30.3958 38.0059 29.0204 38.0059 27.3276V3.45807C38.0059 1.76528 36.6311 0.389893 34.9391 0.389893ZM36.778 27.3217C36.778 28.3386 35.9555 29.1614 34.9391 29.1614H3.06679C2.0504 29.1614 1.22789 28.3386 1.22789 27.3217V3.45807C1.22789 2.44122 2.0504 1.61834 3.06679 1.61834H34.9391C35.9555 1.61834 36.778 2.44122 36.778 3.45807V27.3276V27.3217Z" fill="black"/>
<g id="Path_14278">
<path id="Vector_5" d="M32.63 14.4554H23.6999C23.3591 14.4554 23.0889 14.1791 23.0889 13.8441C23.0889 13.509 23.365 13.2328 23.6999 13.2328H32.63C32.9707 13.2328 33.241 13.509 33.241 13.8441C33.241 14.1791 32.9649 14.4554 32.63 14.4554Z" fill="black"/>
</g>
<g id="Path_14279">
<path id="Vector_6" d="M32.63 18.3875H23.6999C23.3591 18.3875 23.0889 18.1112 23.0889 17.7762C23.0889 17.4412 23.365 17.1649 23.6999 17.1649H32.63C32.9707 17.1649 33.241 17.4412 33.241 17.7762C33.241 18.1112 32.9649 18.3875 32.63 18.3875Z" fill="black"/>
</g>
<g id="Path_14280">
<path id="Vector_7" d="M32.63 22.3256H23.6999C23.3591 22.3256 23.0889 22.0493 23.0889 21.7143C23.0889 21.3793 23.365 21.103 23.6999 21.103H32.63C32.9707 21.103 33.241 21.3793 33.241 21.7143C33.241 22.0493 32.9649 22.3256 32.63 22.3256Z" fill="black"/>
</g>
<g id="Path_14283">
<path id="Vector_8" d="M18.4953 24.1771H6.09891C5.84041 24.1771 5.62891 23.9772 5.62891 23.7304V11.8279C5.62891 11.5811 5.84041 11.3812 6.09891 11.3812H18.4895C18.748 11.3812 18.9595 11.5811 18.9595 11.8279V23.7304C18.9595 23.9772 18.748 24.1771 18.4895 24.1771H18.4953Z" fill="#FFC627"/>
<path id="Vector_9" d="M18.495 24.8001H6.09862C5.49349 24.8001 5.00586 24.3181 5.00586 23.7304V11.8279C5.00586 11.2402 5.49349 10.7582 6.09862 10.7582H18.4892C19.0943 10.7582 19.5819 11.2402 19.5819 11.8279V23.7304C19.5819 24.3181 19.0884 24.8001 18.4892 24.8001H18.495ZM6.25138 23.5481H18.3423V11.9984H6.25138V23.5481Z" fill="black"/>
</g>
<g id="Path_14072">
<path id="Vector_10" d="M13.3127 18.8519L10.3223 20.5329V14.9961L11.8087 15.8542L15.1163 17.8174L13.3127 18.8519Z" fill="black"/>
</g>
</g>
</svg>
