<svg width="30" height="25" viewBox="0 0 30 25" fill="none" xmlns="http://www.w3.org/2000/svg">
<g id="laptop-chat">
<g id="laptop-chat_2">
<path id="Path 256570" d="M28.7142 3.20006V9.10148C28.7142 9.21515 28.6691 9.32416 28.5887 9.40453C28.5083 9.4849 28.3993 9.53006 28.2856 9.53006H24.8571V5.34291C24.8571 5.11558 24.7668 4.89757 24.606 4.73682C24.4453 4.57608 24.2273 4.48577 23.9999 4.48577H18.4971V3.20006C18.4971 3.08639 18.5422 2.97738 18.6226 2.89701C18.703 2.81664 18.812 2.77148 18.9256 2.77148H28.2856C28.3993 2.77148 28.5083 2.81664 28.5887 2.89701C28.6691 2.97738 28.7142 3.08639 28.7142 3.20006Z" fill="#D0D0D0"/>
<path id="Path 256571" d="M27.4282 20.3429V21.2C27.4282 21.882 27.1572 22.5361 26.675 23.0183C26.1928 23.5005 25.5387 23.7714 24.8567 23.7714H4.2853C3.60331 23.7714 2.94926 23.5005 2.46702 23.0183C1.98478 22.5361 1.71387 21.882 1.71387 21.2V20.3429C1.71387 20.2292 1.75902 20.1202 1.83939 20.0398C1.91977 19.9595 2.02877 19.9143 2.14244 19.9143H11.9653C11.9822 20.2391 12.1216 20.5453 12.3553 20.7714C12.4741 20.901 12.6175 21.0057 12.7772 21.0793C12.9369 21.1528 13.1096 21.1939 13.2853 21.2H15.7282C15.8995 21.204 16.0699 21.1737 16.2294 21.1109C16.3889 21.0481 16.5342 20.954 16.6567 20.8342C16.7793 20.7144 16.8767 20.5713 16.9432 20.4134C17.0097 20.2554 17.0439 20.0857 17.0439 19.9143H26.9996C27.1132 19.9143 27.2223 19.9595 27.3026 20.0398C27.383 20.1202 27.4282 20.2292 27.4282 20.3429Z" fill="#D0D0D0"/>
<path id="Path 256572" d="M24.8576 9.53006V19.4858C24.8576 19.5994 24.8124 19.7085 24.732 19.7888C24.6517 19.8692 24.5427 19.9143 24.429 19.9143H4.7147C4.60104 19.9143 4.49203 19.8692 4.41166 19.7888C4.33129 19.7085 4.28613 19.5994 4.28613 19.4858V7.38721H6.85756C6.8531 7.41991 6.8531 7.45307 6.85756 7.48578V16.9143C6.85756 17.028 6.90271 17.137 6.98309 17.2174C7.06346 17.2978 7.17247 17.3429 7.28613 17.3429H21.8576C21.9712 17.3429 22.0802 17.2978 22.1606 17.2174C22.241 17.137 22.2861 17.028 22.2861 16.9143V9.53006H24.8576Z" fill="white"/>
<path id="Path 256573" d="M24.8571 5.34274V9.52988H22.2856V7.4856C22.2856 7.37193 22.2405 7.26292 22.1601 7.18255C22.0797 7.10218 21.9707 7.05702 21.8571 7.05702H18.4971V4.4856H23.9999C24.2273 4.4856 24.4453 4.5759 24.606 4.73665C24.7668 4.89739 24.8571 5.11541 24.8571 5.34274Z" fill="#D0D0D0"/>
<path id="Path 256574" d="M22.2854 9.52999V16.9143C22.2854 17.0279 22.2403 17.1369 22.1599 17.2173C22.0795 17.2977 21.9705 17.3428 21.8569 17.3428H7.28544C7.17177 17.3428 7.06276 17.2977 6.98239 17.2173C6.90202 17.1369 6.85687 17.0279 6.85687 16.9143V7.4857C6.8524 7.45299 6.8524 7.41983 6.85687 7.38713H7.99258L10.6326 9.88141V7.05713H18.4969V12.0243L21.1326 9.52999H22.2854ZM10.714 15.6286V13.0571H8.57115V15.6286H10.714Z" fill="#FFC627"/>
<path id="Path 256575" d="M22.2856 7.4857V9.52999H21.1328L18.4971 12.0243V7.05713H21.8571C21.9707 7.05713 22.0797 7.10228 22.1601 7.18265C22.2405 7.26303 22.2856 7.37204 22.2856 7.4857Z" fill="#D0D0D0"/>
<path id="Rectangle 20194" d="M18.4969 4.4856H10.6455V7.05702H18.4969V4.4856Z" fill="white"/>
<path id="Path 256576" d="M11.9658 19.9143H17.0444C17.0444 20.0857 17.0102 20.2554 16.9437 20.4134C16.8773 20.5713 16.7799 20.7144 16.6573 20.8342C16.5347 20.954 16.3894 21.0481 16.2299 21.1109C16.0704 21.1737 15.9 21.204 15.7287 21.2H13.2858C13.1101 21.1939 12.9374 21.1528 12.7777 21.0793C12.618 21.0057 12.4746 20.901 12.3558 20.7714C12.1221 20.5453 11.9827 20.2391 11.9658 19.9143Z" fill="white"/>
<path id="Rectangle 20195" d="M10.7141 13.0571H8.57129V15.6286H10.7141V13.0571Z" fill="white"/>
<path id="Path 256577" d="M10.646 7.05704V9.88132L8.00599 7.38704H6.85742C6.88005 7.29115 6.93501 7.20599 7.01307 7.14589C7.09113 7.08578 7.18751 7.05441 7.28599 7.05704H10.646Z" fill="white"/>
<path id="Path 256578" d="M10.6461 4.4856V7.05702H7.28613C7.18765 7.05439 7.09127 7.08577 7.01321 7.14587C6.93515 7.20598 6.88019 7.29114 6.85756 7.38702H4.28613V5.34274C4.28595 5.16482 4.34114 4.99125 4.44404 4.84611C4.54695 4.70097 4.69247 4.59145 4.86042 4.53274C4.94387 4.6394 5.05134 4.72484 5.17408 4.78209C5.29681 4.83935 5.43134 4.86679 5.56669 4.8622C5.70204 4.8576 5.8344 4.8211 5.95297 4.75565C6.07153 4.69021 6.17296 4.59767 6.24899 4.4856H7.39756C7.47597 4.60227 7.58187 4.69788 7.70593 4.76398C7.83 4.83008 7.96842 4.86466 8.10899 4.86466C8.24957 4.86466 8.38798 4.83008 8.51205 4.76398C8.63611 4.69788 8.74201 4.60227 8.82042 4.4856H10.6461Z" fill="white"/>
<path id="Path 256579" d="M10.6459 1.05699V4.48556H8.82014C8.91723 4.3445 8.96814 4.17679 8.96585 4.00556C8.96585 3.77823 8.87555 3.56021 8.7148 3.39947C8.55406 3.23872 8.33604 3.14842 8.10871 3.14842C7.88138 3.14842 7.66337 3.23872 7.50262 3.39947C7.34187 3.56021 7.25157 3.77823 7.25157 4.00556C7.24928 4.17679 7.3002 4.3445 7.39728 4.48556H6.24871C6.3458 4.3445 6.39671 4.17679 6.39443 4.00556C6.39417 3.86922 6.36139 3.7349 6.29881 3.61377C6.23623 3.49263 6.14565 3.38818 6.0346 3.30907C5.92355 3.22996 5.79524 3.17849 5.6603 3.15892C5.52537 3.13935 5.38772 3.15225 5.25877 3.19655C5.12983 3.24086 5.01331 3.31528 4.91889 3.41365C4.82448 3.51201 4.7549 3.63148 4.71592 3.76214C4.67694 3.89279 4.66969 4.03086 4.69477 4.16487C4.71985 4.29889 4.77655 4.42499 4.86014 4.5327C4.69219 4.59142 4.54667 4.70094 4.44376 4.84608C4.34086 4.99122 4.28567 5.16479 4.28585 5.3427V7.38699H0.857282C0.743618 7.38699 0.634609 7.34184 0.554237 7.26146C0.473864 7.18109 0.428711 7.07208 0.428711 6.95842V1.05699C0.428711 0.943325 0.473864 0.834316 0.554237 0.753944C0.634609 0.673571 0.743618 0.628418 0.857282 0.628418H10.2173C10.3309 0.628418 10.44 0.673571 10.5203 0.753944C10.6007 0.834316 10.6459 0.943325 10.6459 1.05699ZM3.85728 4.00556C3.85728 3.83603 3.80701 3.67031 3.71283 3.52936C3.61864 3.3884 3.48478 3.27854 3.32815 3.21366C3.17153 3.14879 2.99919 3.13181 2.83292 3.16489C2.66665 3.19796 2.51392 3.2796 2.39405 3.39947C2.27417 3.51934 2.19254 3.67207 2.15947 3.83834C2.12639 4.00461 2.14337 4.17695 2.20824 4.33358C2.27312 4.4902 2.38298 4.62406 2.52394 4.71825C2.66489 4.81243 2.83061 4.8627 3.00014 4.8627C3.22747 4.8627 3.44549 4.7724 3.60623 4.61165C3.76698 4.45091 3.85728 4.23289 3.85728 4.00556Z" fill="white"/>
<path id="Path 256580" d="M8.96534 4.00558C8.96762 4.17681 8.91671 4.34452 8.81962 4.48558H7.39676C7.29968 4.34452 7.24876 4.17681 7.25105 4.00558C7.25105 3.77825 7.34136 3.56023 7.5021 3.39949C7.66285 3.23874 7.88086 3.14844 8.10819 3.14844C8.33552 3.14844 8.55354 3.23874 8.71428 3.39949C8.87503 3.56023 8.96534 3.77825 8.96534 4.00558Z" fill="#191919"/>
<path id="Path 256581" d="M7.39746 4.4856H8.82032C8.74191 4.60227 8.63601 4.69788 8.51195 4.76398C8.38788 4.83008 8.24946 4.86466 8.10889 4.86466C7.96831 4.86466 7.8299 4.83008 7.70583 4.76398C7.58177 4.69788 7.47587 4.60227 7.39746 4.4856Z" fill="#191919"/>
<path id="Path 256582" d="M6.39397 4.00566C6.39626 4.17689 6.34534 4.34461 6.24826 4.48566H5.14254C5.04628 4.48538 4.95066 4.50132 4.85969 4.53281C4.77609 4.4251 4.7194 4.299 4.69432 4.16498C4.66923 4.03096 4.67648 3.89289 4.71546 3.76224C4.75444 3.63159 4.82403 3.51212 4.91844 3.41375C5.01285 3.31538 5.12937 3.24096 5.25832 3.19666C5.38726 3.15235 5.52492 3.13945 5.65985 3.15902C5.79478 3.17859 5.9231 3.23006 6.03415 3.30917C6.1452 3.38828 6.23577 3.49274 6.29835 3.61387C6.36093 3.73501 6.39371 3.86932 6.39397 4.00566Z" fill="#191919"/>
<path id="Path 256583" d="M5.14321 4.4856H6.24892C6.1729 4.59768 6.07147 4.69021 5.9529 4.75565C5.83433 4.8211 5.70198 4.85761 5.56662 4.8622C5.43127 4.8668 5.29675 4.83935 5.17401 4.7821C5.05128 4.72485 4.9438 4.63941 4.86035 4.53274C4.95132 4.50126 5.04694 4.48532 5.14321 4.4856Z" fill="#191919"/>
<path id="Ellipse 12150" d="M2.99972 4.86272C3.47311 4.86272 3.85686 4.47897 3.85686 4.00558C3.85686 3.53219 3.47311 3.14844 2.99972 3.14844C2.52633 3.14844 2.14258 3.53219 2.14258 4.00558C2.14258 4.47897 2.52633 4.86272 2.99972 4.86272Z" fill="#191919"/>
<path id="Path 256584" d="M24.4287 19.9143C24.5424 19.9143 24.6514 19.8692 24.7318 19.7888C24.8121 19.7084 24.8573 19.5994 24.8573 19.4857V9.53003" stroke="#191919" stroke-width="0.857143" stroke-linecap="round" stroke-linejoin="round"/>
<path id="Line 4657" d="M11.9658 19.9143H17.0444" stroke="#191919" stroke-width="0.857143" stroke-linecap="round" stroke-linejoin="round"/>
<path id="Path 256585" d="M4.28613 7.38721V19.4858C4.28613 19.5994 4.33129 19.7085 4.41166 19.7888C4.49203 19.8692 4.60104 19.9143 4.7147 19.9143" stroke="#191919" stroke-width="0.857143" stroke-linecap="round" stroke-linejoin="round"/>
<path id="Line 4658" d="M18.4969 4.4856H10.6455" stroke="#191919" stroke-width="0.857143" stroke-linecap="round" stroke-linejoin="round"/>
<path id="Path 256586" d="M24.4282 19.9143H26.9996C27.1132 19.9143 27.2223 19.9595 27.3026 20.0398C27.383 20.1202 27.4282 20.2292 27.4282 20.3429V21.2C27.4282 21.882 27.1572 22.5361 26.675 23.0183C26.1928 23.5005 25.5387 23.7714 24.8567 23.7714H4.2853C3.60331 23.7714 2.94926 23.5005 2.46702 23.0183C1.98478 22.5361 1.71387 21.882 1.71387 21.2V20.3429C1.71387 20.2292 1.75902 20.1202 1.83939 20.0398C1.91977 19.9595 2.02877 19.9143 2.14244 19.9143H11.9653C11.9822 20.2391 12.1216 20.5453 12.3553 20.7714C12.4741 20.901 12.6175 21.0057 12.7772 21.0793C12.9369 21.1528 13.1096 21.1939 13.2853 21.2H15.7282C15.8995 21.204 16.0699 21.1737 16.2294 21.1109C16.3889 21.0481 16.5342 20.954 16.6567 20.8342C16.7793 20.7144 16.8767 20.5713 16.9432 20.4134C17.0097 20.2554 17.0439 20.0857 17.0439 19.9143H24.4282Z" stroke="#191919" stroke-width="0.857143" stroke-linecap="round" stroke-linejoin="round"/>
<path id="Line 4659" d="M10.6455 7.05713H18.4969" stroke="#191919" stroke-width="0.857143" stroke-linecap="round" stroke-linejoin="round"/>
<path id="Path 256587" d="M22.2854 9.53006V16.9143C22.2854 17.028 22.2403 17.137 22.1599 17.2174C22.0795 17.2978 21.9705 17.3429 21.8569 17.3429H7.28544C7.17177 17.3429 7.06276 17.2978 6.98239 17.2174C6.90202 17.137 6.85687 17.028 6.85687 16.9143V7.48578C6.8524 7.45307 6.8524 7.41991 6.85687 7.38721" stroke="#191919" stroke-width="0.857143" stroke-linecap="round" stroke-linejoin="round"/>
<path id="Rectangle 20196" d="M10.7141 13.0571H8.57129V15.6286H10.7141V13.0571Z" stroke="#191919" stroke-width="0.857143" stroke-linecap="round" stroke-linejoin="round"/>
<path id="Line 4660" d="M20.5716 15.6284H12.4287" stroke="#191919" stroke-width="0.857143" stroke-linecap="round" stroke-linejoin="round"/>
<path id="Line 4661" d="M16.2859 14.3428H12.4287" stroke="#191919" stroke-width="0.857143" stroke-linecap="round" stroke-linejoin="round"/>
<path id="Path 256588" d="M10.6459 4.48556V1.05699C10.6459 0.943325 10.6007 0.834316 10.5203 0.753944C10.44 0.673571 10.3309 0.628418 10.2173 0.628418H0.857282C0.743618 0.628418 0.634609 0.673571 0.554237 0.753944C0.473864 0.834316 0.428711 0.943325 0.428711 1.05699V6.95842C0.428711 7.07208 0.473864 7.18109 0.554237 7.26146C0.634609 7.34184 0.743618 7.38699 0.857282 7.38699H8.00585L10.6459 9.88128V4.48556Z" stroke="#191919" stroke-width="0.857143" stroke-linecap="round" stroke-linejoin="round"/>
<path id="Path 256589" d="M18.4971 4.48577V3.20006C18.4971 3.08639 18.5422 2.97738 18.6226 2.89701C18.703 2.81664 18.812 2.77148 18.9256 2.77148H28.2856C28.3993 2.77148 28.5083 2.81664 28.5887 2.89701C28.6691 2.97738 28.7142 3.08639 28.7142 3.20006V9.10148C28.7142 9.21515 28.6691 9.32416 28.5887 9.40453C28.5083 9.4849 28.3993 9.53006 28.2856 9.53006H21.1328L18.4971 12.0243V4.48577Z" stroke="#191919" stroke-width="0.857143" stroke-linecap="round" stroke-linejoin="round"/>
</g>
</g>
</svg>
