<svg width="150" height="100" viewBox="0 0 150 100" fill="none" xmlns="http://www.w3.org/2000/svg">
<g id="Layer_1" clip-path="url(#clip0_4601_4494)">
<path id="Vector" d="M122.16 20.4375C126.283 20.4375 129.625 17.0391 129.625 12.8469C129.625 8.65477 126.283 5.25635 122.16 5.25635C118.038 5.25635 114.695 8.65477 114.695 12.8469C114.695 17.0391 118.038 20.4375 122.16 20.4375Z" fill="#191919"/>
<g id="Vector_2" filter="url(#filter0_d_4601_4494)">
<path d="M96.6705 0.0506489L15.8889 15.1869C14.3357 15.478 13.3134 16.9684 13.6055 18.516L24.3557 75.4782C24.6478 77.0258 26.1437 78.0444 27.6968 77.7534L108.478 62.6171C110.032 62.3261 111.054 60.8356 110.762 59.288L100.012 2.32584C99.7194 0.778267 98.2236 -0.240369 96.6705 0.0506489Z" fill="#E0E0E0"/>
</g>
<g id="Clip path group">
<mask id="mask0_4601_4494" style="mask-type:luminance" maskUnits="userSpaceOnUse" x="13" y="0" width="98" height="78">
<g id="clippath">
<path id="Vector_3" d="M96.6705 0.0508931L15.8889 15.1872C14.3357 15.4782 13.3134 16.9687 13.6055 18.5162L24.3557 75.4784C24.6478 77.026 26.1437 78.0446 27.6968 77.7536L108.478 62.6173C110.032 62.3263 111.054 60.8359 110.762 59.2883L100.012 2.32608C99.7194 0.778511 98.2236 -0.240125 96.6705 0.0508931Z" fill="white"/>
</g>
</mask>
<g mask="url(#mask0_4601_4494)">
<g id="Group">
<path id="Vector_4" d="M110.579 58.3518L24.1733 74.542L24.8798 78.2853L111.286 62.0951L110.579 58.3518Z" fill="#3C3C3C"/>
</g>
</g>
</g>
<path id="Vector_5" d="M62.1833 50.5985C68.6677 50.5985 73.9242 45.3607 73.9242 38.8997C73.9242 32.4386 68.6677 27.2009 62.1833 27.2009C55.699 27.2009 50.4424 32.4386 50.4424 38.8997C50.4424 45.3607 55.699 50.5985 62.1833 50.5985Z" fill="#8C1D40"/>
<path id="Vector_6" d="M57.8911 33.5674L68.0211 37.8061L60.1301 45.424L57.8911 33.5674Z" fill="white"/>
<g id="Vector_7" filter="url(#filter1_d_4601_4494)">
<path d="M139.158 90.8784L145.04 34.8286C145.178 33.5195 144.224 32.3473 142.91 32.2104L95.9676 27.319C94.6537 27.1821 93.4773 28.1324 93.3399 29.4415L87.4574 85.4913C87.32 86.8004 88.2737 87.9726 89.5875 88.1095L136.53 93.0009C137.844 93.1378 139.02 92.1875 139.158 90.8784Z" fill="white"/>
</g>
<path id="Vector_8" d="M103.566 44.0471C104.992 44.0471 106.149 42.8948 106.149 41.4734C106.149 40.052 104.992 38.8997 103.566 38.8997C102.139 38.8997 100.983 40.052 100.983 41.4734C100.983 42.8948 102.139 44.0471 103.566 44.0471Z" fill="#5B5B5B"/>
<path id="Vector_9" d="M130.256 43.9303L109.368 41.7537L109.302 42.376L130.191 44.5526L130.256 43.9303Z" fill="#A2A2A2"/>
<path id="Vector_10" d="M102.365 55.4575C103.791 55.4575 104.948 54.3052 104.948 52.8838C104.948 51.4624 103.791 50.3101 102.365 50.3101C100.938 50.3101 99.7817 51.4624 99.7817 52.8838C99.7817 54.3052 100.938 55.4575 102.365 55.4575Z" fill="#5B5B5B"/>
<path id="Vector_11" d="M129.056 55.3446L108.167 53.168L108.102 53.7903L128.99 55.9669L129.056 55.3446Z" fill="#A2A2A2"/>
<path id="Vector_12" d="M101.168 66.8735C102.595 66.8735 103.751 65.7212 103.751 64.2998C103.751 62.8784 102.595 61.7261 101.168 61.7261C99.7419 61.7261 98.5854 62.8784 98.5854 64.2998C98.5854 65.7212 99.7419 66.8735 101.168 66.8735Z" fill="#5B5B5B"/>
<path id="Vector_13" d="M127.859 66.7596L106.971 64.583L106.905 65.2054L127.794 67.382L127.859 66.7596Z" fill="#A2A2A2"/>
<path id="Vector_14" d="M99.9673 78.2839C101.394 78.2839 102.55 77.1316 102.55 75.7102C102.55 74.2888 101.394 73.1365 99.9673 73.1365C98.5407 73.1365 97.3843 74.2888 97.3843 75.7102C97.3843 77.1316 98.5407 78.2839 99.9673 78.2839Z" fill="#5B5B5B"/>
<path id="Vector_15" d="M126.659 78.1685L105.77 75.9919L105.705 76.6143L126.593 78.7909L126.659 78.1685Z" fill="#A2A2A2"/>
<g id="sRh3Pv">
<path id="Vector_16" d="M123.307 2.16027C128.883 3.49883 132.236 8.91291 130.903 14.4195C129.593 19.839 124.104 23.2072 118.709 21.9013C113.133 20.5573 109.797 15.1432 111.14 9.63116C112.456 4.23341 117.933 0.870689 123.307 2.16027ZM121.603 15.4805C121.647 15.2792 121.685 15.116 121.723 14.9527C121.969 13.8808 122.209 12.8034 122.461 11.7315C122.553 11.3234 122.466 11.0078 122.029 10.9044C121.226 10.7085 120.424 10.5235 119.615 10.3603C119.228 10.2787 118.96 10.4691 118.944 10.8663C118.922 11.3452 118.354 11.9111 119.124 12.2865C119.244 12.3464 119.386 12.3681 119.539 12.4171L118.982 14.8602C118.349 14.8385 117.961 15.1359 117.819 15.7526C117.802 15.8288 117.786 15.905 117.77 15.9811C117.655 16.5035 117.77 16.6885 118.294 16.8082C119.2 17.0204 120.112 17.2218 121.024 17.4285C121.205 17.4721 121.385 17.521 121.57 17.5482C121.914 17.5972 122.193 17.4721 122.204 17.1129C122.22 16.6287 122.81 16.09 122.106 15.6601C121.98 15.5839 121.816 15.5567 121.603 15.486V15.4805ZM122.28 6.54051C121.336 6.32286 120.429 6.88331 120.216 7.80833C119.998 8.73335 120.566 9.66381 121.478 9.8869C122.411 10.1154 123.367 9.5169 123.58 8.58644C123.788 7.65053 123.22 6.75816 122.28 6.54595V6.54051Z" fill="#FFC627"/>
</g>
<g id="f9U1yL">
<path id="Vector_17" d="M73.2091 76.5153C73.2746 76.5099 73.362 76.6133 73.4712 76.8962C73.6241 77.2935 73.7497 77.7015 73.9408 78.077C74.5907 79.3775 75.6555 80.1991 77.0972 80.4331C77.5013 80.4984 78.7519 80.5365 77.9273 81.0153C77.5942 81.2112 77.19 81.271 76.846 81.4343C75.519 82.0709 74.7381 83.0667 74.4924 84.514C74.4541 84.748 74.4651 85.5696 74.3067 85.7274C74.1483 85.8852 74.1046 85.7329 73.99 85.5424C73.777 85.1779 73.6951 84.7535 73.5203 84.3726C72.8869 82.9959 71.8056 82.1906 70.3039 81.9458C69.9107 81.8805 69.5339 81.8641 69.1898 81.6846C69.1134 81.6465 69.1079 81.5431 69.1789 81.4941C69.5666 81.2329 70.1291 81.1459 70.5387 80.95C71.893 80.3079 72.6793 79.2251 72.9087 77.7505C72.9578 77.4458 73.007 76.5317 73.2036 76.5153H73.2091Z" fill="#FFC627"/>
</g>
<g id="f9U1yL-2">
<path id="Vector_18" d="M5.02937 35.2051C5.11129 35.1997 5.2205 35.3249 5.35157 35.6731C5.5427 36.1628 5.6956 36.6634 5.93042 37.1314C6.73317 38.7365 8.04925 39.7541 9.82404 40.037C10.3264 40.1186 11.8664 40.1676 10.8507 40.7553C10.4357 40.9947 9.93872 41.0709 9.51823 41.2722C7.87996 42.0557 6.91338 43.2855 6.61303 45.0702C6.56389 45.3586 6.58027 46.3707 6.38368 46.5666C6.18708 46.7624 6.13247 46.572 5.99049 46.338C5.72291 45.8918 5.63007 45.364 5.41164 44.8961C4.63073 43.1984 3.29281 42.2026 1.44156 41.9034C0.955541 41.8218 0.485904 41.8054 0.0654148 41.5823C-0.0274205 41.5334 -0.0383423 41.4028 0.0490321 41.3484C0.529591 41.0273 1.22313 40.9185 1.73099 40.6791C3.40202 39.8847 4.3686 38.5515 4.65803 36.7287C4.7181 36.3533 4.78363 35.2215 5.01845 35.1997L5.02937 35.2051Z" fill="#FFC627"/>
</g>
<g id="aqb2DJ">
<path id="Vector_19" d="M150 80.8304C149.94 80.8903 149.874 80.9392 149.82 81.0045C149.268 81.6629 148.716 82.3268 148.149 83.0015C148.078 82.9471 148.007 82.8981 147.946 82.8437C145.604 80.9011 143.261 78.9586 140.913 77.0215C140.776 76.9072 140.694 76.793 140.7 76.6134C140.7 76.4883 140.662 76.3631 140.673 76.2434C140.7 75.8571 140.525 75.6013 140.159 75.4272C140.105 75.4762 140.039 75.5415 139.974 75.6068C138.232 77.3262 136.124 78.1859 133.688 78.1152C130.472 78.0227 127.938 76.608 126.278 73.8492C124.552 70.9817 124.519 67.989 126.087 65.0398C127.228 62.8959 129.041 61.5029 131.378 60.8065C131.771 60.6868 132.175 60.6215 132.58 60.529C132.891 60.5017 133.197 60.4745 133.508 60.4419C133.765 60.4473 134.016 60.4528 134.272 60.4637C136.255 60.5507 138.035 61.22 139.537 62.4987C141.841 64.4576 142.89 66.9769 142.688 69.9914C142.589 71.4768 142.092 72.8426 141.241 74.0778C141.175 74.1703 141.115 74.2682 141.06 74.3444C141.295 74.6709 141.585 74.796 141.961 74.6981C142.06 74.6709 142.163 74.6872 142.262 74.6654C142.486 74.6165 142.649 74.6926 142.824 74.8395C145.211 76.8256 147.602 78.8008 149.994 80.7814V80.8304H150ZM134.409 75.3891C137.784 75.1007 140.263 72.1461 139.984 68.7507C139.706 65.388 136.703 62.8959 133.3 63.2006C129.915 63.5053 127.446 66.46 127.747 69.8444C128.047 73.2126 131.018 75.6829 134.409 75.3891Z" fill="#8C1D40"/>
</g>
<g id="f9U1yL-3">
<path id="Vector_20" d="M54.5819 83.5836C54.702 83.5727 54.8549 83.7577 55.0461 84.2528C55.3191 84.9548 55.543 85.6785 55.8761 86.3423C57.0284 88.644 58.9124 90.1022 61.4626 90.5103C62.178 90.6246 64.3951 90.6953 62.9371 91.5442C62.3473 91.887 61.6319 91.9958 61.0257 92.2842C58.6775 93.4105 57.2905 95.1735 56.8645 97.7309C56.7935 98.1499 56.8154 99.5973 56.5369 99.8802C56.2584 100.163 56.1765 99.8911 55.9744 99.5483C55.5921 98.9062 55.4556 98.1499 55.1443 97.4806C54.0249 95.0484 52.1081 93.6227 49.4541 93.1874C48.7551 93.0732 48.0889 93.046 47.4827 92.7304C47.3516 92.6596 47.3353 92.4746 47.4609 92.393C48.1489 91.9305 49.1428 91.7781 49.8691 91.4299C52.2665 90.2872 53.6535 88.3773 54.0685 85.7655C54.1559 85.2268 54.2433 83.6053 54.5873 83.5781L54.5819 83.5836Z" fill="#FFC627"/>
</g>
</g>
<defs>
<filter id="filter0_d_4601_4494" x="9.55566" y="-1.99902" width="105.256" height="85.802" filterUnits="userSpaceOnUse" color-interpolation-filters="sRGB">
<feFlood flood-opacity="0" result="BackgroundImageFix"/>
<feColorMatrix in="SourceAlpha" type="matrix" values="0 0 0 0 0 0 0 0 0 0 0 0 0 0 0 0 0 0 127 0" result="hardAlpha"/>
<feOffset dy="2"/>
<feGaussianBlur stdDeviation="2"/>
<feComposite in2="hardAlpha" operator="out"/>
<feColorMatrix type="matrix" values="0 0 0 0 0 0 0 0 0 0 0 0 0 0 0 0 0 0 0.07 0"/>
<feBlend mode="normal" in2="BackgroundImageFix" result="effect1_dropShadow_4601_4494"/>
<feBlend mode="normal" in="SourceGraphic" in2="effect1_dropShadow_4601_4494" result="shape"/>
</filter>
<filter id="filter1_d_4601_4494" x="83.4443" y="25.3059" width="65.6089" height="73.708" filterUnits="userSpaceOnUse" color-interpolation-filters="sRGB">
<feFlood flood-opacity="0" result="BackgroundImageFix"/>
<feColorMatrix in="SourceAlpha" type="matrix" values="0 0 0 0 0 0 0 0 0 0 0 0 0 0 0 0 0 0 127 0" result="hardAlpha"/>
<feOffset dy="2"/>
<feGaussianBlur stdDeviation="2"/>
<feComposite in2="hardAlpha" operator="out"/>
<feColorMatrix type="matrix" values="0 0 0 0 0 0 0 0 0 0 0 0 0 0 0 0 0 0 0.07 0"/>
<feBlend mode="normal" in2="BackgroundImageFix" result="effect1_dropShadow_4601_4494"/>
<feBlend mode="normal" in="SourceGraphic" in2="effect1_dropShadow_4601_4494" result="shape"/>
</filter>
<clipPath id="clip0_4601_4494">
<rect width="150" height="100" fill="white"/>
</clipPath>
</defs>
</svg>
