<svg xmlns="http://www.w3.org/2000/svg" width="60" height="52.267" viewBox="0 0 60 52.267">
  <g id="list" transform="translate(259.766 4.688)">
    <path id="Path_68920" data-name="Path 68920" d="M-242.642,12.746A3.561,3.561,0,0,0-246.2,9.188a3.56,3.56,0,0,0-3.557,3.558A3.56,3.56,0,0,0-246.2,16.3,3.56,3.56,0,0,0-242.642,12.746Zm0,11.6a3.561,3.561,0,0,0-3.558-3.558,3.56,3.56,0,0,0-3.557,3.558A3.56,3.56,0,0,0-246.2,27.9,3.56,3.56,0,0,0-242.642,24.346Zm0,11.6a3.561,3.561,0,0,0-3.558-3.558,3.56,3.56,0,0,0-3.557,3.558A3.56,3.56,0,0,0-246.2,39.5,3.56,3.56,0,0,0-242.642,35.946Z" fill="#fff"/>
    <g id="Group_11105" data-name="Group 11105">
      <path id="Path_68921" data-name="Path 68921" d="M-200.766,2.112v40.6a3.866,3.866,0,0,1-3.867,3.867H-254.9a3.865,3.865,0,0,1-3.866-3.867V.179A3.866,3.866,0,0,1-254.9-3.688h50.267A3.867,3.867,0,0,1-200.766.179Z" fill="#fff"/>
      <path id="Path_68922" data-name="Path 68922" d="M-204.633,47.579H-254.9a4.871,4.871,0,0,1-4.866-4.867V.179A4.872,4.872,0,0,1-254.9-4.688h50.267A4.873,4.873,0,0,1-199.766.179V42.712A4.873,4.873,0,0,1-204.633,47.579ZM-254.9-2.688A2.87,2.87,0,0,0-257.766.179V42.712a2.87,2.87,0,0,0,2.866,2.867h50.267a2.87,2.87,0,0,0,2.867-2.867V.179a2.87,2.87,0,0,0-2.867-2.867Z"/>
    </g>
    <g id="Group_11106" data-name="Group 11106">
      <circle id="Ellipse_9247" data-name="Ellipse 9247" cx="3.557" cy="3.557" r="3.557" transform="translate(-249.757 6.288)" fill="#ffc627"/>
      <circle id="Ellipse_9248" data-name="Ellipse 9248" cx="3.557" cy="3.557" r="3.557" transform="translate(-249.757 17.888)" fill="#ffc627"/>
      <circle id="Ellipse_9249" data-name="Ellipse 9249" cx="3.557" cy="3.557" r="3.557" transform="translate(-249.757 29.488)" fill="#ffc627"/>
      <path id="Path_68923" data-name="Path 68923" d="M-246.2,14.4a4.563,4.563,0,0,1-4.557-4.558A4.562,4.562,0,0,1-246.2,5.289a4.562,4.562,0,0,1,4.558,4.556A4.564,4.564,0,0,1-246.2,14.4Zm0-7.114a2.559,2.559,0,0,0-2.557,2.556A2.561,2.561,0,0,0-246.2,12.4a2.562,2.562,0,0,0,2.558-2.558A2.56,2.56,0,0,0-246.2,7.289Z"/>
      <path id="Path_68924" data-name="Path 68924" d="M-246.2,26a4.562,4.562,0,0,1-4.557-4.557,4.563,4.563,0,0,1,4.557-4.558,4.564,4.564,0,0,1,4.558,4.558A4.563,4.563,0,0,1-246.2,26Zm0-7.115a2.561,2.561,0,0,0-2.557,2.558A2.56,2.56,0,0,0-246.2,24a2.561,2.561,0,0,0,2.558-2.557A2.562,2.562,0,0,0-246.2,18.888Z"/>
      <path id="Path_68925" data-name="Path 68925" d="M-246.2,37.6a4.563,4.563,0,0,1-4.557-4.558,4.563,4.563,0,0,1,4.557-4.557,4.563,4.563,0,0,1,4.558,4.557A4.564,4.564,0,0,1-246.2,37.6Zm0-7.115a2.56,2.56,0,0,0-2.557,2.557A2.56,2.56,0,0,0-246.2,35.6a2.561,2.561,0,0,0,2.558-2.558A2.561,2.561,0,0,0-246.2,30.488Z"/>
      <path id="Path_68926" data-name="Path 68926" d="M-211.4,10.845h-23.2a1,1,0,0,1-1-1,1,1,0,0,1,1-1h23.2a1,1,0,0,1,1,1A1,1,0,0,1-211.4,10.845Z"/>
      <path id="Path_68927" data-name="Path 68927" d="M-211.4,22.446h-23.2a1,1,0,0,1-1-1,1,1,0,0,1,1-1h23.2a1,1,0,0,1,1,1A1,1,0,0,1-211.4,22.446Z"/>
      <path id="Path_68928" data-name="Path 68928" d="M-211.4,34.045h-23.2a1,1,0,0,1-1-1,1,1,0,0,1,1-1h23.2a1,1,0,0,1,1,1A1,1,0,0,1-211.4,34.045Z"/>
    </g>
  </g>
</svg>
