<svg width="24" height="30" viewBox="0 0 24 30" fill="none" xmlns="http://www.w3.org/2000/svg">
<g id="location-pin">
<path id="Path 68860" d="M11.9981 1.03296C9.22373 1.03648 6.56402 2.12858 4.60238 4.0697C2.64073 6.01082 1.53733 8.64248 1.53418 11.3874C1.53418 14.8255 2.55574 16.2656 7.4634 23.183C8.54548 24.7081 9.81326 26.4952 11.2962 28.6221C11.3751 28.7344 11.4803 28.8261 11.6028 28.8895C11.7253 28.9529 11.8614 28.986 11.9997 28.986C12.1379 28.986 12.2741 28.9529 12.3966 28.8895C12.5191 28.8261 12.6243 28.7344 12.7031 28.6221C14.1861 26.4952 15.4539 24.7086 16.536 23.183C21.4436 16.2656 22.4652 14.8255 22.4652 11.3874C22.4619 8.64199 21.358 6.00995 19.3957 4.06877C17.4334 2.12758 14.773 1.0358 11.9981 1.03296ZM11.9981 15.4032C11.1954 15.4032 10.4106 15.1677 9.74314 14.7265C9.07567 14.2852 8.55544 13.658 8.24824 12.9242C7.94103 12.1904 7.86066 11.383 8.01727 10.604C8.17388 9.82501 8.56045 9.10946 9.12809 8.54784C9.69573 7.98622 10.4189 7.60376 11.2063 7.44881C11.9936 7.29386 12.8097 7.37338 13.5514 7.67733C14.293 7.98127 14.927 8.49599 15.3729 9.15638C15.8189 9.81678 16.057 10.5932 16.057 11.3874C16.0559 12.4522 15.6279 13.473 14.867 14.2258C14.106 14.9787 13.0743 15.4022 11.9981 15.4032Z" fill="white"/>
<path id="Path 68861" d="M6.30859 22.4436H17.6933L12.6878 29.4977H11.1878L6.30859 22.4436Z" fill="#FFC627"/>
<path id="Path 68862" d="M11.9983 30.0095C11.6932 30.0094 11.3927 29.9362 11.1225 29.7961C10.8522 29.656 10.6203 29.4532 10.4466 29.205C8.96466 27.0802 7.69843 25.2952 6.61894 23.7722C1.55558 16.6351 0.501953 15.15 0.501953 11.3875C0.501953 8.36989 1.71356 5.47585 3.87023 3.34206C6.0269 1.20827 8.95197 0.00952148 12.002 0.00952148C15.0519 0.00952148 17.977 1.20827 20.1337 3.34206C22.2903 5.47585 23.502 8.36989 23.502 11.3875C23.502 15.149 22.4483 16.6341 17.385 23.7722C16.3044 25.2952 15.0382 27.0802 13.5573 29.205C13.3827 29.454 13.1496 29.6573 12.8781 29.7974C12.6065 29.9376 12.3046 30.0104 11.9983 30.0095ZM11.2949 28.6221C11.373 28.7352 11.478 28.8276 11.6006 28.891C11.7233 28.9545 11.8599 28.9871 11.9983 28.986C12.1367 28.987 12.2733 28.9544 12.396 28.8909C12.5186 28.8275 12.6236 28.7352 12.7018 28.6221C14.1847 26.4953 15.4525 24.7087 16.5346 23.1831C21.4423 16.2656 22.4638 14.8255 22.4638 11.3875C22.4638 8.64135 21.3612 6.00765 19.3986 4.0658C17.4359 2.12396 14.7739 1.03305 11.9983 1.03305C9.2227 1.03305 6.56076 2.12396 4.5981 4.0658C2.63544 6.00765 1.53282 8.64135 1.53282 11.3875C1.53282 14.8255 2.55439 16.2656 7.46205 23.1831C8.54569 24.7092 9.81347 26.4953 11.2964 28.6221H11.2949Z" fill="#191919"/>
<path id="Path 68863" d="M11.9986 16.4268C10.9913 16.4268 10.0065 16.1312 9.16891 15.5775C8.33131 15.0238 7.67848 14.2367 7.29298 13.3159C6.90747 12.3951 6.80662 11.3819 7.00315 10.4043C7.19967 9.42681 7.68477 8.52889 8.39709 7.82413C9.10941 7.11937 10.0169 6.63942 11.005 6.44498C11.993 6.25053 13.0171 6.35033 13.9478 6.73174C14.8785 7.11316 15.6739 7.75906 16.2336 8.58777C16.7933 9.41648 17.092 10.3908 17.092 11.3875C17.0905 12.7235 16.5534 14.0044 15.5985 14.9492C14.6437 15.8939 13.349 16.4253 11.9986 16.4268ZM11.9986 7.37167C11.1959 7.37167 10.4111 7.60719 9.74364 8.04845C9.07617 8.48971 8.55594 9.1169 8.24874 9.85069C7.94153 10.5845 7.86116 11.3919 8.01777 12.1709C8.17438 12.9499 8.56095 13.6654 9.12859 14.2271C9.69623 14.7887 10.4194 15.1712 11.2068 15.3261C11.9941 15.4811 12.8102 15.4015 13.5519 15.0976C14.2935 14.7936 14.9275 14.2789 15.3734 13.6185C15.8194 12.9581 16.0575 12.1817 16.0575 11.3875C16.0564 10.3227 15.6284 9.30194 14.8675 8.54907C14.1065 7.79619 13.0748 7.37275 11.9986 7.37167Z" fill="#191919"/>
<path id="Path 68864" d="M3.03811 10.7892C3.01668 10.7893 2.99526 10.7881 2.97397 10.7856C2.90655 10.7773 2.84144 10.756 2.78236 10.7228C2.72328 10.6896 2.67139 10.6452 2.62965 10.5922C2.58791 10.5391 2.55714 10.4785 2.53909 10.4137C2.52105 10.3489 2.51607 10.2812 2.52447 10.2145C2.71491 8.73246 3.25668 7.31595 4.1056 6.08045C4.95451 4.84495 6.08654 3.82545 7.40938 3.10508C7.46897 3.0713 7.53476 3.0496 7.60292 3.04124C7.67108 3.03288 7.74025 3.03804 7.80637 3.05641C7.8725 3.07477 7.93426 3.10599 7.98806 3.14822C8.04186 3.19046 8.08662 3.24287 8.11972 3.30241C8.15283 3.36194 8.17363 3.42741 8.18089 3.49498C8.18816 3.56255 8.18175 3.63087 8.16204 3.69597C8.14234 3.76106 8.10972 3.82162 8.0661 3.87411C8.02249 3.9266 7.96875 3.96997 7.90801 4.00169C6.72842 4.64393 5.71891 5.55287 4.96179 6.65442C4.20466 7.75596 3.72134 9.01893 3.55122 10.3404C3.53571 10.4642 3.475 10.5782 3.38051 10.6608C3.28601 10.7435 3.16424 10.7891 3.03811 10.7892Z" fill="#191919"/>
<path id="Path 68865" d="M18.5238 11.626C18.3904 11.6261 18.2621 11.5753 18.1657 11.484C18.0693 11.3927 18.0123 11.2681 18.0065 11.1363C17.9531 9.96114 17.5501 8.82782 16.8479 7.87855C16.1458 6.92929 15.1759 6.2064 14.0599 5.80063C13.9318 5.75358 13.8277 5.65828 13.7704 5.53554C13.713 5.4128 13.7071 5.2726 13.7539 5.14556C13.8008 5.01853 13.8965 4.91498 14.0202 4.85755C14.1439 4.80011 14.2856 4.79345 14.4143 4.83903C15.7224 5.31415 16.8595 6.16124 17.6825 7.27383C18.5055 8.38642 18.9778 9.71488 19.04 11.0923C19.0459 11.2278 18.9971 11.3602 18.9044 11.4602C18.8116 11.5602 18.6826 11.6197 18.5455 11.6255L18.5238 11.626Z" fill="#191919"/>
</g>
</svg>
