<svg width="30" height="28" viewBox="0 0 30 28" fill="none" xmlns="http://www.w3.org/2000/svg">
<g id="person-gear">
<path id="Ellipse 12129" d="M9.61221 13.7364C12.5661 13.7364 14.9607 11.3418 14.9607 8.38784C14.9607 5.43393 12.5661 3.03931 9.61221 3.03931C6.65829 3.03931 4.26367 5.43393 4.26367 8.38784C4.26367 11.3418 6.65829 13.7364 9.61221 13.7364Z" fill="white"/>
<path id="Path 256432" d="M24.8199 21.9069L23.7042 21.2774L23.3352 21.5422C23.0623 21.7334 22.7715 21.8977 22.4669 22.0328L22.0328 22.2194V23.5218C22.0315 23.594 22.006 23.6637 21.9603 23.7196C21.9147 23.7756 21.8515 23.8145 21.781 23.8301C20.8226 24.0384 19.8306 24.0384 18.8723 23.8301C18.8084 23.8066 18.7539 23.763 18.7171 23.7058C18.6803 23.6486 18.6631 23.581 18.6682 23.5131V23.435C18.7582 23.2161 18.804 22.9815 18.8028 22.7447V20.8562C18.8028 18.1169 16.9838 15.8246 14.583 15.3384C14.4253 15.305 14.2659 15.2804 14.1055 15.2646C14.4032 14.3837 14.884 13.5759 15.5164 12.8942C15.5453 12.8614 15.5807 12.8349 15.6202 12.8162C15.6598 12.7975 15.7028 12.7872 15.7465 12.7857C15.8031 12.7847 15.8588 12.7997 15.9071 12.8291L17.0272 13.476L17.3658 13.2242C17.6374 13.0298 17.9284 12.8639 18.2341 12.7292L18.6682 12.5469V11.2445C18.6684 11.1727 18.693 11.1031 18.738 11.0471C18.783 10.9911 18.8456 10.952 18.9157 10.9363C19.8734 10.7221 20.8666 10.7221 21.8244 10.9363C21.8953 10.9511 21.9589 10.9898 22.0047 11.0459C22.0505 11.102 22.0757 11.1721 22.0762 11.2445V12.5469L22.5103 12.7292C22.8149 12.866 23.1057 13.0317 23.3786 13.2242L23.7476 13.489L24.8633 12.8421C24.9117 12.8128 24.9674 12.7977 25.024 12.7987C25.0664 12.7992 25.1083 12.8082 25.1471 12.8254C25.1859 12.8426 25.2208 12.8675 25.2497 12.8986C25.9007 13.6162 26.3854 14.4685 26.6693 15.3948C26.6901 15.4635 26.6872 15.5371 26.6613 15.604C26.6353 15.6709 26.5877 15.7272 26.5261 15.7638L25.406 16.402L25.4494 16.8362C25.4798 17.1683 25.4798 17.5025 25.4494 17.8347L25.406 18.2688L26.5217 18.9113C26.5843 18.9494 26.6327 19.007 26.6593 19.0752C26.686 19.1435 26.6895 19.2186 26.6693 19.289C26.3733 20.2276 25.8754 21.09 25.2106 21.8157C25.1801 21.847 25.1437 21.872 25.1034 21.8892C25.0632 21.9063 25.0199 21.9153 24.9762 21.9155C24.9244 21.9279 24.87 21.9249 24.8199 21.9069ZM22.4886 17.3701C22.4886 16.9486 22.3636 16.5364 22.1294 16.1859C21.8951 15.8354 21.5622 15.5621 21.1727 15.4008C20.7832 15.2395 20.3546 15.1973 19.9412 15.2795C19.5277 15.3618 19.1478 15.5648 18.8497 15.8629C18.5516 16.161 18.3486 16.5408 18.2664 16.9543C18.1841 17.3678 18.2263 17.7964 18.3877 18.1859C18.549 18.5754 18.8222 18.9083 19.1728 19.1425C19.5233 19.3767 19.9354 19.5017 20.357 19.5017C20.9223 19.5017 21.4645 19.2772 21.8643 18.8774C22.264 18.4777 22.4886 17.9355 22.4886 17.3701Z" fill="#D0D0D0"/>
<path id="Path 256433" d="M14.0448 15.3946C14.0245 15.464 14.0276 15.538 14.0534 15.6055C14.0793 15.6729 14.1266 15.73 14.1881 15.768L14.2879 15.8201L12.8466 18.3641L11.9089 20.0182L9.6123 18.9893L12.356 15.5162C12.7559 15.3556 13.1802 15.2646 13.6107 15.247C13.7716 15.2433 13.9326 15.2506 14.0926 15.2687C14.0752 15.3122 14.0578 15.3642 14.0448 15.3946Z" fill="#FFC627"/>
<path id="Ellipse 12130" d="M20.3572 19.5017C21.5344 19.5017 22.4888 18.5474 22.4888 17.3701C22.4888 16.1929 21.5344 15.2385 20.3572 15.2385C19.1799 15.2385 18.2256 16.1929 18.2256 17.3701C18.2256 18.5474 19.1799 19.5017 20.3572 19.5017Z" fill="white"/>
<path id="Path 256434" d="M6.86816 15.512C8.64685 16.1196 10.5769 16.1196 12.3556 15.512L9.61189 18.985L6.86816 15.512Z" fill="white"/>
<path id="Path 256435" d="M17.3659 21.5421C17.6383 21.7342 17.9291 21.8986 18.2342 22.0327L18.6684 22.2193V23.4349C18.557 23.7252 18.3616 23.9756 18.1072 24.1543C17.8528 24.3329 17.5509 24.4316 17.24 24.4378H9.6123V19.0067L11.9089 20.0356L12.8466 18.3816L14.0795 19.0805C14.0566 19.1186 14.0419 19.1612 14.0367 19.2053C14.0315 19.2495 14.0357 19.2943 14.0492 19.3367C14.3394 20.2769 14.8363 21.1402 15.5035 21.8634C15.5662 21.9251 15.65 21.9608 15.7379 21.9632C15.7945 21.9642 15.8502 21.9491 15.8986 21.9198L17.0143 21.2773L17.3659 21.5421Z" fill="white"/>
<path id="Path 256436" d="M12.8467 18.3816L14.288 15.8289L15.3126 16.4236L15.2691 16.8578C15.2344 17.1897 15.2344 17.5243 15.2691 17.8563L15.3126 18.2904L14.1882 18.9286C14.1423 18.9574 14.1049 18.9979 14.0796 19.0458L12.8467 18.3816Z" fill="white"/>
<path id="Path 256437" d="M25.5318 6.17373C25.3629 5.62086 25.0608 5.11795 24.6521 4.70918C24.2433 4.30041 23.7404 3.9983 23.1875 3.8294C23.7384 3.66216 24.2401 3.36268 24.6487 2.95709C25.0573 2.55149 25.3605 2.0521 25.5318 1.50244C25.6993 2.05535 26.0004 2.55849 26.4085 2.96737C26.8166 3.37625 27.3192 3.67829 27.8718 3.84677C27.3212 4.01361 26.8199 4.31301 26.4119 4.71871C26.0039 5.12442 25.7017 5.62403 25.5318 6.17373Z" fill="#FFC627"/>
<path id="Path 256438" d="M18.7901 0.19996C19.0034 0.199101 19.2122 0.261625 19.3899 0.379599C19.5676 0.497572 19.7063 0.665678 19.7883 0.862587C19.8703 1.0595 19.892 1.27633 19.8506 1.48559C19.8092 1.69484 19.7066 1.88708 19.5557 2.03791C19.4049 2.18875 19.2127 2.29138 19.0034 2.33278C18.7942 2.37419 18.5773 2.3525 18.3804 2.27047C18.1835 2.18845 18.0154 2.04978 17.8974 1.87206C17.7794 1.69434 17.7169 1.48558 17.7178 1.27227C17.7189 0.988229 17.8323 0.716146 18.0331 0.515296C18.234 0.314445 18.5061 0.201103 18.7901 0.19996Z" fill="#191919"/>
<path id="Path 256439" d="M7.31511 20.0356L4.6582 15.3382C4.9724 15.2734 5.29248 15.2414 5.6133 15.2427C6.04396 15.259 6.4685 15.3501 6.86795 15.5119L9.61168 18.985L7.31511 20.0356Z" fill="#FFC627"/>
<path id="Path 256440" d="M14.1878 15.7854C14.1263 15.7474 14.079 15.6903 14.0532 15.6229C14.0273 15.5554 14.0242 15.4813 14.0445 15.412C14.0525 15.3606 14.0686 15.3107 14.0923 15.2644C14.2527 15.2802 14.4121 15.3048 14.5698 15.3382L14.2876 15.8288L14.1878 15.7854Z" fill="white"/>
<path id="Path 256441" d="M4.65875 15.3384L7.31566 20.0357L9.61223 19.0068V24.4378H1.99751C1.56641 24.4187 1.16033 24.23 0.867639 23.9129C0.574944 23.5958 0.419318 23.176 0.434625 22.7447V20.8562C0.434625 18.1168 2.25799 15.829 4.65875 15.3384Z" fill="white"/>
<path id="Path 256442" d="M17.3656 21.5421L16.9966 21.2772L15.8982 21.9067C15.8499 21.9361 15.7942 21.9511 15.7376 21.9501C15.6496 21.9478 15.5658 21.9121 15.5032 21.8503C14.836 21.1271 14.339 20.2638 14.0488 19.3236C14.0354 19.2812 14.0311 19.2364 14.0364 19.1923C14.0416 19.1481 14.0562 19.1056 14.0792 19.0675C14.1045 19.0196 14.1419 18.9791 14.1877 18.9503L15.3121 18.3121L15.2687 17.878C15.234 17.546 15.234 17.2114 15.2687 16.8794L15.3121 16.4453L14.2876 15.8288L14.5698 15.3296C16.9705 15.8158 18.7896 18.1081 18.7896 20.8474V22.7359C18.796 22.9747 18.7547 23.2123 18.668 23.4349V22.2193L18.2339 22.0326C17.9288 21.8985 17.6379 21.7342 17.3656 21.5421Z" fill="#D0D0D0"/>
<path id="Ellipse 12131" d="M9.61221 13.7364C12.5661 13.7364 14.9607 11.3418 14.9607 8.38784C14.9607 5.43393 12.5661 3.03931 9.61221 3.03931C6.65829 3.03931 4.26367 5.43393 4.26367 8.38784C4.26367 11.3418 6.65829 13.7364 9.61221 13.7364Z" stroke="#191919" stroke-width="0.868269" stroke-linecap="round" stroke-linejoin="round"/>
<path id="Path 256443" d="M14.0925 15.2644C13.9362 15.2644 13.7712 15.2427 13.6106 15.2427C13.1801 15.2603 12.7558 15.3513 12.356 15.5119C10.5773 16.1195 8.64719 16.1195 6.8685 15.5119C6.46905 15.3501 6.04451 15.259 5.61385 15.2427C5.29303 15.2414 4.97295 15.2734 4.65875 15.3382C2.25799 15.8288 0.434625 18.1167 0.434625 20.8561V22.7446C0.419318 23.1758 0.574944 23.5957 0.867639 23.9128C1.16033 24.2298 1.56641 24.4185 1.99751 24.4377H17.2269C17.54 24.4341 17.8448 24.3366 18.1018 24.1578C18.3587 23.979 18.5561 23.7271 18.6683 23.4348" stroke="#191919" stroke-width="0.868269" stroke-linecap="round" stroke-linejoin="round"/>
<path id="Path 256444" d="M12.3556 15.512L9.61189 19.0067L6.86816 15.512" stroke="#191919" stroke-width="0.868269" stroke-linecap="round" stroke-linejoin="round"/>
<path id="Path 256445" d="M9.61168 19.0068L7.31511 20.0357L4.6582 15.3384" stroke="#191919" stroke-width="0.868269" stroke-linecap="round" stroke-linejoin="round"/>
<path id="Path 256446" d="M14.2879 15.8374L12.8466 18.3814L11.9089 20.0355L9.6123 19.0066V24.4376" stroke="#191919" stroke-width="0.868269" stroke-linecap="round" stroke-linejoin="round"/>
<path id="Path 256447" d="M14.0923 15.2646C14.39 14.3837 14.8708 13.5759 15.5032 12.8942C15.5322 12.8614 15.5675 12.8349 15.6071 12.8162C15.6466 12.7975 15.6896 12.7872 15.7333 12.7857C15.7899 12.7847 15.8456 12.7997 15.8939 12.8291L17.014 13.476L17.3657 13.2242C17.6373 13.0298 17.9282 12.8639 18.2339 12.7292L18.6681 12.5469V11.2445C18.6683 11.1727 18.6929 11.1031 18.7378 11.0471C18.7828 10.9911 18.8454 10.952 18.9155 10.9363C19.8733 10.7221 20.8665 10.7221 21.8242 10.9363C21.8951 10.9511 21.9587 10.9898 22.0045 11.0459C22.0504 11.102 22.0756 11.1721 22.076 11.2445V12.5469L22.5101 12.7292C22.8148 12.866 23.1055 13.0317 23.3784 13.2242L23.7474 13.489L24.8632 12.8421C24.9115 12.8128 24.9672 12.7977 25.0238 12.7987C25.0662 12.7992 25.1081 12.8082 25.1469 12.8254C25.1857 12.8426 25.2207 12.8675 25.2495 12.8986C25.9005 13.6162 26.3852 14.4685 26.6692 15.3948C26.6899 15.4635 26.6871 15.5371 26.6611 15.604C26.6352 15.6709 26.5875 15.7272 26.5259 15.7638L25.4058 16.402L25.4492 16.8362C25.4796 17.1683 25.4796 17.5025 25.4492 17.8347L25.4058 18.2688L26.5216 18.9113C26.5841 18.9494 26.6325 19.007 26.6592 19.0752C26.6858 19.1435 26.6893 19.2186 26.6692 19.289C26.3732 20.2276 25.8753 21.09 25.2105 21.8157C25.18 21.847 25.1435 21.872 25.1033 21.8892C25.063 21.9063 25.0198 21.9153 24.976 21.9155C24.9207 21.9172 24.8663 21.9021 24.8197 21.8721L23.704 21.2774L23.335 21.5422C23.0621 21.7334 22.7713 21.8977 22.4667 22.0328L22.0326 22.2194V23.5218C22.0314 23.594 22.0059 23.6637 21.9602 23.7196C21.9145 23.7756 21.8513 23.8145 21.7808 23.8301C20.8224 24.0384 19.8305 24.0384 18.8721 23.8301C18.8082 23.8066 18.7538 23.763 18.7169 23.7058C18.6801 23.6486 18.663 23.581 18.6681 23.5131V22.2107L18.2339 22.0241C17.9288 21.89 17.638 21.7256 17.3657 21.5335L16.9966 21.2687L15.8983 21.9069C15.8499 21.9362 15.7942 21.9513 15.7377 21.9503C15.6497 21.9479 15.5659 21.9122 15.5032 21.8504C14.836 21.1272 14.3391 20.2639 14.0489 19.3237C14.0354 19.2814 14.0312 19.2366 14.0364 19.1924C14.0417 19.1482 14.0563 19.1057 14.0793 19.0676C14.1045 19.0197 14.1419 18.9792 14.1878 18.9504L15.3122 18.3122L15.2688 17.8781C15.2341 17.5462 15.2341 17.2115 15.2688 16.8796L15.3122 16.4454L14.2876 15.829L14.1878 15.7769C14.1263 15.7389 14.079 15.6818 14.0532 15.6144C14.0273 15.5469 14.0242 15.4728 14.0445 15.4035C14.0575 15.3644 14.0749 15.3123 14.0923 15.2646Z" stroke="#191919" stroke-width="0.868269" stroke-linecap="round" stroke-linejoin="round"/>
<path id="Ellipse 12132" d="M20.3572 19.5017C21.5344 19.5017 22.4888 18.5474 22.4888 17.3701C22.4888 16.1929 21.5344 15.2385 20.3572 15.2385C19.1799 15.2385 18.2256 16.1929 18.2256 17.3701C18.2256 18.5474 19.1799 19.5017 20.3572 19.5017Z" stroke="#191919" stroke-width="0.868269" stroke-linecap="round" stroke-linejoin="round"/>
<path id="Path 256448" d="M20.3574 8.17065C22.4384 8.17156 24.4576 8.878 26.0853 10.1746C27.713 11.4712 28.8529 13.2814 29.319 15.3095C29.7851 17.3377 29.5498 19.4639 28.6515 21.341C27.7532 23.2182 26.245 24.7353 24.3732 25.6446C24.1214 25.7618 23.8696 25.8703 23.6091 25.9658" stroke="#191919" stroke-width="0.868269" stroke-linecap="round" stroke-linejoin="round"/>
<path id="Path 256449" d="M25.949 26.9513L23.3008 26.2306L24.0301 23.5911" stroke="#191919" stroke-width="0.868269" stroke-linecap="round" stroke-linejoin="round"/>
<path id="Path 256450" d="M25.5318 6.17373C25.3629 5.62086 25.0608 5.11795 24.6521 4.70918C24.2433 4.30041 23.7404 3.9983 23.1875 3.8294C23.7384 3.66216 24.2401 3.36268 24.6487 2.95709C25.0573 2.55149 25.3605 2.0521 25.5318 1.50244C25.6993 2.05535 26.0004 2.55849 26.4085 2.96737C26.8166 3.37625 27.3192 3.67829 27.8718 3.84677C27.3212 4.01361 26.8199 4.31301 26.4119 4.71871C26.0039 5.12442 25.7017 5.62403 25.5318 6.17373Z" stroke="#191919" stroke-width="0.868269" stroke-linecap="round" stroke-linejoin="round"/>
</g>
</svg>
