<svg width="155" height="101" viewBox="0 0 155 101" fill="none" xmlns="http://www.w3.org/2000/svg">
<g filter="url(#filter0_d_19421_85539)">
<path d="M47.5538 14.4983C47.2323 10.0918 50.5439 6.2589 54.9505 5.9374L126.76 0.698208C131.166 0.376706 134.999 3.6883 135.321 8.09487L140.487 78.9066C140.808 83.3132 137.497 87.1461 133.09 87.4676L61.2812 92.7068C56.8746 93.0283 53.0417 89.7167 52.7202 85.3101L47.5538 14.4983Z" fill="white"/>
</g>
<path fill-rule="evenodd" clip-rule="evenodd" d="M126.832 1.69556L55.0232 6.93475C51.1675 7.21606 48.2698 10.5698 48.5512 14.4256L53.7176 85.2373C53.9989 89.0931 57.3526 91.9907 61.2084 91.7094L133.018 86.4702C136.873 86.1889 139.771 82.8352 139.49 78.9794L134.323 8.16763C134.042 4.31189 130.688 1.41424 126.832 1.69556ZM54.9505 5.9374C50.5439 6.2589 47.2323 10.0918 47.5538 14.4983L52.7202 85.3101C53.0417 89.7167 56.8746 93.0283 61.2812 92.7068L133.09 87.4676C137.497 87.1461 140.808 83.3132 140.487 78.9066L135.321 8.09487C134.999 3.6883 131.166 0.376705 126.76 0.698208L54.9505 5.9374Z" fill="#C8C8C8"/>
<path d="M29.6414 19.9805C29.5984 19.8864 29.5294 19.8064 29.4427 19.7501C29.3559 19.6938 29.2549 19.6634 29.1514 19.6625C29.048 19.6616 28.9465 19.6903 28.8587 19.7451C28.771 19.7999 28.7007 19.8787 28.6561 19.9721L27.2861 22.8783L24.3593 24.1995C24.2652 24.2425 24.1853 24.3115 24.1291 24.3984C24.0728 24.4852 24.0424 24.5863 24.0415 24.6898C24.0407 24.7933 24.0693 24.895 24.1241 24.9828C24.1788 25.0706 24.2575 25.1409 24.3508 25.1856L27.2505 26.5556L28.5695 29.4807C28.6125 29.5749 28.6815 29.6548 28.7682 29.7111C28.855 29.7674 28.956 29.7978 29.0595 29.7987C29.1629 29.7996 29.2644 29.7709 29.3521 29.7161C29.4399 29.6613 29.5102 29.5826 29.5548 29.4892L30.9237 26.587L33.8464 25.2669C33.9405 25.2238 34.0203 25.1548 34.0766 25.068C34.1329 24.9811 34.1633 24.88 34.1641 24.7765C34.165 24.673 34.1364 24.5714 34.0816 24.4836C34.0268 24.3958 33.9482 24.3255 33.8549 24.2808L30.9552 22.9108L29.6414 19.9805Z" fill="#FFC627"/>
<path d="M12.3882 35.411C12.2932 35.2046 12.1415 35.0295 11.9508 34.9062C11.7602 34.7828 11.5384 34.7163 11.3113 34.7144C11.0843 34.7124 10.8614 34.7751 10.6687 34.8952C10.4759 35.0153 10.3213 35.1877 10.2228 35.3924L7.21351 41.7686L0.791174 44.6716C0.58497 44.7667 0.410037 44.9185 0.28679 45.1093C0.163544 45.3001 0.097069 45.5221 0.0951235 45.7493C0.0931779 45.9765 0.155842 46.1996 0.275803 46.3925C0.395763 46.5854 0.568071 46.7402 0.772616 46.8388L7.1443 49.8513L10.0448 56.279C10.1398 56.4854 10.2914 56.6605 10.4821 56.7838C10.6728 56.9071 10.8946 56.9737 11.1216 56.9756C11.3486 56.9776 11.5715 56.9148 11.7642 56.7948C11.957 56.6747 12.1117 56.5023 12.2102 56.2975L15.2203 49.9205L21.6418 47.0175C21.848 46.9224 22.0229 46.7706 22.1461 46.5798C22.2694 46.389 22.3359 46.167 22.3378 45.9398C22.3398 45.7126 22.2771 45.4895 22.1571 45.2966C22.0372 45.1037 21.8649 44.9489 21.6603 44.8503L15.2886 41.8378L12.3882 35.411Z" fill="#FFC627"/>
<path d="M69.7852 16.8853C69.7048 15.7837 70.5327 14.8255 71.6343 14.7451L111.528 11.8344C112.63 11.7541 113.588 12.582 113.669 13.6836L114.396 23.6571C114.477 24.7587 113.649 25.7169 112.547 25.7973L72.6531 28.708C71.5514 28.7884 70.5932 27.9605 70.5128 26.8588L69.7852 16.8853Z" fill="#E0E0E0"/>
<path fill-rule="evenodd" clip-rule="evenodd" d="M111.601 12.8318L71.7071 15.7424C71.1563 15.7826 70.7423 16.2617 70.7825 16.8126L71.5102 26.786C71.5504 27.3369 72.0295 27.7508 72.5803 27.7106L112.474 24.8C113.025 24.7598 113.439 24.2807 113.399 23.7299L112.671 13.7564C112.631 13.2055 112.152 12.7916 111.601 12.8318ZM71.6343 14.7451C70.5327 14.8255 69.7048 15.7837 69.7852 16.8853L70.5128 26.8588C70.5932 27.9605 71.5514 28.7884 72.6531 28.708L112.547 25.7973C113.649 25.7169 114.477 24.7587 114.396 23.6571L113.669 13.6836C113.588 12.582 112.63 11.7541 111.528 11.8344L71.6343 14.7451Z" fill="#B9B9B9"/>
<path d="M73.6446 69.7447C73.5642 68.6431 74.3921 67.6848 75.4937 67.6045L115.388 64.6938C116.489 64.6134 117.448 65.4413 117.528 66.543L118.256 76.5165C118.336 77.6181 117.508 78.5763 116.406 78.6567L76.5125 81.5674C75.4108 81.6477 74.4526 80.8198 74.3722 79.7182L73.6446 69.7447Z" fill="#E0E0E0"/>
<path fill-rule="evenodd" clip-rule="evenodd" d="M115.46 65.6912L75.5665 68.6018C75.0157 68.642 74.6017 69.1211 74.6419 69.6719L75.3696 79.6454C75.4098 80.1962 75.8889 80.6102 76.4397 80.57L116.334 77.6593C116.884 77.6192 117.298 77.14 117.258 76.5892L116.531 66.6157C116.49 66.0649 116.011 65.651 115.46 65.6912ZM75.4937 67.6045C74.3921 67.6848 73.5642 68.6431 73.6446 69.7447L74.3722 79.7182C74.4526 80.8198 75.4108 81.6477 76.5125 81.5674L116.406 78.6567C117.508 78.5763 118.336 77.6181 118.256 76.5165L117.528 66.543C117.448 65.4413 116.489 64.6134 115.388 64.6938L75.4937 67.6045Z" fill="#B9B9B9"/>
<path d="M77.3711 38.3912C77.2907 37.2895 78.1186 36.3313 79.2203 36.251L151.029 31.0118C152.131 30.9314 153.089 31.7593 153.17 32.8609L154.552 51.8106C154.633 52.9122 153.805 53.8704 152.703 53.9508L80.8939 59.19C79.7923 59.2704 78.8341 58.4425 78.7537 57.3408L77.3711 38.3912Z" fill="white"/>
<path fill-rule="evenodd" clip-rule="evenodd" d="M151.102 32.0091L79.2931 37.2483C78.7422 37.2885 78.3283 37.7676 78.3685 38.3184L79.751 57.268C79.7912 57.8189 80.2703 58.2328 80.8211 58.1926L152.63 52.9534C153.181 52.9133 153.595 52.4341 153.555 51.8833L152.172 32.9337C152.132 32.3829 151.653 31.9689 151.102 32.0091ZM79.2203 36.251C78.1186 36.3313 77.2907 37.2895 77.3711 38.3912L78.7537 57.3408C78.8341 58.4425 79.7923 59.2704 80.8939 59.19L152.703 53.9508C153.805 53.8704 154.633 52.9122 154.552 51.8106L153.17 32.8609C153.089 31.7593 152.131 30.9314 151.029 31.0118L79.2203 36.251Z" fill="#B9B9B9"/>
<path d="M94.6942 55.1153C99.0649 54.7628 102.322 50.9339 101.97 46.5632C101.617 42.1925 97.7885 38.9351 93.4178 39.2875C89.0471 39.64 85.7897 43.4689 86.1421 47.8396C86.4946 52.2103 90.3235 55.4678 94.6942 55.1153Z" fill="#498500"/>
<path d="M98.0904 44.2764C98.2087 44.3764 98.2825 44.5193 98.2956 44.6737C98.3087 44.828 98.26 44.9813 98.1602 45.0998L93.901 50.1474C93.801 50.2657 93.6582 50.3395 93.5038 50.3526C93.3494 50.3657 93.1962 50.317 93.0777 50.2172L90.5541 48.0874C90.4379 47.9868 90.366 47.8445 90.354 47.6913C90.342 47.5381 90.3908 47.3863 90.4899 47.2688C90.589 47.1514 90.7304 47.0777 90.8835 47.0637C91.0365 47.0498 91.1889 47.0967 91.3076 47.1943L93.3857 48.9448L97.2687 44.3461C97.3687 44.2277 97.5115 44.1539 97.6659 44.1408C97.8203 44.1278 97.9735 44.1765 98.092 44.2763L98.0904 44.2764Z" fill="#FAFAFA"/>
<path fill-rule="evenodd" clip-rule="evenodd" d="M97.3645 44.4265C97.3645 44.4265 97.3645 44.4265 97.3645 44.4265L93.401 49.1206L91.228 47.2902C91.1348 47.2137 91.0153 47.177 90.8952 47.188C90.7749 47.1989 90.6637 47.2568 90.5858 47.3492C90.5079 47.4415 90.4695 47.5608 90.4789 47.6812C90.4884 47.8014 90.5447 47.9131 90.6357 47.9921L93.1586 50.1213C93.1586 50.1213 93.1586 50.1213 93.1586 50.1213M97.3645 44.4265C97.4431 44.3335 97.5555 44.2754 97.6768 44.2651ZM97.1736 44.2651C97.2949 44.1215 97.4683 44.0319 97.6557 44.016C97.8431 44.0002 98.0291 44.0593 98.1729 44.1804L98.4039 44.3751L98.3353 44.3809C98.3827 44.4671 98.4121 44.563 98.4205 44.6629C98.4364 44.8502 98.3773 45.0362 98.2561 45.18L93.9969 50.2278C93.8755 50.3714 93.7021 50.461 93.5147 50.4769C93.3273 50.4928 93.1413 50.4337 92.9975 50.3125L90.4726 48.1816C90.3315 48.0595 90.2443 47.8868 90.2297 47.7008C90.2151 47.5148 90.2744 47.3305 90.3947 47.1879C90.5151 47.0454 90.6867 46.9559 90.8725 46.939C91.0583 46.9221 91.2433 46.979 91.3874 47.0975L91.3885 47.0984L93.3711 48.7685L97.1736 44.2651ZM97.6768 44.2651C97.7876 44.2558 97.8978 44.2869 97.987 44.3521ZM97.987 44.3521L98.0101 44.3716C98.1031 44.4503 98.1611 44.5626 98.1714 44.684C98.1817 44.8053 98.1434 44.9257 98.065 45.0189M98.065 45.0189L93.8059 50.0665Z" fill="#FAFAFA"/>
<path d="M80.4428 25.1026C82.6282 24.9263 84.2569 23.0119 84.0806 20.8265C83.9044 18.6412 81.9899 17.0125 79.8046 17.1887C77.6192 17.3649 75.9905 19.2794 76.1668 21.4647C76.343 23.6501 78.2575 25.2788 80.4428 25.1026Z" fill="#498500"/>
<path d="M82.1409 19.6831C82.2001 19.7331 82.237 19.8046 82.2435 19.8818C82.2501 19.9589 82.2257 20.0356 82.1758 20.0948L80.0462 22.6186C79.9962 22.6778 79.9248 22.7147 79.8476 22.7212C79.7704 22.7278 79.6938 22.7034 79.6346 22.6535L78.3727 21.5886C78.3146 21.5383 78.2787 21.4672 78.2727 21.3906C78.2667 21.3139 78.2911 21.2381 78.3407 21.1793C78.3902 21.1206 78.4609 21.0838 78.5374 21.0768C78.614 21.0698 78.6902 21.0933 78.7495 21.1421L79.7886 22.0173L81.73 19.7179C81.78 19.6588 81.8515 19.6219 81.9287 19.6153C82.0058 19.6088 82.0825 19.6332 82.1417 19.6831L82.1409 19.6831Z" fill="#FAFAFA"/>
<path fill-rule="evenodd" clip-rule="evenodd" d="M81.8249 19.7983C81.8535 19.7645 81.8944 19.7434 81.9386 19.7396ZM81.8249 19.7983L79.8029 22.1931L78.669 21.238C78.6351 21.2103 78.5917 21.197 78.5482 21.201C78.5044 21.205 78.4639 21.2261 78.4356 21.2597C78.4072 21.2933 78.3932 21.3367 78.3967 21.3805C78.4001 21.4241 78.4205 21.4647 78.4534 21.4934L79.7145 22.5577M81.6339 19.637C81.7053 19.5526 81.8073 19.4999 81.9175 19.4905C82.0277 19.4812 82.137 19.516 82.2216 19.5872L82.4526 19.7819L82.3525 19.7903C82.3601 19.8165 82.3651 19.8435 82.3674 19.8709C82.3768 19.9811 82.342 20.0905 82.2707 20.1751L80.1411 22.699C80.0697 22.7834 79.9677 22.8362 79.8575 22.8455C79.7473 22.8549 79.638 22.8201 79.5534 22.7488L78.2903 21.6829C78.2073 21.6111 78.156 21.5094 78.1474 21.4001C78.1389 21.2907 78.1737 21.1823 78.2445 21.0985C78.3153 21.0146 78.4162 20.962 78.5255 20.952C78.6347 20.9421 78.7435 20.9756 78.8283 21.0453L78.8294 21.0462L79.773 21.841L81.6339 19.637ZM81.9386 19.7396C81.9783 19.7363 82.0177 19.7472 82.0499 19.7701ZM82.0499 19.7701L82.0596 19.7784C82.0935 19.807 82.1146 19.8479 82.1183 19.892C82.1221 19.9362 82.1081 19.9801 82.0796 20.014L79.9501 22.5377C79.9501 22.5377 79.9501 22.5377 79.9501 22.5377" fill="#FAFAFA"/>
<path d="M84.3022 77.9619C86.4875 77.7857 88.1163 75.8712 87.94 73.6859C87.7638 71.5005 85.8493 69.8718 83.664 70.0481C81.4786 70.2243 79.8499 72.1388 80.0261 74.3241C80.2024 76.5095 82.1168 78.1382 84.3022 77.9619Z" fill="#498500"/>
<path d="M86.0003 72.5425C86.0594 72.5925 86.0963 72.6639 86.1029 72.7411C86.1094 72.8183 86.0851 72.8949 86.0352 72.9542L83.9056 75.478C83.8556 75.5372 83.7842 75.5741 83.707 75.5806C83.6298 75.5871 83.5532 75.5628 83.4939 75.5129L82.2321 74.448C82.174 74.3977 82.1381 74.3265 82.1321 74.2499C82.1261 74.1733 82.1505 74.0974 82.2 74.0387C82.2496 73.98 82.3203 73.9431 82.3968 73.9362C82.4734 73.9292 82.5495 73.9526 82.6089 74.0015L83.6479 74.8767L85.5894 72.5773C85.6394 72.5182 85.7109 72.4813 85.788 72.4747C85.8652 72.4682 85.9418 72.4925 86.0011 72.5424L86.0003 72.5425Z" fill="#FAFAFA"/>
<path fill-rule="evenodd" clip-rule="evenodd" d="M85.6843 72.6577C85.7129 72.6239 85.7538 72.6028 85.798 72.599ZM85.6843 72.6577L83.6623 75.0525L82.5284 74.0973C82.4945 74.0697 82.4511 74.0564 82.4075 74.0604C82.3637 74.0644 82.3233 74.0855 82.2949 74.1191C82.2666 74.1527 82.2526 74.1961 82.2561 74.2399C82.2595 74.2835 82.2798 74.324 82.3128 74.3528L83.5738 75.417M85.4933 72.4964C85.5647 72.4119 85.6667 72.3592 85.7768 72.3499C85.887 72.3406 85.9964 72.3753 86.081 72.4466L86.312 72.6412L86.2119 72.6497C86.2194 72.6758 86.2245 72.7028 86.2268 72.7303C86.2361 72.8405 86.2014 72.9499 86.1301 73.0345L84.0005 75.5584C83.9291 75.6428 83.8271 75.6956 83.7169 75.7049C83.6067 75.7142 83.4973 75.6795 83.4128 75.6082L82.1497 74.5422C82.0667 74.4704 82.0154 74.3688 82.0068 74.2594C81.9982 74.1501 82.0331 74.0417 82.1039 73.9578C82.1746 73.874 82.2756 73.8214 82.3848 73.8114C82.4941 73.8015 82.6029 73.835 82.6877 73.9046L82.6888 73.9056L83.6324 74.7004L85.4933 72.4964ZM85.798 72.599C85.8376 72.5957 85.877 72.6066 85.9092 72.6295ZM85.9092 72.6295L85.919 72.6377C85.9528 72.6664 85.974 72.7072 85.9777 72.7514C85.9814 72.7956 85.9675 72.8395 85.9389 72.8734L83.8095 75.3971C83.8095 75.397 83.8095 75.3971 83.8095 75.3971" fill="#FAFAFA"/>
<g clip-path="url(#clip0_19421_85539)">
<path d="M39.8256 60.5597C39.1607 62.8209 36.033 62.2498 36.1149 59.8606C36.1507 58.7671 36.3143 56.5827 36.5598 55.5609C36.859 54.3164 37.4396 53.8631 38.7438 53.8939C39.8383 53.9195 41.6183 53.9988 42.6693 54.1909C45.1167 54.6365 45.3136 57.5533 42.8944 58.0629C49.5793 64.3471 61.008 60.68 62.9056 51.7274C63.2661 50.0296 62.8672 47.2921 65.5601 47.7863C67.8336 48.2037 66.8413 51.9067 66.4091 53.4431C63.1818 64.9771 48.4106 68.8593 39.8256 60.5597Z" fill="#8C1D40"/>
<path d="M62.1744 37.4406C62.8393 35.1794 65.9669 35.7504 65.8851 38.1397C65.8493 39.2332 65.6856 41.4175 65.4401 42.4393C65.1409 43.6839 64.5604 44.1371 63.2561 44.1064C62.1616 44.0808 60.3817 44.0014 59.3306 43.8093C56.8832 43.3638 56.6863 40.447 59.1056 39.9374C52.4207 33.6531 40.9919 37.3202 39.0944 46.2728C38.7338 47.9707 39.1327 50.7082 36.4398 50.2139C34.1664 49.7965 35.1586 46.0936 35.5908 44.5571C38.8182 33.0232 53.5894 29.141 62.1744 37.4406Z" fill="#8C1D40"/>
</g>
<defs>
<filter id="filter0_d_19421_85539" x="43.5322" y="0.676758" width="100.977" height="100.052" filterUnits="userSpaceOnUse" color-interpolation-filters="sRGB">
<feFlood flood-opacity="0" result="BackgroundImageFix"/>
<feColorMatrix in="SourceAlpha" type="matrix" values="0 0 0 0 0 0 0 0 0 0 0 0 0 0 0 0 0 0 127 0" result="hardAlpha"/>
<feOffset dy="4"/>
<feGaussianBlur stdDeviation="2"/>
<feComposite in2="hardAlpha" operator="out"/>
<feColorMatrix type="matrix" values="0 0 0 0 0 0 0 0 0 0 0 0 0 0 0 0 0 0 0.11 0"/>
<feBlend mode="normal" in2="BackgroundImageFix" result="effect1_dropShadow_19421_85539"/>
<feBlend mode="normal" in="SourceGraphic" in2="effect1_dropShadow_19421_85539" result="shape"/>
</filter>
<clipPath id="clip0_19421_85539">
<rect width="32" height="32" fill="white" transform="translate(35 33)"/>
</clipPath>
</defs>
</svg>
