<svg xmlns="http://www.w3.org/2000/svg" width="16" height="16" viewBox="0 0 16 16">
  <path id="question-circle-solid" d="M24,16a8,8,0,1,1-8-8A8,8,0,0,1,24,16Zm-7.785-5.355a4.178,4.178,0,0,0-3.76,2.057.388.388,0,0,0,.088.524l1.119.849a.387.387,0,0,0,.538-.068c.576-.731.971-1.155,1.848-1.155.659,0,1.474.424,1.474,1.063,0,.483-.4.731-1.049,1.1-.759.425-1.763.955-1.763,2.279v.129a.387.387,0,0,0,.387.387H16.9a.387.387,0,0,0,.387-.387v-.043c0-.918,2.683-.956,2.683-3.441C19.974,12.064,18.033,10.645,16.215,10.645Zm-.215,8a1.484,1.484,0,1,0,1.484,1.484A1.486,1.486,0,0,0,16,18.645Z" transform="translate(-8 -8)" fill="#747474"/>
</svg>
