<svg id="raised-hand-icon" xmlns="http://www.w3.org/2000/svg" xmlns:xlink="http://www.w3.org/1999/xlink" width="31.937" height="40" viewBox="0 0 31.937 40">
  <defs>
    <clipPath id="clip-path">
      <rect id="Rectangle_26883" data-name="Rectangle 26883" width="31.937" height="40" fill="none"/>
    </clipPath>
  </defs>
  <g id="Group_87626" data-name="Group 87626" clip-path="url(#clip-path)">
    <path id="Path_267648" data-name="Path 267648" d="M20.065,40.4a6.022,6.022,0,0,1,1.673-4.275,17.273,17.273,0,0,0,3.687-6.365l.072-.2a5.17,5.17,0,0,1,2.152-3.173,1.214,1.214,0,0,0,.615-1.453,1.774,1.774,0,0,0-1.658-1.172,1.643,1.643,0,0,0-.349.038,5.551,5.551,0,0,0-3.609,2.478c-.084.134-.188.338-.314.6A7.114,7.114,0,0,1,21.3,28.548a1.474,1.474,0,0,1-.259-.649q-.036-.26-.072-.521a17.735,17.735,0,0,1-.257-3.477c.1-1.57.277-3.168.451-4.713.117-1.032.238-2.1.333-3.153a2.074,2.074,0,0,0-.435-1.611,1.628,1.628,0,0,0-1.121-.483c-.041,0-.084,0-.126,0-1.421,0-1.613,1.356-1.685,1.867-.015.108-.03.267-.046.435-.019.208-.041.444-.063.56-.112.611-.218,1.2-.323,1.775-.274,1.514-.532,2.944-.846,4.536a1.283,1.283,0,0,1-.058.2l-.026-.07a6.35,6.35,0,0,1-.29-1.62c-.1-1.158-.176-2.344-.251-3.484s-.152-2.315-.251-3.472c-.053-.628-.2-2.3-1.845-2.3a2.479,2.479,0,0,0-.314.02c-1.59.2-1.463,1.565-1.394,2.3.01.1.019.206.026.3.064,1.012.141,2.039.214,3.032.1,1.437.217,2.923.293,4.384,0,.068.008.139.012.21a4.826,4.826,0,0,1,0,.943,4.467,4.467,0,0,1-.391-1.039c-.215-.8-.419-1.614-.617-2.4-.3-1.212-.617-2.465-.977-3.688-.028-.094-.053-.2-.08-.3-.169-.662-.451-1.77-1.651-1.77a2.226,2.226,0,0,0-.518.067c-1.5.365-1.188,1.746-1.023,2.488.013.058.026.116.038.174.322,1.513.679,3.043,1.023,4.522.254,1.093.518,2.223.765,3.335a5.073,5.073,0,0,1,.11.706c-.2-.2-.379-.414-.514-.576-.515-.619-.982-1.176-1.49-1.724-.1-.112-.248-.285-.416-.484C6.055,21.465,4.8,20.093,3.553,20.093a1.515,1.515,0,0,0-.826.238,1.4,1.4,0,0,0-.259,1.951,19.865,19.865,0,0,0,2.009,2.4,15.457,15.457,0,0,1,1.973,2.81,11.18,11.18,0,0,1,1.294,4.051c.051.274.1.56.164.862a16.273,16.273,0,0,0,2.4,6.452,3.386,3.386,0,0,1,.65,1.788c0,1.492,0,3.019,0,4.567h9.1q0-2.41.011-4.813" transform="translate(-0.813 -5.212)" fill="#e8e8e8"/>
    <path id="Path_267649" data-name="Path 267649" d="M22.261,40.073A5.6,5.6,0,0,1,23.808,36.1,17.676,17.676,0,0,0,27.6,29.576l.072-.2a4.831,4.831,0,0,1,1.946-2.932,1.639,1.639,0,0,0,.827-1.964,2.246,2.246,0,0,0-2.125-1.508,2.181,2.181,0,0,0-.463.05,6.031,6.031,0,0,0-3.923,2.692c-.1.153-.2.366-.336.637-.085.174-.238.48-.4.776l-.019-.142a17.471,17.471,0,0,1-.251-3.393c.1-1.559.276-3.152.45-4.692.117-1.034.238-2.1.333-3.162a2.434,2.434,0,0,0-.554-1.946,2.123,2.123,0,0,0-1.463-.648c-.053,0-.106,0-.158,0a1.983,1.983,0,0,0-1.751.926,3.4,3.4,0,0,0-.423,1.338c-.017.116-.032.281-.049.454s-.041.426-.058.524c-.112.611-.218,1.2-.323,1.776-.114.63-.225,1.246-.34,1.865-.056-.752-.1-1.511-.153-2.252-.074-1.139-.151-2.315-.251-3.478a4.122,4.122,0,0,0-.392-1.588,2.1,2.1,0,0,0-1.946-1.127v0a3.149,3.149,0,0,0-.377.024,1.953,1.953,0,0,0-1.746,1.3,3.627,3.627,0,0,0-.074,1.488c.009.1.019.2.024.289.063,1.013.141,2.041.214,3.035q.046.625.093,1.261c-.251-.994-.512-2.007-.806-3-.024-.083-.05-.181-.076-.284a4.175,4.175,0,0,0-.45-1.2,1.912,1.912,0,0,0-1.682-.922,2.74,2.74,0,0,0-.644.082A1.85,1.85,0,0,0,8.808,15.2a4.007,4.007,0,0,0,.132,1.477c.013.058.026.116.037.17.323,1.516.679,3.048,1.025,4.53.171.736.347,1.489.519,2.241-.26-.3-.519-.6-.79-.89-.1-.1-.237-.271-.4-.466-1.251-1.494-2.6-2.951-4.07-2.951a2.063,2.063,0,0,0-1.106.318,1.823,1.823,0,0,0-.4,2.569,20.3,20.3,0,0,0,2.056,2.46,15.116,15.116,0,0,1,1.908,2.725,10.692,10.692,0,0,1,1.241,3.91c.051.275.1.562.164.868a16.925,16.925,0,0,0,2.466,6.615,2.992,2.992,0,0,1,.573,1.543c0,1.491,0,3.017,0,4.563h.979c0-1.523.009-3.046.01-4.569a3.833,3.833,0,0,0-.728-2.032A15.961,15.961,0,0,1,10.1,31.989c-.407-2.076-.546-3.418-1.51-5.049a15.692,15.692,0,0,0-2.037-2.893A19.478,19.478,0,0,1,4.59,21.7a.99.99,0,0,1,.122-1.331,1,1,0,0,1,.547-.157c1.35,0,3.085,2.418,3.719,3.1.513.552.994,1.127,1.474,1.7a4.063,4.063,0,0,0,1.314,1.171,3.3,3.3,0,0,0-.035-1.669c-.581-2.621-1.229-5.229-1.787-7.855-.164-.771-.5-1.859.628-2.133a1.691,1.691,0,0,1,.392-.052c.946,0,1.053,1.053,1.256,1.736.593,2.011,1.045,4.058,1.59,6.082.136.5.467,1.612,1.067,1.689a2.8,2.8,0,0,0,.284-1.934c-.126-2.476-.35-4.946-.507-7.421-.053-.84-.337-1.967.942-2.127a2.08,2.08,0,0,1,.247-.016v-.006c1.091,0,1.28,1.021,1.353,1.877.2,2.315.3,4.638.5,6.953a6.742,6.742,0,0,0,.314,1.731,1.424,1.424,0,0,0,.5.785,1.967,1.967,0,0,0,.539-.984c.434-2.2.765-4.108,1.17-6.316.043-.231.08-.778.113-1.012.1-.711.3-1.47,1.193-1.47h.1c.973.058,1.161.877,1.1,1.6-.237,2.628-.624,5.247-.785,7.878a21.193,21.193,0,0,0,.332,4.081c.045.329.274,1.01.686,1.074a.358.358,0,0,0,.05,0c.672,0,1.478-2.042,1.783-2.526a5.036,5.036,0,0,1,3.3-2.263,1.11,1.11,0,0,1,.235-.025c.956,0,1.743,1.231.773,1.794-1.492.863-1.924,2.22-2.43,3.612a16.8,16.8,0,0,1-3.584,6.206,6.438,6.438,0,0,0-1.8,4.577q-.007,2.406-.005,4.814h.978q0-2.406.011-4.805" transform="translate(-1.264 -4.878)"/>
    <path id="Path_267650" data-name="Path 267650" d="M27.907,64.868a.85.85,0,0,0-.13-.524,1.022,1.022,0,0,0-.807-.245l-13.695-.122a.674.674,0,0,0-.523.561l.05,2.072a.37.37,0,0,0,.383.346H27.55a.369.369,0,0,0,.384-.358c-.006-.577-.013-1.154-.026-1.731" transform="translate(-4.746 -26.956)" fill="#ffc627"/>
    <path id="Path_267651" data-name="Path 267651" d="M14.7,63.752h12.11a.455.455,0,0,0,.268.048h.005a.451.451,0,0,0,.15-.047h2.009l-.033,2.774h.86l.037-3.169a.414.414,0,0,0-.426-.4H14.247a.415.415,0,0,0-.431.4c0,.007,0,.013,0,.02l.16,3.154h.863Z" transform="translate(-5.142 -26.526)"/>
    <path id="Path_267652" data-name="Path 267652" d="M23.382,47.423a.515.515,0,0,0,.106.031.5.5,0,0,0,.546-.263,6.407,6.407,0,0,1,2.637-2.767.436.436,0,0,0,.179-.623.518.518,0,0,0-.676-.165l-.016.009a7.349,7.349,0,0,0-3.029,3.176.442.442,0,0,0,.251.6" transform="translate(-8.592 -18.36)"/>
    <path id="Path_267653" data-name="Path 267653" d="M29.621,4.082a.506.506,0,0,0,.29-.016.434.434,0,0,0,.275-.283L31.128.526A.418.418,0,0,0,30.8.015h0a.47.47,0,0,0-.566.3L29.291,3.57a.418.418,0,0,0,.326.512h0" transform="translate(-10.896 0)"/>
    <path id="Path_267654" data-name="Path 267654" d="M43.507,9.46l-2.723,2.056a.393.393,0,0,0-.066.583l.006.008a.5.5,0,0,0,.529.121.486.486,0,0,0,.126-.067L44.1,10.105a.393.393,0,0,0,.065-.584l-.007-.008a.5.5,0,0,0-.652-.054" transform="translate(-15.117 -3.945)"/>
    <path id="Path_267655" data-name="Path 267655" d="M16.692,4.729a.485.485,0,0,1-.618-.2l-1.6-3.015A.4.4,0,0,1,14.687.96l.008,0a.485.485,0,0,1,.618.2l1.6,3.013a.4.4,0,0,1-.209.557l-.008,0" transform="translate(-5.371 -0.385)"/>
    <path id="Path_267656" data-name="Path 267656" d="M3.772,17.143a.463.463,0,0,1-.24.146.5.5,0,0,1-.409-.073L.181,15.146a.4.4,0,0,1-.091-.583L.1,14.556a.494.494,0,0,1,.651-.07l2.942,2.07a.4.4,0,0,1,.09.584l-.006.006" transform="translate(0 -6.065)"/>
    <path id="Path_267657" data-name="Path 267657" d="M44.193,24.655l3.542-.093a.442.442,0,0,1,.477.4.421.421,0,0,1-.308.418.512.512,0,0,1-.142.024l-3.542.093a.445.445,0,0,1-.488-.388.433.433,0,0,1,.421-.45h.04" transform="translate(-16.276 -10.349)"/>
  </g>
</svg>
