<svg width="28" height="28" viewBox="0 0 28 28" fill="none" xmlns="http://www.w3.org/2000/svg">
<g id="rotate, cycle">
<g id="Group 23740">
<path id="Path 256106" d="M1.01864 11.4946C1.00135 11.5886 1.0048 11.6853 1.02877 11.7778C1.05273 11.8702 1.09661 11.9563 1.15727 12.0297C1.21794 12.1031 1.29389 12.1621 1.37974 12.2026C1.46559 12.243 1.55922 12.2638 1.65396 12.2636H4.73546C4.87995 12.2637 5.02031 12.2148 5.13397 12.1248C5.24762 12.0348 5.328 11.9088 5.3622 11.7672C5.57444 10.9224 5.90711 10.1133 6.3498 9.36499H1.60561C1.35209 10.0573 1.15577 10.7696 1.01864 11.4946Z" fill="#D0D0D0"/>
<path id="Path 256107" d="M25.2598 2.33124L23.3388 4.26904C21.7383 2.72582 19.7821 1.60892 17.6469 1.01909C15.5117 0.429261 13.2645 0.385052 11.1081 0.890457C8.95174 1.39586 6.95396 2.43498 5.29499 3.91408C3.63603 5.39318 2.36806 7.26572 1.60547 9.36281H6.34966C7.0368 8.18741 7.97684 7.18277 9.10035 6.42311C10.2239 5.66344 11.5021 5.16815 12.8408 4.97381C14.1795 4.77948 15.5443 4.89105 16.8345 5.30031C18.1246 5.70956 19.3072 6.40604 20.2949 7.3383L18.0496 9.60395C17.8687 9.78584 17.7454 10.0179 17.6954 10.2706C17.6454 10.5233 17.6709 10.7852 17.7687 11.0233C17.8666 11.2613 18.0322 11.4647 18.2448 11.6075C18.4573 11.7504 18.7071 11.8263 18.9625 11.8257H26.1722C26.5141 11.8257 26.8419 11.6887 27.0836 11.4448C27.3253 11.2009 27.4611 10.8701 27.4611 10.5252V3.25245C27.4616 2.99488 27.3863 2.74295 27.2448 2.5286C27.1032 2.31426 26.9018 2.14716 26.666 2.04848C26.4302 1.9498 26.1707 1.92401 25.9203 1.97434C25.67 2.02468 25.4401 2.1489 25.2598 2.33124Z" fill="white"/>
</g>
<g id="Group 23742">
<g id="Group 23741">
<path id="Path 256108" d="M9.28919 16.1712C9.54456 16.1705 9.79437 16.2465 10.0069 16.3893C10.2195 16.5322 10.3852 16.7355 10.483 16.9736C10.5808 17.2116 10.6063 17.4736 10.5563 17.7263C10.5063 17.979 10.383 18.211 10.2022 18.3929L7.95626 20.658C9.10412 21.7409 10.512 22.5031 12.0409 22.8693C13.5698 23.2356 15.167 23.1932 16.6747 22.7464C18.1824 22.2997 19.5487 21.4639 20.6386 20.3217C21.7285 19.1794 22.5043 17.7702 22.8897 16.2329C22.9238 16.0914 23.0041 15.9655 23.1177 15.8755C23.2312 15.7855 23.3715 15.7366 23.5159 15.7366H26.5979C26.6926 15.7364 26.7862 15.7573 26.8719 15.7978C26.9577 15.8382 27.0336 15.8972 27.0942 15.9707C27.1548 16.0441 27.1987 16.1301 27.2226 16.2225C27.2465 16.3149 27.25 16.4116 27.2327 16.5055C26.7857 18.8847 25.7108 21.0981 24.1214 22.9125C22.5321 24.7268 20.487 26.0749 18.2018 26.8146C15.9167 27.5543 13.4761 27.6583 11.1373 27.1155C8.79848 26.5727 6.64813 25.4033 4.91288 23.7305L2.9919 25.6683C2.81163 25.8509 2.58169 25.9752 2.33125 26.0257C2.08082 26.0761 1.82118 26.0504 1.58527 25.9517C1.34937 25.853 1.14783 25.6858 1.00625 25.4713C0.864666 25.2569 0.789415 25.0048 0.790043 24.7471V17.4733C0.790043 17.1284 0.925835 16.7976 1.16755 16.5537C1.40926 16.3098 1.73709 16.1728 2.07893 16.1728L9.28919 16.1712Z" fill="#FFC627"/>
<path id="Path 256109" d="M14.1254 28C10.7354 28.0064 7.46149 26.754 4.92761 24.4815L3.37019 26.053C3.11494 26.3118 2.78923 26.4883 2.43441 26.56C2.07958 26.6317 1.71166 26.5954 1.37733 26.4557C1.043 26.316 0.757341 26.0792 0.556628 25.7753C0.355914 25.4715 0.249185 25.1144 0.250005 24.7492V17.4727C0.250998 16.9844 0.443698 16.5164 0.785911 16.1711C1.12812 15.8258 1.59197 15.6313 2.07593 15.6303H9.28566C9.64768 15.6293 10.0018 15.7368 10.3031 15.9394C10.6044 16.1419 10.8393 16.4302 10.9778 16.7677C11.1163 17.1052 11.1523 17.4766 11.0812 17.8348C11.0101 18.1929 10.835 18.5217 10.5783 18.7792L8.73789 20.6358C10.2544 21.8937 12.1575 22.5798 14.1206 22.5763H14.1308C16.0223 22.5789 17.8602 21.9431 19.3523 20.7702C20.8445 19.5973 21.905 17.9546 22.3652 16.1034C22.4284 15.8444 22.5758 15.6144 22.7838 15.4499C22.9919 15.2855 23.2486 15.1962 23.5128 15.1963H26.5944C26.7681 15.1961 26.9397 15.2345 27.097 15.3088C27.2543 15.3832 27.3934 15.4916 27.5044 15.6264C27.6154 15.7612 27.6956 15.9191 27.7393 16.0887C27.783 16.2583 27.789 16.4356 27.757 16.6079C27.1549 19.8112 25.4637 22.7021 22.9751 24.7818C20.4865 26.8616 17.3567 27.9997 14.1254 28ZM4.90398 22.9729L5.2842 23.3392C6.94974 24.9446 9.01364 26.0668 11.2584 26.5875C13.5031 27.1083 15.8455 27.0083 18.0386 26.2982C20.2317 25.588 22.1944 24.294 23.7196 22.5525C25.2449 20.811 26.2762 18.6865 26.705 16.4031C26.708 16.3877 26.7076 16.3718 26.7036 16.3567C26.6995 16.3416 26.6921 16.3276 26.6819 16.3158C26.6717 16.3032 26.6589 16.293 26.6443 16.286C26.6297 16.2791 26.6137 16.2756 26.5976 16.2757H23.5161C23.4911 16.2758 23.4669 16.2844 23.4474 16.3002C23.4279 16.3159 23.4142 16.3379 23.4087 16.3624C22.8908 18.448 21.6965 20.2988 20.0159 21.6204C18.3352 22.9421 16.2648 23.6585 14.134 23.6557H14.1227C11.6955 23.6602 9.35814 22.7298 7.58754 21.0546L7.18315 20.6721L9.82109 18.0108C9.92822 17.9049 10.0015 17.7691 10.0315 17.6209C10.0616 17.4726 10.047 17.3187 9.98967 17.1789C9.93233 17.039 9.83486 16.9197 9.70979 16.8362C9.58472 16.7527 9.43777 16.7089 9.28781 16.7103H2.07916C1.88001 16.7112 1.68928 16.7914 1.54846 16.9335C1.40765 17.0755 1.32816 17.268 1.32731 17.469V24.7444C1.32599 24.8956 1.36953 25.0438 1.45232 25.17C1.53511 25.2961 1.65339 25.3943 1.79194 25.4521C1.93049 25.5099 2.08299 25.5246 2.22987 25.4942C2.37675 25.4639 2.51128 25.39 2.61619 25.2819L4.90398 22.9729ZM4.73587 12.8054H1.65437C1.48094 12.8056 1.3096 12.7672 1.15253 12.693C0.995466 12.6188 0.85652 12.5106 0.745545 12.3761C0.63457 12.2417 0.554285 12.0842 0.510411 11.9149C0.466536 11.7456 0.460146 11.5686 0.491678 11.3965C0.948421 8.96574 2.0353 6.70046 3.64167 4.83127C5.24805 2.96208 7.31655 1.55572 9.63665 0.755361C11.9567 -0.0450004 14.4456 -0.210789 16.8498 0.274865C19.2541 0.760519 21.4878 1.88028 23.3238 3.52016L24.8812 1.94867C25.1365 1.69004 25.4622 1.51376 25.8169 1.44218C26.1716 1.3706 26.5394 1.40696 26.8737 1.54664C27.2079 1.68632 27.4934 1.92303 27.6941 2.22673C27.8948 2.53043 28.0016 2.88744 28.0009 3.25247V10.5279C28 11.0163 27.8074 11.4844 27.4651 11.8297C27.1229 12.1751 26.6589 12.3694 26.1749 12.3703H18.9631C18.6012 12.3712 18.2471 12.2636 17.946 12.0611C17.6448 11.8587 17.41 11.5704 17.2715 11.2331C17.133 10.8957 17.097 10.5244 17.168 10.1663C17.239 9.80822 17.4139 9.47952 17.6704 9.22193L19.5108 7.36487C17.9935 6.10705 16.0897 5.42101 14.126 5.42436H14.1185C12.2269 5.42206 10.389 6.05796 8.89681 7.23093C7.40466 8.4039 6.34401 10.0466 5.88353 11.8978C5.82045 12.1568 5.67308 12.387 5.46502 12.5516C5.25696 12.7161 5.00023 12.8055 4.73587 12.8054ZM14.1254 1.08382C11.1436 1.08352 8.25512 2.13363 5.95868 4.05291C3.66224 5.9722 2.1019 8.64022 1.54695 11.5965C1.54395 11.6117 1.54442 11.6274 1.54833 11.6425C1.55224 11.6575 1.55948 11.6714 1.56951 11.6832C1.57973 11.6959 1.59268 11.7061 1.60738 11.7131C1.62208 11.72 1.63814 11.7235 1.65437 11.7233H4.73587C4.76093 11.7238 4.78539 11.7155 4.805 11.6998C4.82462 11.684 4.83816 11.6619 4.84329 11.6371C5.36165 9.55162 6.5562 7.70087 8.23696 6.37923C9.91771 5.05759 11.9881 4.34095 14.119 4.34329H14.1276C16.5557 4.33906 18.8939 5.27041 20.6644 6.94708L21.0693 7.32965L18.4314 9.99087C18.3243 10.0968 18.251 10.2326 18.2209 10.3808C18.1909 10.5291 18.2055 10.683 18.2628 10.8228C18.3202 10.9627 18.4176 11.082 18.5427 11.1655C18.6677 11.249 18.8147 11.2928 18.9647 11.2914H26.1744C26.3736 11.2907 26.5644 11.2105 26.7053 11.0684C26.8461 10.9263 26.9255 10.7337 26.9262 10.5328V3.25193C26.927 3.10122 26.8833 2.9537 26.8006 2.82818C26.7179 2.70266 26.6001 2.60482 26.4621 2.54715C26.3241 2.48948 26.1722 2.47458 26.0258 2.50436C25.8794 2.53415 25.7451 2.60726 25.64 2.71437L23.3474 5.02715L22.9677 4.66084C20.5897 2.35954 17.4204 1.07747 14.1254 1.08382Z" fill="#191919"/>
</g>
</g>
</g>
</svg>
