<svg width="42" height="36" viewBox="0 0 42 36" fill="none" xmlns="http://www.w3.org/2000/svg">
<path d="M40.6476 30.6422L23.9039 2.05964C23.6038 1.55691 23.1784 1.14068 22.6693 0.851637C22.1601 0.562594 21.5847 0.410645 20.9992 0.410645C20.4138 0.410645 19.8383 0.562594 19.3292 0.851637C18.8201 1.14068 18.3947 1.55691 18.0946 2.05964L1.35314 30.6422C1.06268 31.1466 0.91086 31.7189 0.913111 32.3009C0.915361 32.883 1.0716 33.4541 1.36595 33.9563C1.66031 34.4584 2.0823 34.8737 2.58909 35.16C3.09587 35.4464 3.66939 35.5935 4.25142 35.5864H37.7505C38.3318 35.5915 38.9041 35.4431 39.4097 35.1563C39.9152 34.8694 40.3362 34.4543 40.6301 33.9528C40.9239 33.4513 41.0803 32.8811 41.0834 32.2998C41.0865 31.7186 40.9362 31.1468 40.6476 30.6422ZM19.113 11.0901C19.113 10.5903 19.3115 10.1109 19.665 9.75752C20.0184 9.4041 20.4977 9.20556 20.9975 9.20556C21.4973 9.20556 21.9766 9.4041 22.3301 9.75752C22.6835 10.1109 22.882 10.5903 22.882 11.0901V21.1412C22.8856 21.63 22.6978 22.1008 22.3588 22.4529C22.0198 22.8051 21.5564 23.0107 21.0679 23.0257C20.5631 23.0185 20.0798 22.82 19.7159 22.4701C19.3519 22.1203 19.1344 21.6453 19.1072 21.1412L19.113 11.0901ZM20.9975 30.5649C20.5092 30.5656 20.0317 30.4215 19.6253 30.1508C19.2189 29.8802 18.9019 29.4951 18.7143 29.0443C18.5267 28.5935 18.477 28.0972 18.5714 27.6182C18.6658 27.1391 18.9002 26.6988 19.2448 26.3529C19.5894 26.007 20.0288 25.771 20.5075 25.6748C20.9862 25.5786 21.4827 25.6265 21.9342 25.8124C22.3857 25.9983 22.7719 26.3139 23.0441 26.7193C23.3163 27.1247 23.4622 27.6016 23.4633 28.0899C23.4639 28.4142 23.4006 28.7354 23.2771 29.0352C23.1536 29.335 22.9722 29.6075 22.7433 29.8373C22.5145 30.067 22.2426 30.2494 21.9433 30.374C21.6439 30.4987 21.3229 30.5631 20.9987 30.5637L20.9975 30.5649Z" fill="#FFC627"/>
</svg>
