<svg width="37" height="25" viewBox="0 0 37 25" fill="none" xmlns="http://www.w3.org/2000/svg">
<g id="users">
<g id="Group 11071">
<g id="Group 11067">
<path id="Path 68812" d="M30.9116 13.948H30.5073C29.4718 14.4518 28.3323 14.7139 27.1773 14.7139C26.0222 14.7139 24.8828 14.4518 23.8473 13.948H23.4439C21.9588 13.9484 20.5346 14.5294 19.4844 15.5633C18.4343 16.5972 17.8441 17.9994 17.8438 19.4615V20.8396C17.8439 21.4489 18.0898 22.0331 18.5273 22.4639C18.9649 22.8947 19.5583 23.1367 20.1771 23.1369H34.175C34.7939 23.1367 35.3874 22.8947 35.825 22.4639C36.2626 22.0331 36.5086 21.4489 36.5089 20.8396V19.4615C36.5085 17.9998 35.9187 16.5981 34.8692 15.5643C33.8197 14.5305 32.3962 13.9491 30.9116 13.948Z" fill="#FFC627"/>
<path id="Path 68813" d="M34.1784 23.6175H20.1804C19.4324 23.6166 18.7153 23.3236 18.1865 22.8029C17.6576 22.2821 17.3601 21.576 17.3594 20.8396V19.461C17.3618 17.8721 18.004 16.3491 19.1452 15.2256C20.2864 14.1022 21.8335 13.4701 23.4473 13.4678H23.8506C23.9235 13.4679 23.9953 13.4844 24.0608 13.5158C25.0311 13.9863 26.0983 14.231 27.1799 14.231C28.2615 14.231 29.3287 13.9863 30.299 13.5158C30.365 13.4844 30.4373 13.468 30.5106 13.4678H30.914C32.5278 13.4701 34.0749 14.1022 35.2161 15.2256C36.3572 16.3491 36.9994 17.8721 37.0019 19.461V20.8396C37.0011 21.5764 36.7033 22.2829 36.1739 22.8037C35.6445 23.3245 34.9268 23.6172 34.1784 23.6175ZM23.4453 14.4281C22.0899 14.4295 20.7905 14.9602 19.832 15.9037C18.8736 16.8473 18.3344 18.1266 18.3329 19.461V20.8396C18.3333 21.3214 18.5278 21.7834 18.8738 22.1242C19.2199 22.4649 19.6891 22.6566 20.1785 22.6571H34.1764C34.6659 22.6566 35.1352 22.465 35.4812 22.1242C35.8273 21.7835 36.022 21.3215 36.0225 20.8396V19.461C36.0208 18.1266 35.4817 16.8474 34.5232 15.9039C33.5648 14.9604 32.2654 14.4297 30.9101 14.4281H30.6175C29.5428 14.9297 28.3683 15.1899 27.1789 15.1899C25.9896 15.1899 24.8151 14.9297 23.7404 14.4281H23.4453Z" fill="#191919"/>
</g>
<g id="Group 11070">
<g id="Group 11068">
<path id="Path 68814" d="M21.143 23.6174C21.0137 23.6174 20.8896 23.5668 20.7981 23.4768C20.7067 23.3867 20.6553 23.2646 20.6553 23.1372V21.3606C20.6553 21.2332 20.7067 21.1111 20.7981 21.021C20.8896 20.931 21.0137 20.8804 21.143 20.8804C21.2724 20.8804 21.3964 20.931 21.4879 21.021C21.5794 21.1111 21.6307 21.2332 21.6307 21.3606V23.1372C21.6307 23.2646 21.5794 23.3867 21.4879 23.4768C21.3964 23.5668 21.2724 23.6174 21.143 23.6174Z" fill="#191919"/>
</g>
<g id="Group 11069">
<path id="Path 68815" d="M33.2143 23.6174C33.0849 23.6174 32.9609 23.5668 32.8694 23.4768C32.7779 23.3867 32.7266 23.2646 32.7266 23.1372V21.3606C32.7266 21.2332 32.7779 21.1111 32.8694 21.021C32.9609 20.931 33.0849 20.8804 33.2143 20.8804C33.3437 20.8804 33.4677 20.931 33.5592 21.021C33.6506 21.1111 33.702 21.2332 33.702 21.3606V23.1372C33.702 23.2646 33.6506 23.3867 33.5592 23.4768C33.4677 23.5668 33.3437 23.6174 33.2143 23.6174Z" fill="#191919"/>
</g>
</g>
</g>
<g id="Group 11072">
<path id="Path 68816" d="M29.6727 20.9401H24.7631C24.6338 20.9401 24.5097 20.8895 24.4182 20.7995C24.3268 20.7094 24.2754 20.5873 24.2754 20.4599C24.2754 20.3326 24.3268 20.2104 24.4182 20.1204C24.5097 20.0303 24.6338 19.9797 24.7631 19.9797H29.6727C29.802 19.9797 29.9261 20.0303 30.0175 20.1204C30.109 20.2104 30.1604 20.3326 30.1604 20.4599C30.1604 20.5873 30.109 20.7094 30.0175 20.7995C29.9261 20.8895 29.802 20.9401 29.6727 20.9401Z" fill="#191919"/>
</g>
<g id="Group 11077">
<g id="Group 11073">
<path id="Path 68817" d="M15.4203 14.0176H14.9594C13.7763 14.593 12.4746 14.8924 11.155 14.8924C9.8355 14.8924 8.53372 14.593 7.3507 14.0176H6.8898C5.1926 14.0181 3.56507 14.6821 2.36502 15.8637C1.16497 17.0453 0.490622 18.6477 0.490234 20.3186V21.8936C0.490493 22.5898 0.771506 23.2574 1.27151 23.7496C1.7715 24.2419 2.44957 24.5185 3.15668 24.5188H19.1544C19.8615 24.5187 20.5396 24.2421 21.0397 23.7498C21.5397 23.2575 21.8207 22.5898 21.8208 21.8936V20.3186C21.8204 18.6475 21.1459 17.045 19.9457 15.8634C18.7454 14.6818 17.1176 14.0178 15.4203 14.0176Z" fill="white"/>
<path id="Path 68818" d="M19.1538 24.9999H3.15613C2.31986 24.9988 1.51819 24.6712 0.9269 24.0889C0.335615 23.5067 0.00298539 22.7174 0.00195312 21.8941V20.3186C0.00388849 18.5211 0.729851 16.7977 2.02061 15.5265C3.31138 14.2552 5.06156 13.5399 6.8873 13.5374H7.34869C7.42152 13.5378 7.49332 13.5542 7.55891 13.5854C8.67715 14.1273 9.90688 14.4092 11.1533 14.4092C12.3997 14.4092 13.6294 14.1273 14.7476 13.5854C14.8137 13.5542 14.886 13.5378 14.9593 13.5374H15.4202C17.2462 13.5394 18.9968 14.2544 20.288 15.5256C21.5792 16.7968 22.3054 18.5203 22.3075 20.3181V21.8926C22.307 22.7162 21.9746 23.5058 21.3834 24.0884C20.7921 24.6709 19.9903 24.9988 19.1538 24.9999ZM6.8873 14.4982C5.31994 14.5 3.81729 15.1138 2.709 16.2049C1.60071 17.2961 0.977279 18.7755 0.975472 20.3186V21.8926C0.975988 22.4614 1.20568 23.0067 1.61414 23.409C2.0226 23.8112 2.57646 24.0375 3.15418 24.0381H19.1519C19.7295 24.0373 20.2832 23.811 20.6916 23.4088C21.0999 23.0066 21.3296 22.4613 21.3301 21.8926V20.3171C21.328 18.7745 20.7047 17.2957 19.5969 16.2048C18.4891 15.1139 16.9871 14.5 15.4202 14.4977H15.069C13.8462 15.0713 12.5088 15.3689 11.1542 15.3689C9.79972 15.3689 8.46227 15.0713 7.23944 14.4977L6.8873 14.4982Z" fill="#191919"/>
</g>
<g id="Group 11076">
<g id="Group 11074">
<path id="Path 68819" d="M4.25629 24.9999C4.12693 24.9999 4.00288 24.9493 3.91141 24.8592C3.81994 24.7692 3.76855 24.647 3.76855 24.5197V22.4895C3.76855 22.3621 3.81994 22.24 3.91141 22.1499C4.00288 22.0599 4.12693 22.0093 4.25629 22.0093C4.38564 22.0093 4.5097 22.0599 4.60117 22.1499C4.69264 22.24 4.74402 22.3621 4.74402 22.4895V24.5197C4.74402 24.647 4.69264 24.7692 4.60117 24.8592C4.5097 24.9493 4.38564 24.9999 4.25629 24.9999Z" fill="#191919"/>
</g>
<g id="Group 11075">
<path id="Path 68820" d="M18.0522 24.9999C17.9228 24.9999 17.7988 24.9493 17.7073 24.8592C17.6158 24.7692 17.5645 24.647 17.5645 24.5197V22.4895C17.5645 22.3621 17.6158 22.24 17.7073 22.1499C17.7988 22.0599 17.9228 22.0093 18.0522 22.0093C18.1815 22.0093 18.3056 22.0599 18.3971 22.1499C18.4885 22.24 18.5399 22.3621 18.5399 22.4895V24.5197C18.5399 24.647 18.4885 24.7692 18.3971 24.8592C18.3056 24.9493 18.1815 24.9999 18.0522 24.9999Z" fill="#191919"/>
</g>
</g>
</g>
<g id="Group 11078">
<path id="Ellipse 9245" d="M11.1537 12.7317C14.59 12.7317 17.3757 9.98914 17.3757 6.60598C17.3757 3.22282 14.59 0.480225 11.1537 0.480225C7.71734 0.480225 4.93164 3.22282 4.93164 6.60598C4.93164 9.98914 7.71734 12.7317 11.1537 12.7317Z" fill="white"/>
<path id="Path 68821" d="M11.1531 13.2119C9.82606 13.2119 8.52879 12.8245 7.42538 12.0986C6.32197 11.3727 5.46196 10.341 4.95411 9.13392C4.44627 7.92685 4.31339 6.59862 4.57229 5.31719C4.83119 4.03576 5.47023 2.8587 6.4086 1.93484C7.34698 1.01098 8.54255 0.381826 9.84411 0.126934C11.1457 -0.127957 12.4948 0.0028622 13.7208 0.50285C14.9469 1.00284 15.9948 1.84954 16.7321 2.93588C17.4694 4.02222 17.8629 5.29941 17.8629 6.60594C17.8611 8.3574 17.1536 10.0366 15.8956 11.2751C14.6377 12.5135 12.9321 13.2101 11.1531 13.2119ZM11.1531 0.960375C10.019 0.960375 8.91032 1.29148 7.96732 1.91183C7.02432 2.53217 6.28934 3.41389 5.85533 4.44548C5.42131 5.47707 5.30775 6.61221 5.52901 7.70734C5.75027 8.80247 6.29641 9.80841 7.09836 10.598C7.90032 11.3875 8.92207 11.9252 10.0344 12.143C11.1468 12.3609 12.2997 12.2491 13.3475 11.8218C14.3953 11.3945 15.2909 10.6709 15.921 9.74245C16.5511 8.81404 16.8874 7.72253 16.8874 6.60594C16.8857 5.10915 16.281 3.67414 15.206 2.61575C14.131 1.55736 12.6734 0.962027 11.1531 0.960375Z" fill="#191919"/>
</g>
<g id="Group 11079">
<path id="Ellipse 9246" d="M27.1785 12.9055C30.1728 12.9055 32.6001 10.5157 32.6001 7.56774C32.6001 4.61978 30.1728 2.22998 27.1785 2.22998C24.1842 2.22998 21.7568 4.61978 21.7568 7.56774C21.7568 10.5157 24.1842 12.9055 27.1785 12.9055Z" fill="white"/>
<path id="Path 68822" d="M27.1789 13.3857C26.0102 13.3857 24.8676 13.0444 23.8958 12.4052C22.9241 11.7659 22.1666 10.8572 21.7194 9.79415C21.2721 8.73105 21.1551 7.56125 21.3831 6.43268C21.6111 5.30411 22.1739 4.26745 23.0004 3.4538C23.8268 2.64014 24.8797 2.08604 26.0261 1.86155C27.1724 1.63706 28.3605 1.75228 29.4403 2.19262C30.5201 2.63297 31.4431 3.37867 32.0924 4.33543C32.7417 5.29218 33.0883 6.41703 33.0883 7.56771C33.0866 9.11022 32.4635 10.5891 31.3556 11.6798C30.2478 12.7705 28.7457 13.384 27.1789 13.3857ZM27.1789 2.71061C26.2031 2.71061 25.2491 2.99552 24.4377 3.52929C23.6263 4.06307 22.994 4.82175 22.6205 5.70939C22.2471 6.59702 22.1494 7.57374 22.3398 8.51603C22.5303 9.45832 23.0002 10.3239 23.6903 11.0032C24.3804 11.6825 25.2595 12.1451 26.2167 12.3325C27.1738 12.5199 28.1658 12.4236 29.0674 12.0559C29.9689 11.6881 30.7395 11.0655 31.2816 10.2666C31.8236 9.46768 32.1129 8.52847 32.1128 7.56771C32.1113 6.27991 31.591 5.0453 30.666 4.13474C29.741 3.22417 28.487 2.71201 27.1789 2.71061Z" fill="#191919"/>
</g>
<g id="Group 11080">
<path id="Rectangle 14974" d="M16.0462 20.46H11.9229V24.5195H16.0462V20.46Z" fill="#D0D0D0"/>
<path id="Path 68823" d="M16.0466 25.0001H11.9252C11.7959 25.0001 11.6718 24.9495 11.5804 24.8595C11.4889 24.7694 11.4375 24.6473 11.4375 24.5199V20.4599C11.4375 20.3326 11.4889 20.2104 11.5804 20.1204C11.6718 20.0303 11.7959 19.9797 11.9252 19.9797H16.0485C16.1779 19.9797 16.3019 20.0303 16.3934 20.1204C16.4849 20.2104 16.5363 20.3326 16.5363 20.4599V24.5199C16.5363 24.5831 16.5236 24.6457 16.499 24.7041C16.4743 24.7625 16.4382 24.8155 16.3927 24.8601C16.3472 24.9048 16.2932 24.9401 16.2338 24.9641C16.1744 24.9881 16.1108 25.0004 16.0466 25.0001ZM12.411 24.0397H15.5589V20.9401H12.413L12.411 24.0397Z" fill="#191919"/>
</g>
</g>
</svg>
